<?xml version="1.0" encoding="utf-8"?>
<!-- Generator: Adobe Illustrator 24.1.0, SVG Export Plug-In . SVG Version: 6.00 Build 0)  -->
<svg version="1.1" id="Capa_1" xmlns="http://www.w3.org/2000/svg" xmlns:xlink="http://www.w3.org/1999/xlink" x="0px" y="0px"
	 viewBox="0 0 500 171.5" style="enable-background:new 0 0 500 171.5;" xml:space="preserve">
<style type="text/css">
	.st0{clip-path:url(#SVGID_2_);}
	.st1{clip-path:url(#SVGID_4_);fill:#FFFFFF;}
	.st2{clip-path:url(#SVGID_4_);fill:none;stroke:#B2D2ED;stroke-width:9;stroke-miterlimit:10;}
	.st3{clip-path:url(#SVGID_4_);fill:#DCDBDB;}
	.st4{clip-path:url(#SVGID_4_);fill:#A5C979;}
	.st5{opacity:0.15;clip-path:url(#SVGID_4_);}
	.st6{fill:url(#SVGID_11_);}
	.st7{fill:#AAC5E5;}
	.st8{fill-rule:evenodd;clip-rule:evenodd;fill:#FFFFFF;}
	.st9{fill-rule:evenodd;clip-rule:evenodd;fill:#719FD4;}
	.st10{fill-rule:evenodd;clip-rule:evenodd;fill:#DCE9F7;}
	.st11{fill-rule:evenodd;clip-rule:evenodd;fill:#CDE0F3;}
	.st12{fill-rule:evenodd;clip-rule:evenodd;fill:#C1DBF2;}
	.st13{fill-rule:evenodd;clip-rule:evenodd;fill:#EAEAE6;}
	.st14{fill-rule:evenodd;clip-rule:evenodd;fill:#E7E9E3;}
	.st15{fill-rule:evenodd;clip-rule:evenodd;fill:#B3CEEB;}
	.st16{fill-rule:evenodd;clip-rule:evenodd;fill:#B8D3EE;}
	.st17{fill-rule:evenodd;clip-rule:evenodd;fill:#E3E2DC;}
	.st18{fill-rule:evenodd;clip-rule:evenodd;fill:#F5F6F5;}
	.st19{fill-rule:evenodd;clip-rule:evenodd;fill:#F0F1EE;}
	.st20{fill-rule:evenodd;clip-rule:evenodd;fill:#DEDED7;}
	.st21{fill-rule:evenodd;clip-rule:evenodd;fill:#F9F9FA;}
	.st22{fill-rule:evenodd;clip-rule:evenodd;fill:#E1E1D9;}
	.st23{fill-rule:evenodd;clip-rule:evenodd;fill:#331C38;}
	.st24{fill-rule:evenodd;clip-rule:evenodd;fill:#4F3F55;}
	.st25{fill-rule:evenodd;clip-rule:evenodd;fill:#3F2C44;}
	.st26{fill-rule:evenodd;clip-rule:evenodd;fill:#5A4A60;}
	.st27{fill-rule:evenodd;clip-rule:evenodd;fill:#05304B;}
	.st28{fill-rule:evenodd;clip-rule:evenodd;fill:#004268;}
	.st29{fill-rule:evenodd;clip-rule:evenodd;fill:#F4AD85;}
	.st30{fill-rule:evenodd;clip-rule:evenodd;fill:#F8CFBE;}
	.st31{fill-rule:evenodd;clip-rule:evenodd;fill:#FDF1EF;}
	.st32{fill-rule:evenodd;clip-rule:evenodd;fill:#E5322A;}
	.st33{fill-rule:evenodd;clip-rule:evenodd;fill:#E8685B;}
	.st34{fill:#EF8871;}
	.st35{fill-rule:evenodd;clip-rule:evenodd;fill:#F4C6B3;}
	.st36{fill-rule:evenodd;clip-rule:evenodd;fill:#F3BBA2;}
	.st37{opacity:0.5;fill-rule:evenodd;clip-rule:evenodd;fill:#DCE9F7;}
	.st38{fill-rule:evenodd;clip-rule:evenodd;fill:#722F17;}
	.st39{fill-rule:evenodd;clip-rule:evenodd;fill:#844117;}
	.st40{fill:#844117;}
</style>
<g>
	<g>
		<defs>
			<path id="SVGID_1_" d="M0,9.6v91.8c40.6-3.6,102.4,6,196.1,41.8c12,4.6,23.9,8.5,35.8,11.9c12.6,3.6,25.2,6.5,37.7,8.9
				c81.1,15.2,159.8,5.6,230.4-15.4V9.6c0-5.3-4.3-9.6-9.6-9.6H9.6C4.3,0,0,4.3,0,9.6z"/>
		</defs>
		<clipPath id="SVGID_2_">
			<use xlink:href="#SVGID_1_"  style="overflow:visible;"/>
		</clipPath>
		<g class="st0">
			<g>
				<g>
					<defs>
						<path id="SVGID_3_" d="M25.6-16.6c-19.7,0-35.8,15.2-35.8,33.9v104.2c40.6-3.6,102.4,6,196.1,41.8c12,4.6,23.9,8.5,35.8,11.9
							c12.6,3.6,25.2,6.5,37.7,8.9c81.1,15.2,159.8,5.6,230.4-15.4V17.3c0-18.7-16-33.9-35.8-33.9H25.6z"/>
					</defs>
					<clipPath id="SVGID_4_">
						<use xlink:href="#SVGID_3_"  style="overflow:visible;"/>
					</clipPath>
					<path class="st1" d="M500.6,372.1H-5.9c-8.6,0-15.6-7-15.6-15.6V-150c0-8.6,7-15.6,15.6-15.6h506.5c8.6,0,15.6,7,15.6,15.6
						v506.5C516.2,365.1,509.2,372.1,500.6,372.1"/>
					<line class="st2" x1="142.8" y1="5.5" x2="172.1" y2="-48.3"/>
					<line class="st2" x1="118.2" y1="51.1" x2="139.2" y2="12.7"/>
					<polyline class="st2" points="-31.6,293.1 25,221.8 110.2,65.7 					"/>
					<polyline class="st2" points="364.6,10.6 334,-21.1 305.7,-52.9 293.4,-109.8 256.1,-144.7 					"/>
					<polyline class="st2" points="494.9,110.7 439.6,76.2 372.3,18.7 					"/>
					<polygon class="st3" points="36.5,-27.2 32.4,-19.2 -0.2,-35.8 4.6,-44.2 					"/>
					<polygon class="st3" points="-4.8,-17.7 -5,-10.6 21.1,2.7 24.6,-4 					"/>
					<polygon class="st3" points="74,-13.6 43,-29.1 47.9,-38.2 78.4,-22.5 					"/>
					<polygon class="st3" points="68,-1.7 36.5,-17.1 40.7,-25 71.9,-9.4 					"/>
					<polygon class="st3" points="61,8.3 30.8,-6.6 34.4,-13.2 64.3,1.6 					"/>
					<polygon class="st3" points="55.3,19.6 24.8,4.5 28.4,-2.1 58.5,13.3 					"/>
					<polygon class="st3" points="123.5,-6.9 91.9,-23.1 99.7,-38.6 131.7,-22.6 					"/>
					<polygon class="st3" points="115,9.3 81.9,-7.3 86.6,-16.7 119.3,1 					"/>
					<polygon class="st3" points="109,20.8 76.1,4.4 79.7,-2.8 112.7,13.7 					"/>
					<polygon class="st3" points="103.2,32.2 70.4,15.8 73.9,8.8 106.6,25.4 					"/>
					<polygon class="st3" points="97.6,42.6 65.1,26.3 67.4,21.7 100.2,37.6 					"/>
					<polygon class="st3" points="148.6,-20.1 138.7,-25 155.2,-58.1 166,-52.5 					"/>
					<polygon class="st3" points="136.5,2.2 127.4,-2.7 135.7,-19.1 145.4,-14.2 					"/>
					<polygon class="st3" points="111.9,47.9 103.1,43.5 122.8,3.9 132.6,9.6 					"/>
					
						<rect x="65.5" y="31.9" transform="matrix(0.4472 -0.8944 0.8944 0.4472 -5.8048 90.2601)" class="st3" width="9.3" height="35.8"/>
					
						<rect x="51.5" y="50" transform="matrix(0.4472 -0.8944 0.8944 0.4472 -27.0137 92.1729)" class="st3" width="19.1" height="35.8"/>
					
						<rect x="48.7" y="67.3" transform="matrix(0.4472 -0.8944 0.8944 0.4472 -47.2472 93.998)" class="st3" width="7.4" height="35.8"/>
					
						<rect x="31.9" y="86" transform="matrix(0.4472 -0.8944 0.8944 0.4472 -69.1871 95.9792)" class="st3" width="22.3" height="35.8"/>
					
						<rect x="29.3" y="105.2" transform="matrix(0.4472 -0.8944 0.8944 0.4472 -91.6144 98.0027)" class="st3" width="8.4" height="35.8"/>
					<polygon class="st3" points="37.8,149.3 8,134.1 12.9,124.3 42.8,139.3 					"/>
					<polygon class="st3" points="27.2,170.5 -2.8,155.5 -2.4,142.7 32,161 					"/>
					<polygon class="st3" points="20.2,184.6 -9.8,169.7 -9.4,156.3 25.6,173.8 					"/>
					<polygon class="st3" points="73.2,116.9 64,112.3 68.1,104 77.5,108.9 					"/>
					<polygon class="st3" points="80,104.2 70.4,99.4 74.6,91.1 84.4,96.2 					"/>
					<polygon class="st3" points="87,91.6 76.9,86.5 81,78.2 91.2,83.6 					"/>
					<polygon class="st3" points="93.8,78.9 83.3,73.6 92.2,55.8 103.1,61.8 					"/>
					<polygon class="st3" points="66.9,128.4 57.1,123.5 60.3,117.3 70.3,122.3 					"/>
					<polygon class="st3" points="59.3,142.5 51,138.3 55.4,129.4 64.1,133.7 					"/>
					<polygon class="st3" points="51.8,156.4 42.9,151.9 46.7,144.3 55.8,148.9 					"/>
					<polygon class="st3" points="41.2,175.9 33,171.8 37.1,163.7 45.4,168.2 					"/>
					<polygon class="st3" points="33.6,189.8 25.9,186 30.1,177.6 38.1,181.6 					"/>
					<polygon class="st3" points="-0.9,-22.6 26.9,-8.5 30.4,-15.3 -1.5,-31.3 					"/>
					<polygon class="st3" points="-13.4,2.9 -15.1,55.6 -6.2,55.9 14,16.6 					"/>
					<polygon class="st3" points="18.5,83.7 -9.5,68 -5.5,60.6 22.6,76.4 					"/>
					<polygon class="st3" points="12.9,94.9 -15.5,79 -11.5,71.6 17,87.6 					"/>
					<polygon class="st3" points="7.3,106.2 -15.9,93.2 -17.5,82.8 11.4,98.9 					"/>
					<polygon class="st3" points="1.6,117.4 -16.1,107.5 -15.8,98 5.7,110.1 					"/>
					<polygon class="st3" points="-3.7,128.2 -16.3,121.8 -16.3,112.1 0.1,121.3 					"/>
					<polygon class="st3" points="24.1,72.4 -3.5,56.9 0.5,49.6 28.2,65.1 					"/>
					<polygon class="st3" points="29.7,61.2 2.5,45.9 6.5,38.5 33.8,53.9 					"/>
					<polygon class="st3" points="35,50.8 8,35.7 12,28.3 39.1,43.5 					"/>
					<polygon class="st3" points="40.2,40.4 13.6,25.4 17.5,18.1 44.3,33.1 					"/>
					<polygon class="st3" points="-17.7,179.6 -18.7,192.6 19.3,216.1 24.9,205.9 					"/>
					<polygon class="st3" points="-19.4,199.6 -21.2,264.9 15.7,221.4 					"/>
					<polygon class="st3" points="-17.1,134.8 -8.6,139.3 -9.3,147.4 -17.5,146.5 					"/>
					<polygon class="st3" points="235.6,-61.3 222.2,-36.9 247.3,-22.9 258.9,-46.3 					"/>
					<polygon class="st3" points="196.5,-36.6 201.6,-33.9 171.7,20.3 167.7,18.3 					"/>
					<polygon class="st3" points="178,-46.2 191.9,-39 163.3,16.1 150.1,9.5 					"/>
					<polygon class="st3" points="146.5,16.8 159.2,23.4 137,62.3 125.1,55.2 					"/>
					<polygon class="st3" points="163.4,25.5 167.7,27.7 146,67 141.7,64.9 					"/>
					<polygon class="st3" points="103.4,118.4 93.4,112.8 117.3,69.7 127.5,74.7 					"/>
					<polygon class="st3" points="114.3,124.4 107.4,120.6 132.1,75.8 139,79.6 					"/>
					
						<rect x="57.3" y="138.1" transform="matrix(0.4836 -0.8753 0.8753 0.4836 -82.2003 146.2982)" class="st3" width="51.2" height="9.4"/>
					
						<rect x="69.5" y="144.9" transform="matrix(0.4836 -0.8753 0.8753 0.4836 -81.8006 160.4807)" class="st3" width="51.2" height="9.4"/>
					<polygon class="st3" points="52.3,206.9 44.1,202.3 59,175.5 67.2,179.9 					"/>
					
						<rect x="33.5" y="215.2" transform="matrix(0.4836 -0.8753 0.8753 0.4836 -171.3967 149.3661)" class="st3" width="14.7" height="9.4"/>
					<polygon class="st3" points="65.6,212.7 57.4,208.2 71.6,182.2 80,186.7 					"/>
					<polygon class="st4" points="186.1,28.7 211.9,41.6 234.4,-3.4 210.4,-15.4 					"/>
					<polygon class="st3" points="213,-20.1 236.2,-8 239.3,-14.2 216.3,-26.2 					"/>
					<polygon class="st3" points="239.8,1.4 264,13.7 270.2,2 245.9,-10.7 					"/>
					
						<rect x="193.4" y="43.8" transform="matrix(0.4472 -0.8944 0.8944 0.4472 64.7942 204.5526)" class="st3" width="9" height="12.1"/>
					<polygon class="st3" points="177.4,44.7 188.8,50.3 192.8,42.3 181.7,36.9 					"/>
					
						<rect x="188" y="54.5" transform="matrix(0.4472 -0.8944 0.8944 0.4472 52.3017 205.687)" class="st3" width="9" height="12.1"/>
					<polygon class="st3" points="171.8,54.8 183.5,61 187.5,53 176,47.2 					"/>
					
						<rect x="182.7" y="65.2" transform="matrix(0.4472 -0.8944 0.8944 0.4472 39.795 206.8073)" class="st3" width="9" height="12.1"/>
					<polygon class="st3" points="165.9,65.6 178.1,71.7 182.1,63.6 170.2,57.7 					"/>
					
						<rect x="177.4" y="75.8" transform="matrix(0.4472 -0.8944 0.8944 0.4472 27.2958 207.9353)" class="st3" width="9" height="12.1"/>
					<polygon class="st3" points="160.1,76.1 172.8,82.4 176.8,74.3 164.5,68.2 					"/>
					
						<rect x="225.5" y="60.8" transform="matrix(0.4472 -0.8944 0.8944 0.4472 67.3095 242.6633)" class="st3" width="9" height="12.1"/>
					
						<rect x="213" y="54.6" transform="matrix(0.4472 -0.8944 0.8944 0.4472 65.9901 228.037)" class="st3" width="9" height="12.1"/>
					
						<rect x="220.1" y="71.5" transform="matrix(0.4472 -0.8944 0.8944 0.4472 54.8099 243.7907)" class="st3" width="9" height="12.1"/>
					
						<rect x="207.6" y="65.3" transform="matrix(0.4472 -0.8944 0.8944 0.4472 53.4982 229.1722)" class="st3" width="9" height="12.1"/>
					
						<rect x="214.8" y="82.2" transform="matrix(0.4472 -0.8944 0.8944 0.4472 42.3102 244.9179)" class="st3" width="9" height="12.1"/>
					
						<rect x="202.3" y="75.9" transform="matrix(0.4472 -0.8944 0.8944 0.4472 40.9909 230.2917)" class="st3" width="9" height="12.1"/>
					
						<rect x="209.5" y="92.9" transform="matrix(0.4472 -0.8944 0.8944 0.4472 29.8113 246.0457)" class="st3" width="9" height="12.1"/>
					
						<rect x="197" y="86.6" transform="matrix(0.4472 -0.8944 0.8944 0.4472 28.492 231.4195)" class="st3" width="9" height="12.1"/>
					
						<rect x="249.6" y="12.5" transform="matrix(0.4472 -0.8944 0.8944 0.4472 123.864 237.5617)" class="st3" width="9" height="12.1"/>
					
						<rect x="237.1" y="6.3" transform="matrix(0.4472 -0.8944 0.8944 0.4472 122.5444 222.9356)" class="st3" width="9" height="12.1"/>
					
						<rect x="244.3" y="23.2" transform="matrix(0.4472 -0.8944 0.8944 0.4472 111.3645 238.6891)" class="st3" width="9" height="12.1"/>
					<polygon class="st3" points="257.6,52 269.9,58.2 274.6,50.5 261.6,44 					"/>
					<polygon class="st3" points="250.5,63.7 262.8,69.9 267.5,62.2 254.5,55.7 					"/>
					<polygon class="st3" points="263.6,39.9 276.9,46.6 294.5,17.6 279.5,8.1 					"/>
					<polygon class="st3" points="259,76.3 248.1,70.9 246.4,74.4 257.1,79.8 					"/>
					<polygon class="st3" points="254.9,83.8 244.4,78.4 227.9,111.4 237.3,116.1 					"/>
					
						<rect x="231.8" y="16.9" transform="matrix(0.4472 -0.8944 0.8944 0.4472 110.0455 224.0634)" class="st3" width="9" height="12.1"/>
					
						<rect x="238.9" y="33.9" transform="matrix(0.4472 -0.8944 0.8944 0.4472 98.8648 239.8163)" class="st3" width="9" height="12.1"/>
					
						<rect x="226.5" y="27.6" transform="matrix(0.4472 -0.8944 0.8944 0.4472 97.5455 225.1901)" class="st3" width="9" height="12.1"/>
					
						<rect x="233.6" y="44.5" transform="matrix(0.4472 -0.8944 0.8944 0.4472 86.3656 240.9442)" class="st3" width="9" height="12.1"/>
					
						<rect x="221.1" y="38.3" transform="matrix(0.4472 -0.8944 0.8944 0.4472 85.0463 226.318)" class="st3" width="9" height="12.1"/>
					
						<rect x="163.1" y="95.4" transform="matrix(0.4472 -0.8944 0.8944 0.4472 1.9156 205.9644)" class="st3" width="9" height="12.1"/>
					<polygon class="st3" points="148.6,97 158.5,101.9 162.5,93.9 153,89.1 					"/>
					
						<rect x="157.8" y="106.1" transform="matrix(0.4472 -0.8944 0.8944 0.4472 -10.5836 207.0923)" class="st3" width="9" height="12.1"/>
					<polygon class="st3" points="142.9,107.5 153.2,112.6 157.2,104.5 147.2,99.6 					"/>
					
						<rect x="152.4" y="116.7" transform="matrix(0.4472 -0.8944 0.8944 0.4472 -23.0828 208.2203)" class="st3" width="9" height="12.1"/>
					<polygon class="st3" points="137.2,117.7 147.8,123.3 151.8,115.2 141.5,109.9 					"/>
					
						<rect x="147.1" y="127.4" transform="matrix(0.4472 -0.8944 0.8944 0.4472 -35.5824 209.3469)" class="st3" width="9" height="12.1"/>
					<polygon class="st3" points="131.4,128.4 142.5,133.9 146.5,125.9 135.8,120.4 					"/>
					
						<rect x="193.8" y="110.7" transform="matrix(0.4472 -0.8944 0.8944 0.4472 5.1489 241.9166)" class="st3" width="9" height="12.1"/>
					
						<rect x="181.3" y="104.5" transform="matrix(0.4472 -0.8944 0.8944 0.4472 3.8295 227.2903)" class="st3" width="9" height="12.1"/>
					
						<rect x="188.5" y="121.4" transform="matrix(0.4472 -0.8944 0.8944 0.4472 -7.3504 243.0444)" class="st3" width="9" height="12.1"/>
					
						<rect x="176" y="115.2" transform="matrix(0.4472 -0.8944 0.8944 0.4472 -8.6697 228.4182)" class="st3" width="9" height="12.1"/>
					
						<rect x="183.1" y="132.1" transform="matrix(0.4472 -0.8944 0.8944 0.4472 -19.8503 244.1711)" class="st3" width="9" height="12.1"/>
					
						<rect x="170.6" y="125.8" transform="matrix(0.4472 -0.8944 0.8944 0.4472 -21.1693 229.5455)" class="st3" width="9" height="12.1"/>
					
						<rect x="177.8" y="142.8" transform="matrix(0.4472 -0.8944 0.8944 0.4472 -32.3495 245.2991)" class="st3" width="9" height="12.1"/>
					
						<rect x="165.3" y="136.5" transform="matrix(0.4472 -0.8944 0.8944 0.4472 -33.6689 230.6728)" class="st3" width="9" height="12.1"/>
					
						<rect x="135.4" y="144.1" transform="matrix(0.4472 -0.8944 0.8944 0.4472 -56.9374 208.1609)" class="st3" width="9" height="12.1"/>
					<polygon class="st3" points="121.7,146 130.8,150.6 134.9,142.6 126,138.3 					"/>
					
						<rect x="130.1" y="154.8" transform="matrix(0.4472 -0.8944 0.8944 0.4472 -69.437 209.2882)" class="st3" width="9" height="12.1"/>
					<polygon class="st3" points="115.9,156.5 125.5,161.3 129.5,153.3 120.3,148.6 					"/>
					<polygon class="st3" points="113.9,188.6 127.2,189.9 136.7,170.2 125.9,164.8 					"/>
					<polygon class="st3" points="98.8,187.7 111.9,188.5 124.2,163.9 114.5,159.1 					"/>
					
						<rect x="172.6" y="153" transform="matrix(0.4472 -0.8944 0.8944 0.4472 -44.3041 246.3418)" class="st3" width="9" height="12.1"/>
					
						<rect x="160.2" y="146.7" transform="matrix(0.4472 -0.8944 0.8944 0.4472 -45.6235 231.7155)" class="st3" width="9" height="12.1"/>
					
						<rect x="167.3" y="163.6" transform="matrix(0.4472 -0.8944 0.8944 0.4472 -56.804 247.4686)" class="st3" width="9" height="12.1"/>
					
						<rect x="154.8" y="157.4" transform="matrix(0.4472 -0.8944 0.8944 0.4472 -58.1233 232.8426)" class="st3" width="9" height="12.1"/>
					<polygon class="st3" points="154.5,191.6 168.3,191.6 173.9,179 163.1,173.6 					"/>
					<polygon class="st3" points="139.3,190 152.4,190.8 161.4,172.8 150.6,167.4 					"/>
					<polygon class="st3" points="209.4,167.4 194.7,160 204.6,140.2 220,147.8 					"/>
					<polygon class="st3" points="198.4,193.3 178.1,192.6 192.3,164.2 207,171.5 					"/>
					<polygon class="st3" points="222.2,143.8 206.7,136 214,121.3 230.1,129.3 					"/>
					<polygon class="st3" points="136,196.6 195.7,200.1 190.8,212.1 131.1,208.4 					"/>
					<polygon class="st3" points="130.7,215.5 189,216.9 180.7,237.8 129.8,236.1 					"/>
					<polygon class="st3" points="94,194.8 86.1,206.5 122.1,209.6 123.7,196.3 					"/>
					<polygon class="st3" points="83.4,210.3 79.6,216.1 78.6,229 122.3,232.3 122.3,214.6 					"/>
					<polygon class="st3" points="78.1,235.5 77.5,243.8 119.8,247.5 122.3,237.5 					"/>
					<polygon class="st3" points="127.7,240.2 126.2,248.2 142.8,249.5 143.3,240.1 					"/>
					<polygon class="st3" points="146,240.8 145.5,249.7 174.9,252.3 178.9,242.1 					"/>
					<polygon class="st3" points="29.8,227.8 39.8,232.8 27.4,251.8 17,244 					"/>
					<polygon class="st3" points="15.6,245.9 24.7,253 6.2,274 -1.3,268.1 					"/>
					<polygon class="st3" points="-5,272.1 2.5,278.9 -22.1,304.3 -21.1,292.1 					"/>
					<polygon class="st3" points="-21.9,313 -22.3,341.9 -5.9,326.2 					"/>
					<polygon class="st3" points="-1.7,330.6 -22.8,356.5 -0.8,357.1 11.5,342 					"/>
					<polygon class="st3" points="27.4,300.2 37.5,310.1 14.3,338.6 0.6,324.2 					"/>
					<polygon class="st3" points="9.7,283.5 22.4,296.1 -2.6,322.3 -17.1,307.6 					"/>
					<polygon class="st3" points="46.5,232.5 56.9,235 56.4,258.3 36.4,252.6 					"/>
					<polygon class="st3" points="33.8,257.8 16,278.9 32.2,294.8 51.2,263.7 					"/>
					<polygon class="st3" points="35.8,297.5 42.4,303.7 58.8,283.9 60.4,267 54.9,265.5 					"/>
					<polygon class="st3" points="53.7,218.1 53.8,225.9 63.7,231.8 64.6,223.5 					"/>
					<polygon class="st3" points="60.3,235.8 58.5,258.3 61.2,258.5 63.3,236.4 					"/>
					<polygon class="st3" points="14.2,361.1 67.2,361.2 80.3,341.3 48.5,321.1 					"/>
					<polygon class="st3" points="89.3,339.9 77.8,358.7 122.8,359.3 					"/>
					<polygon class="st3" points="116.9,254.3 77,250.8 75,276.1 104.5,286.7 					"/>
					<polygon class="st3" points="74.6,281.7 101.2,293.2 88.2,319.1 61.6,305.8 73.9,291.4 					"/>
					<polygon class="st3" points="124.8,254.9 119.1,268.8 129.4,274 138.8,256.2 					"/>
					<polygon class="st3" points="133.3,275.9 144.5,281.5 154.7,257.8 143,256.5 					"/>
					<polygon class="st3" points="150.5,281.7 160.9,286.9 172.1,259.3 160.2,258 					"/>
					<polygon class="st3" points="117.4,274.4 109.9,289.4 121.1,295 127.5,277.8 					"/>
					<polygon class="st3" points="125.8,297.3 135.5,302.2 142.7,285.6 131.4,279.8 					"/>
					<polygon class="st3" points="140.8,304.5 152.4,310.3 158.5,293.4 147.8,288 					"/>
					<polygon class="st3" points="107.7,298 93.7,321.8 107,328.5 119.3,303.8 					"/>
					<polygon class="st3" points="111,330.5 121.1,335.6 132.1,310.2 122.8,305.5 					"/>
					<polygon class="st3" points="126.8,338.4 140.8,345.4 149.8,319 137.5,312.9 					"/>
					<polygon class="st3" points="267.1,-40.6 252.9,-19.7 282.4,-1.2 290.8,-13.8 					"/>
					<polygon class="st3" points="296,-11.2 286.1,1.2 299.4,9.5 306.8,-2.8 					"/>
					<polygon class="st3" points="281.7,-54.2 272,-44.1 288.8,-25.5 296.3,-34.3 					"/>
					<polygon class="st3" points="290.8,-23.2 298.9,-30.6 314,-14.9 309.2,-6.8 					"/>
					<polygon class="st3" points="293.9,-65.3 285.4,-56.4 316.5,-20.4 318.7,-26.8 297.1,-49.9 					"/>
					<polygon class="st3" points="388.1,-26.7 397.4,-14 430.4,-32.3 420.7,-45.4 					"/>
					<polygon class="st3" points="483.2,-21.5 403.4,34.1 378.4,12.9 390.6,1.5 481.4,-48.3 					"/>
					<polygon class="st3" points="457.5,4.2 477.9,25.9 440.9,65.3 409.1,38.9 					"/>
					<polygon class="st3" points="461.6,1.3 483.2,19.5 498.9,6.9 498,-24.6 					"/>
					<polygon class="st4" points="498.9,14.2 445.5,69.1 498.4,102.7 					"/>
					<polygon class="st3" points="393.3,46.8 375.4,61.9 424.1,99.6 436.2,84.3 					"/>
					<polygon class="st3" points="438.7,85.9 426.8,101.3 492.8,149.4 495.8,121.2 					"/>
					<polygon class="st3" points="389.2,43.1 371.4,58.8 348.4,41.1 366.4,24.2 					"/>
					<polygon class="st3" points="339.9,49.2 301.7,95.2 310.9,104 362,63.6 					"/>
					<polygon class="st3" points="368.2,68.1 352.1,80.3 384.1,105.7 400.2,91.9 					"/>
					<polygon class="st3" points="404.5,95 388.1,109 403.6,120.9 418.3,105.2 					"/>
					<polygon class="st3" points="385.5,111.2 375.6,119.5 394,136.6 401.5,124.3 					"/>
					<polygon class="st3" points="373.1,121.7 350,141.2 375.9,166 392.2,139.4 					"/>
					<polygon class="st3" points="349.9,81.9 344.9,85.7 376,112.5 381.4,107.9 					"/>
					<polygon class="st3" points="358.3,102.4 365.9,109.4 341.1,132.8 333.3,125.3 					"/>
					<polygon class="st3" points="368.5,112.5 372.1,115.9 347,138.4 343.6,135.2 					"/>
					<polygon class="st3" points="342.1,87.8 353.7,100.1 329.8,122.1 315,107.9 					"/>
					<polygon class="st3" points="311.3,111.1 282.1,140 294.7,150.8 325.5,125.3 					"/>
					<polygon class="st3" points="329.7,129.4 302.4,153.2 313.9,165.5 342,141.6 					"/>
					<polygon class="st3" points="345.5,145 331.7,156.7 353.6,178.5 372.3,171.7 					"/>
					<polygon class="st3" points="328.3,159.6 316.9,169.2 334.2,185.6 348.7,180.3 					"/>
					<polygon class="st3" points="423.8,109.3 431.9,115.3 417.9,127.2 411.4,122.1 					"/>
					<polygon class="st3" points="435,117.6 444.9,124.9 429.3,136.3 421.4,130.3 					"/>
					<polygon class="st3" points="447.7,128.4 463.3,138.5 442.4,146.1 432.1,138.5 					"/>
					<polygon class="st3" points="408.7,125 403.2,133.1 427.5,151.6 437.9,147.8 					"/>
					<polygon class="st3" points="399.4,137.9 379.2,169.2 422.3,153.5 					"/>
					<polygon class="st4" points="430.8,156.9 387.3,172.5 443.7,218.7 451.9,207 462.4,179.1 					"/>
					<polygon class="st4" points="412.1,202 376.8,236 417.4,256.3 439.2,225.1 					"/>
					<polygon class="st4" points="381,174.8 372.3,177.9 400.8,204.5 407.4,198.2 					"/>
					<polygon class="st4" points="369,179.1 357.4,183.3 389.9,214.7 398.5,206.6 					"/>
					<polygon class="st4" points="354.5,184.3 338.3,190.1 372.6,231.1 387.5,217 					"/>
					<polygon class="st3" points="333.7,191.8 315.5,198.6 328.8,217.2 344.6,205 					"/>
					<polygon class="st3" points="346.5,208.1 330.9,220 352.3,250.2 368.4,235 					"/>
					<polygon class="st3" points="413.9,261.1 398.3,270.4 373.1,239.6 					"/>
					<polygon class="st3" points="370.5,242.2 356.7,255.9 376.4,283.4 394.9,272.4 					"/>
					<polygon class="st4" points="464,144.9 435.8,155.1 464.1,174.6 					"/>
					<polygon class="st3" points="279,142.8 266.4,144 299.5,197.4 328.8,187.6 					"/>
					<polygon class="st4" points="256.7,142.2 238.6,134 208.2,193.9 291.9,198.6 					"/>
					<polygon class="st3" points="298.8,98.8 306.6,106.5 276.6,135.7 271.6,131.8 					"/>
					<polygon class="st3" points="269.5,81.6 293.7,95.8 266.5,130.2 246.4,120.6 					"/>
					<polygon class="st3" points="302.8,23.2 311.6,29.6 294.8,55.5 287,51.4 					"/>
					<polygon class="st3" points="284.7,55.5 292.8,59.5 279.2,81.8 271.8,77.5 					"/>
					<polygon class="st3" points="315.3,32.1 298.9,57 306.8,61.5 323,37.3 					"/>
					<polygon class="st3" points="309.3,62.2 315.9,67.7 334,44.7 325.4,38.7 					"/>
					<polygon class="st3" points="296,62.8 303,66.3 288.1,87.1 283,84.1 					"/>
					<polygon class="st3" points="306.1,68.7 312.1,72.4 296.9,92.3 290.7,88.7 					"/>
					<polygon class="st3" points="320.7,-9.1 307.6,14.7 342.9,36.8 351.3,27 					"/>
					<polygon class="st3" points="325.9,-19.1 323.1,-13.1 354.8,22.1 359.7,17.2 354.8,11.9 					"/>
					<polygon class="st3" points="336.6,-40.2 333.9,-34.9 371.5,5 377.5,0 					"/>
					<polygon class="st3" points="351.5,-35.1 360,-25.7 372.8,-40.9 363.2,-54.3 					"/>
					<polygon class="st3" points="377.4,-34.7 365,-20.8 381.3,-3.1 388.9,-9.3 393.8,-12 					"/>
					<polygon class="st4" points="474.3,264.8 329.1,355.3 511.2,364 					"/>
					<polygon class="st3" points="204.9,200.6 199.4,214.1 248,215 247.4,202.9 					"/>
					<polygon class="st3" points="197.5,218.9 189.2,239.5 245.5,243 246.7,221.9 					"/>
					<polygon class="st3" points="187.8,242.7 183.7,253 199.6,254.4 202.9,244.4 					"/>
					<polygon class="st3" points="207.1,244.9 203.9,254.8 223.2,256.5 224.3,245.8 					"/>
					<polygon class="st3" points="229,246.2 228,256.9 244.1,258.3 244.8,247.4 					"/>
					<polygon class="st3" points="180.9,259.8 197.3,261.3 194.4,270.2 177.2,269 					"/>
					<polygon class="st3" points="175.9,272.3 193,274.3 188.1,289.5 170.1,286.5 					"/>
					<polygon class="st3" points="167.5,293 186.2,295.2 181.3,310.1 161.4,308.1 					"/>
					<polygon class="st3" points="159.4,312.9 179.7,314.7 174.7,330.1 154.6,327.7 					"/>
					<polygon class="st3" points="153.2,333.8 172.4,337 166.7,354.2 148.8,353.1 					"/>
					<polygon class="st3" points="201.8,261.7 221.8,263.4 220.1,278.5 197.5,275 					"/>
					<polygon class="st3" points="227.4,263.9 243.3,265.3 236.5,286.7 224.4,285.2 					"/>
					<polygon class="st3" points="195.5,281.3 219,285.8 216.2,302.2 191.7,293.3 					"/>
					<polygon class="st3" points="190.7,296.6 187.1,307.8 208.2,317.6 213.9,306.3 					"/>
					<polygon class="st3" points="184.6,315.8 179.5,331.7 197.1,339.7 204.4,325.1 					"/>
					<polygon class="st3" points="177.4,338.4 169.9,361.9 190.5,362.4 194.6,344.7 					"/>
					<polygon class="st3" points="224,288.6 220,303.3 230.2,306.3 235.9,290.9 					"/>
					<polygon class="st3" points="218.9,308.7 213.2,320.1 222.2,322.4 227.7,311.3 					"/>
					<polygon class="st3" points="210.4,325.7 202.1,342.2 214.2,345.2 218.5,329.7 					"/>
					<polygon class="st3" points="199.6,347.2 193.9,362.3 212.1,362.4 211.5,349.9 					"/>
					<polygon class="st3" points="254.2,203.2 251.4,236.2 291.3,237.5 292.5,205.2 					"/>
					<polygon class="st3" points="250.4,240.4 250.5,246.9 290.8,248.5 291.1,242.1 					"/>
					<polygon class="st3" points="250.8,250.6 250.4,258.8 267.5,260.2 267.7,251.5 					"/>
					<polygon class="st3" points="272.2,251.6 271.9,260.8 290.3,262.4 290.7,252.5 					"/>
					<polygon class="st3" points="271.6,267.8 270.6,280.2 289.6,280.6 290.1,269.3 					"/>
					<polygon class="st3" points="269.8,288.3 269.5,300.4 284,300.5 289.3,290.2 289.3,289.1 					"/>
					<polygon class="st3" points="281.4,305.5 270.1,327.3 269.6,305.3 					"/>
					<polygon class="st3" points="265.9,324.8 265.8,327.2 250.2,364.8 216.5,363 233.2,312.4 					"/>
					<polygon class="st3" points="246.8,265.6 245.6,276.2 267,277.7 267.3,267.4 					"/>
					<polygon class="st3" points="244.9,280 241.8,292.1 266.7,293.6 266.9,282.5 					"/>
					<polygon class="st3" points="241.7,295.4 236.7,308.1 266,318.8 266.5,298.3 					"/>
					<path class="st3" d="M303.3,242l-1.3,21.8l22.6,1.5c0,0-3-11.4-9.8-17C307.9,242.8,303.3,242,303.3,242"/>
					<polygon class="st3" points="314.5,284.9 300.7,284.1 301.5,270.4 315.2,271.6 					"/>
					<polygon class="st3" points="313.7,299.9 299.8,299.2 300.5,288 314.3,288.7 					"/>
					<polygon class="st3" points="313,314.9 298.9,314.2 299.5,303.1 313.5,303.8 					"/>
					<polygon class="st3" points="312.2,330 298,329.4 298.6,318.1 312.8,318.8 					"/>
					
						<rect x="298.8" y="331.8" transform="matrix(5.241134e-02 -0.9986 0.9986 5.241134e-02 -50.1478 625.3146)" class="st3" width="11.2" height="14.5"/>
					<polygon class="st3" points="293.8,344.1 268.9,342.8 273,331.8 294.4,333 					"/>
					<polygon class="st3" points="294.6,329.6 273.5,329 279.3,317.7 295.2,318.7 					"/>
					
						<rect x="294" y="350.7" transform="matrix(5.241134e-02 -0.9986 0.9986 5.241134e-02 -69.9537 642.2264)" class="st3" width="18.9" height="14.5"/>
					<polygon class="st3" points="292.6,366.9 259.1,365.1 267,346.6 293.6,348 					"/>
					<polygon class="st3" points="295.3,315.7 296.7,289.1 281.5,314.8 					"/>
					<polygon class="st3" points="373.3,301.7 304.4,202.3 311.6,199.7 375.4,291.6 418.4,265.4 457.8,210.5 471,176.3 471.6,149.4 
						479,149.6 478.4,177.7 464.4,214.1 423.6,271 					"/>
					<g class="st5">
						<g>
							<defs>
								<rect id="SVGID_5_" x="147.5" y="-136.9" width="514.5" height="514.5"/>
							</defs>
							<clipPath id="SVGID_6_">
								<use xlink:href="#SVGID_5_"  style="overflow:visible;"/>
							</clipPath>
						</g>
					</g>
					<g class="st5">
						<g>
							<defs>
								<rect id="SVGID_7_" x="211.7" y="-72" width="386.1" height="386.1"/>
							</defs>
							<clipPath id="SVGID_8_">
								<use xlink:href="#SVGID_7_"  style="overflow:visible;"/>
							</clipPath>
						</g>
					</g>
					<g class="st5">
						<g>
							<defs>
								<rect id="SVGID_9_" x="284.2" y="0.5" width="241.1" height="241.1"/>
							</defs>
							<clipPath id="SVGID_10_">
								<use xlink:href="#SVGID_9_"  style="overflow:visible;"/>
							</clipPath>
						</g>
					</g>
				</g>
				<linearGradient id="SVGID_11_" gradientUnits="userSpaceOnUse" x1="-15.3081" y1="82.2047" x2="501.3654" y2="82.2047">
					<stop  offset="0" style="stop-color:#FFFFFF"/>
					<stop  offset="1" style="stop-color:#F8F8F8;stop-opacity:0"/>
				</linearGradient>
				<path class="st6" d="M501.4-27.5H12.1C-3-27.5-15.3-15.2-15.3-0.1v192h516.7V-27.5z"/>
			</g>
			<path class="st7" d="M315.2-19.6c-0.5,0-1,0-1.5,0.1l1.8-2.8l-9.5,5c-0.2,0.1-0.5,0.2-0.7,0.4l-0.5,0.3
				c-5.4,2.8-9.2,8.5-10.2,14.9C290.3-1.5,287,2,287,6.3v5.3c0,4.2,3.2,7.7,7.2,8.2v28.2c-4.1,0.5-7.2,4-7.2,8.2v5.3
				c0,4.2,3.2,7.7,7.2,8.2V117c-4.1,0.5-7.2,4-7.2,8.2v5.3c0,4.2,3.2,7.7,7.2,8.2v36.8h238.1v-195H315.2z"/>
			<g>
				<path class="st8" d="M462.8,36c0-0.3-0.2-0.5-0.5-0.5c-0.3,0-0.5,0.2-0.5,0.5v1.3h-1.3c-0.3,0-0.5,0.2-0.5,0.5
					c0,0.3,0.2,0.5,0.5,0.5h1.3v1.3c0,0.3,0.2,0.5,0.5,0.5c0.3,0,0.5-0.2,0.5-0.5v-1.3h1.3c0.3,0,0.5-0.2,0.5-0.5
					c0-0.3-0.2-0.5-0.5-0.5h-1.3V36z"/>
				<path class="st8" d="M374.5-47.8c0-0.3-0.2-0.5-0.5-0.5c-0.3,0-0.5,0.2-0.5,0.5v1.3h-1.3c-0.3,0-0.5,0.2-0.5,0.5
					s0.2,0.5,0.5,0.5h1.3v1.3c0,0.3,0.2,0.5,0.5,0.5c0.3,0,0.5-0.2,0.5-0.5v-1.3h1.3c0.3,0,0.5-0.2,0.5-0.5s-0.2-0.5-0.5-0.5h-1.3
					V-47.8z"/>
				<path class="st9" d="M449.6,22c0-0.3-0.2-0.5-0.5-0.5c-0.3,0-0.5,0.2-0.5,0.5v1.3h-1.3c-0.3,0-0.5,0.2-0.5,0.5
					c0,0.3,0.2,0.5,0.5,0.5h1.3v1.3c0,0.3,0.2,0.5,0.5,0.5c0.3,0,0.5-0.2,0.5-0.5v-1.3h1.3c0.3,0,0.5-0.2,0.5-0.5
					c0-0.3-0.2-0.5-0.5-0.5h-1.3V22z"/>
				<g>
					<path class="st10" d="M529.1-16.4H315.2c-9.7,0-17.7,8-17.7,17.7v0c0,9.7,8,17.7,17.7,17.7h213.9V-16.4z"/>
					<path class="st11" d="M529.1,10.4c-12-0.5-75-1-75.3-1.4H297.5v211.3h146.7c4.8-2.5,71-6.4,84.9-11.2V10.4z"/>
					<path class="st12" d="M529.1,24H310.2c-4.2,0-7.6,4-7.6,9v187.3h226.4V24z"/>
					<rect x="302.7" y="57.6" class="st11" width="226.4" height="15.3"/>
					<path class="st10" d="M529.1,51.1H295.3c-2.7,0-5,2.2-5,5v5.3c0,2.7,2.2,5,5,5h233.8V51.1z"/>
					<rect x="302.7" y="126.7" class="st11" width="226.4" height="15.3"/>
					<path class="st10" d="M529.1,120.2H295.3c-2.7,0-5,2.2-5,5v5.3c0,2.7,2.2,5,5,5h233.8V120.2z"/>
					<path class="st8" d="M529.1,189.2H295.3c-2.3,0-4.3,24-4.8,31.1h238.6V189.2z"/>
					<path class="st10" d="M529.1,1.3H295.3c-2.7,0-5,2.2-5,5v5.3c0,2.7,2.2,5,5,5h233.8V1.3z"/>
					<path class="st11" d="M529.1-2.5H311.4c-3.5,0-6.4-3.3-6.4-7.2c0-1.5,0.4-3,1.2-4.2c-5.1,2.7-8.7,8.5-8.7,15.2h231.6V-2.5z"/>
					<g>
						<path class="st13" d="M308.9,81.6h21.8c1,0,1.9,0.8,1.9,1.9v34.8c0,1-0.8,1.9-1.9,1.9h-21.8c-1,0-1.9-0.8-1.9-1.9V83.5
							C307.1,82.5,307.9,81.6,308.9,81.6z"/>
						<path class="st14" d="M335.6,81.6h11.1c0.5,0,0.9,0.4,0.9,0.9v36.7c0,0.5-0.4,0.9-0.9,0.9h-11.1c-0.5,0-0.9-0.4-0.9-0.9V82.6
							C334.6,82.1,335,81.6,335.6,81.6z"/>
						<path class="st15" d="M344.9,74.4h12.9c0.6,0,1.1,0.5,1.1,1.1v43.6c0,0.6-0.5,1.1-1.1,1.1h-12.9c-0.6,0-1.1-0.5-1.1-1.1V75.5
							C343.8,74.9,344.3,74.4,344.9,74.4z"/>
						<path class="st16" d="M340.2,102.3h22.4c0.7,0,1.3,0.6,1.3,1.3v15.2c0,0.7-0.6,1.3-1.3,1.3h-22.4c-0.7,0-1.3-0.6-1.3-1.3
							v-15.2C338.9,102.9,339.5,102.3,340.2,102.3z"/>
						<path class="st16" d="M367.6,87.5h11.1c0.5,0,0.9,0.4,0.9,0.9v30.8c0,0.5-0.4,0.9-0.9,0.9h-11.1c-0.5,0-0.9-0.4-0.9-0.9V88.4
							C366.7,87.9,367.1,87.5,367.6,87.5z"/>
						<path class="st17" d="M313.2,90.3h13.3c0.7,0,1.3,0.6,1.3,1.3v7.3c0,0.7-0.6,1.3-1.3,1.3h-13.3c-0.7,0-1.3-0.6-1.3-1.3v-7.3
							C311.9,90.8,312.5,90.3,313.2,90.3z"/>
						<path class="st17" d="M313,102.3h13.7c0.6,0,1.1,0.5,1.1,1.1v1c0,0.6-0.5,1.1-1.1,1.1H313c-0.6,0-1.1-0.5-1.1-1.1v-1
							C311.9,102.8,312.4,102.3,313,102.3z"/>
						<path class="st17" d="M313,108.4h13.7c0.6,0,1.1,0.5,1.1,1.1v1c0,0.6-0.5,1.1-1.1,1.1H313c-0.6,0-1.1-0.5-1.1-1.1v-1
							C311.9,108.8,312.4,108.4,313,108.4z"/>
						<path class="st15" d="M373.2,100.6c1.5,0,2.7,1.4,2.7,3.2c0,1.8-1.2,3.2-2.7,3.2c-1.5,0-2.7-1.4-2.7-3.2
							C370.5,102,371.7,100.6,373.2,100.6z"/>
					</g>
					<g>
						<path class="st13" d="M443.7,81.6h21.8c1,0,1.9,0.8,1.9,1.9v34.8c0,1-0.8,1.9-1.9,1.9h-21.8c-1,0-1.9-0.8-1.9-1.9V83.5
							C441.8,82.5,442.7,81.6,443.7,81.6z"/>
						<path class="st14" d="M529.1,81.6h-58.8c-0.5,0-0.9,0.4-0.9,0.9v36.7c0,0.5,0.4,0.9,0.9,0.9h58.8V81.6z"/>
						<path class="st16" d="M529.1,102.3h-0.5c-0.7,0-54.9,0.6-54.9,1.3v15.2c0,0.7,54.2,1.3,54.9,1.3h0.5V102.3z"/>
						<path class="st17" d="M447.9,90.3h13.3c0.7,0,1.3,0.6,1.3,1.3v7.3c0,0.7-0.6,1.3-1.3,1.3h-13.3c-0.7,0-1.3-0.6-1.3-1.3v-7.3
							C446.7,90.8,447.2,90.3,447.9,90.3z"/>
						<path class="st17" d="M447.7,102.3h13.7c0.6,0,1.1,0.5,1.1,1.1v1c0,0.6-0.5,1.1-1.1,1.1h-13.7c-0.6,0-1.1-0.5-1.1-1.1v-1
							C446.7,102.8,447.2,102.3,447.7,102.3z"/>
						<path class="st17" d="M447.7,108.4h13.7c0.6,0,1.1,0.5,1.1,1.1v1c0,0.6-0.5,1.1-1.1,1.1h-13.7c-0.6,0-1.1-0.5-1.1-1.1v-1
							C446.7,108.8,447.2,108.4,447.7,108.4z"/>
					</g>
					<g>
						<path class="st10" d="M367.3,45.3h5.9c0.4,0,0.8,0.3,0.8,0.8v4.4c0,0.4-0.3,0.7-0.8,0.7h-5.9c-0.4,0-0.8-0.3-0.8-0.7V46
							C366.6,45.6,366.9,45.3,367.3,45.3z"/>
						<path class="st16" d="M376.7,35.7h16.1c0.6,0,1.1,0.5,1.1,1.1V50c0,0.6-0.5,1.1-1.1,1.1h-16.1c-0.6,0-1.1-0.5-1.1-1.1V36.9
							C375.6,36.3,376.1,35.7,376.7,35.7z"/>
						<path class="st15" d="M384.4,40.7h11c0.4,0,0.8,0.3,0.8,0.8v9c0,0.4-0.3,0.8-0.8,0.8h-11c-0.4,0-0.8-0.3-0.8-0.8v-9
							C383.7,41,384,40.7,384.4,40.7z"/>
						<path class="st10" d="M392.1,26.3h9.5c0.4,0,0.8,0.4,0.8,0.8v23.2c0,0.4-0.4,0.8-0.8,0.8h-9.5c-0.4,0-0.8-0.4-0.8-0.8V27.1
							C391.3,26.7,391.6,26.3,392.1,26.3z"/>
					</g>
					<g>
						<path class="st15" d="M332.5,33.9h0.6v-1.2h-0.2c-0.4,0-0.7-0.4-0.7-0.8v0c0-0.5,0.3-0.8,0.7-0.8h0.8v-4.9
							c0-0.5,0.3-0.8,0.7-0.8h0c0.4,0,0.7,0.4,0.7,0.8v4.9h0.8c0.4,0,0.7,0.4,0.7,0.8v0c0,0.5-0.3,0.8-0.7,0.8h-0.2v1.2h0.6
							c0.4,0,0.8,0.4,0.8,0.9v15.4c0,0.5-0.4,0.9-0.8,0.9h-3.7c-0.4,0-0.8-0.4-0.8-0.9V34.8C331.7,34.3,332.1,33.9,332.5,33.9z"/>
						<path class="st15" d="M326.5,35.7h0.6v-1h-0.2c-0.3,0-0.6-0.3-0.6-0.7l0,0c0-0.4,0.3-0.7,0.6-0.7h0.7v-4.4
							c0-0.4,0.3-0.7,0.6-0.7l0,0c0.3,0,0.6,0.3,0.6,0.7v4.4h0.7c0.3,0,0.6,0.3,0.6,0.7l0,0c0,0.4-0.3,0.7-0.6,0.7h-0.2v1h0.6
							c0.4,0,0.7,0.4,0.7,0.8v13.8c0,0.5-0.3,0.8-0.7,0.8h-3.3c-0.4,0-0.7-0.4-0.7-0.8V36.6C325.8,36.1,326.1,35.7,326.5,35.7z"/>
						<path class="st10" d="M316.1,34.9h9.2c0.4,0,0.8,0.4,0.8,0.8v14.7c0,0.4-0.4,0.8-0.8,0.8h-9.2c-0.4,0-0.8-0.4-0.8-0.8V35.6
							C315.3,35.2,315.7,34.9,316.1,34.9z"/>
						<path class="st18" d="M317.9,38.5h5.6c0.3,0,0.5,0.2,0.5,0.5v3.1c0,0.3-0.2,0.5-0.5,0.5h-5.6c-0.3,0-0.5-0.2-0.5-0.5V39
							C317.4,38.7,317.6,38.5,317.9,38.5z"/>
						<path class="st18" d="M317.8,43.6h5.8c0.2,0,0.4,0.2,0.4,0.4v0.4c0,0.2-0.2,0.4-0.4,0.4h-5.8c-0.2,0-0.4-0.2-0.4-0.4V44
							C317.4,43.8,317.6,43.6,317.8,43.6z"/>
						<path class="st18" d="M317.8,46.2h5.8c0.2,0,0.4,0.2,0.4,0.4V47c0,0.2-0.2,0.4-0.4,0.4h-5.8c-0.2,0-0.4-0.2-0.4-0.4v-0.4
							C317.4,46.4,317.6,46.2,317.8,46.2z"/>
						<path class="st16" d="M327.5,41.1h5.7c0.3,0,0.5,0.2,0.5,0.5v9c0,0.3-0.2,0.5-0.5,0.5h-5.7c-0.3,0-0.5-0.2-0.5-0.5v-9
							C327,41.4,327.3,41.1,327.5,41.1z"/>
						<path class="st16" d="M339.5,26.7h19.2c0.9,0,1.6,0.7,1.6,1.6v21.2c0,0.9-0.7,1.6-1.6,1.6h-19.2c-0.9,0-1.6-0.7-1.6-1.6V28.3
							C337.9,27.4,338.6,26.7,339.5,26.7z"/>
						<path class="st16" d="M440.7,26.7H460c0.9,0,1.6,0.7,1.6,1.6v21.2c0,0.9-0.7,1.6-1.6,1.6h-19.2c-0.9,0-1.6-0.7-1.6-1.6V28.3
							C439.1,27.4,439.8,26.7,440.7,26.7z"/>
						<path class="st10" d="M335.9,41.1h5.7c0.3,0,0.5,0.2,0.5,0.5v9c0,0.3-0.2,0.5-0.5,0.5h-5.7c-0.3,0-0.5-0.2-0.5-0.5v-9
							C335.4,41.4,335.6,41.1,335.9,41.1z"/>
					</g>
					<g>
						<path class="st15" d="M425.4,35.7h-16.1c-0.6,0-1.1,0.5-1.1,1.1V50c0,0.6,0.5,1.1,1.1,1.1h2.5c3.6-4.5,8.8-7.7,14.7-8.5v-5.8
							C426.5,36.3,426,35.7,425.4,35.7z"/>
						<path class="st16" d="M417.7,40.7h-11c-0.4,0-0.8,0.3-0.8,0.8v9c0,0.4,0.3,0.8,0.8,0.8h5.1c1.8-2.3,4.1-4.3,6.6-5.7v-4
							C418.5,41,418.1,40.7,417.7,40.7z"/>
						<path class="st19" d="M420.7,43.8H417c-0.2,0-0.3,0.1-0.3,0.3v2.4c1.3-0.9,2.8-1.7,4.3-2.4v-0.1
							C421,43.9,420.9,43.8,420.7,43.8z"/>
					</g>
					<g>
						<path class="st13" d="M444.4,29.7h8.9c-2.2,4.2-5.7,7.7-9.9,9.9v-8.9C443.4,30.2,443.8,29.7,444.4,29.7z"/>
						<path class="st17" d="M446.8,34.5h3.2c-1.2,1.3-2.5,2.4-3.9,3.5v-2.8C446.1,34.9,446.4,34.5,446.8,34.5z"/>
					</g>
					<g>
						<path class="st15" d="M437.3,93.1h1v-1.8h-0.3c-0.6,0-1.1-0.6-1.1-1.3v0c0-0.7,0.5-1.3,1.1-1.3h1.1c1.5,0.3,3.1,0.6,4.5,1
							c0,0.1,0,0.2,0,0.3v0c0,0.7-0.5,1.3-1.1,1.3h-0.3v1.8h1c0.7,0,1.2,0.7,1.2,1.5v24.2c0,0.8-0.6,1.5-1.2,1.5h-5.9
							c-0.7,0-1.2-0.7-1.2-1.5V94.5C436,93.7,436.6,93.1,437.3,93.1z"/>
						<path class="st20" d="M427.8,95.9h0.9v-1.6h-0.3c-0.5,0-1-0.5-1-1.2l0,0c0-0.6,0.4-1.2,1-1.2h1.1v-4.1c0.1,0,0.2,0,0.3,0h0
							c0.6,0,1.1,0,1.7,0v4.1h1.1c0.5,0,1,0.5,1,1.2l0,0c0,0.6-0.4,1.2-1,1.2h-0.3v1.6h0.9c0.6,0,1.1,0.6,1.1,1.3v21.7
							c0,0.7-0.5,1.3-1.1,1.3h-5.3c-0.6,0-1.1-0.6-1.1-1.3V97.2C426.7,96.5,427.2,95.9,427.8,95.9z"/>
						<path class="st21" d="M411.5,94.6H426c0.7,0,1.2,0.6,1.2,1.2v23.1c0,0.7-0.6,1.2-1.2,1.2h-14.5c-0.7,0-1.2-0.6-1.2-1.2V95.8
							C410.2,95.1,410.8,94.6,411.5,94.6z"/>
						<path class="st18" d="M414.3,100.3h8.9c0.5,0,0.8,0.4,0.8,0.8v4.9c0,0.5-0.4,0.8-0.8,0.8h-8.9c-0.5,0-0.8-0.4-0.8-0.8v-4.9
							C413.5,100.7,413.9,100.3,414.3,100.3z"/>
						<path class="st18" d="M414.2,108.3h9.1c0.4,0,0.7,0.3,0.7,0.7v0.7c0,0.4-0.3,0.7-0.7,0.7h-9.1c-0.4,0-0.7-0.3-0.7-0.7V109
							C413.5,108.6,413.8,108.3,414.2,108.3z"/>
						<path class="st18" d="M414.2,112.3h9.1c0.4,0,0.7,0.3,0.7,0.7v0.7c0,0.4-0.3,0.7-0.7,0.7h-9.1c-0.4,0-0.7-0.3-0.7-0.7V113
							C413.5,112.6,413.8,112.3,414.2,112.3z"/>
						<path class="st13" d="M429.4,104.4h8.9c0.4,0,0.8,0.3,0.8,0.8v14.2c0,0.4-0.3,0.8-0.8,0.8h-8.9c-0.4,0-0.8-0.3-0.8-0.8v-14.2
							C428.7,104.8,429,104.4,429.4,104.4z"/>
						<path class="st12" d="M442.6,104.4h8.9c0.4,0,0.8,0.3,0.8,0.8v14.2c0,0.4-0.3,0.8-0.8,0.8h-8.9c-0.4,0-0.8-0.3-0.8-0.8v-14.2
							C441.8,104.8,442.2,104.4,442.6,104.4z"/>
					</g>
					<g>
						<path class="st13" d="M405.1,180.7h-8.5c-0.6,0-1.1,0.5-1.1,1.1v6.4c0,0.6,0.5,1.1,1.1,1.1h8.5c0.6,0,1.1-0.5,1.1-1.1v-6.4
							C406.2,181.2,405.7,180.7,405.1,180.7z"/>
						<path class="st13" d="M391.4,166.9h-23.4c-0.9,0-1.6,0.7-1.6,1.6v19.1c0,0.9,0.7,1.6,1.6,1.6h23.4c0.9,0,1.6-0.7,1.6-1.6
							v-19.1C393.1,167.6,392.3,166.9,391.4,166.9z"/>
						<path class="st22" d="M380.2,174h-15.9c-0.6,0-1.1,0.5-1.1,1.1v13c0,0.6,0.5,1.1,1.1,1.1h15.9c0.6,0,1.1-0.5,1.1-1.1v-13
							C381.3,174.5,380.8,174,380.2,174z"/>
						<path class="st16" d="M369.2,153.2h-13.8c-0.6,0-1.2,0.5-1.2,1.2V188c0,0.6,0.5,1.2,1.2,1.2h13.8c0.6,0,1.2-0.5,1.2-1.2v-33.6
							C370.3,153.8,369.8,153.2,369.2,153.2z"/>
					</g>
					<g>
						<path class="st20" d="M455.5,164.2h-0.9v-1.7h0.3c0.6,0,1-0.5,1-1.2v0c0-0.7-0.5-1.2-1-1.2h-1.1v-7.1c0-0.7-0.5-1.2-1-1.2l0,0
							c-0.6,0-1,0.5-1,1.2v7.1h-1.1c-0.6,0-1,0.5-1,1.2v0c0,0.7,0.5,1.2,1,1.2h0.3v1.7h-0.9c-0.6,0-1.1,0.6-1.1,1.3v22.3
							c0,0.7,0.5,1.3,1.1,1.3h4.1c0.8-0.4,1.6-0.9,2.4-1.3v0v-22.3C456.7,164.8,456.2,164.2,455.5,164.2z"/>
						<path class="st20" d="M464.3,166.9h-0.8v-1.5h0.3c0.5,0,0.9-0.5,0.9-1.1l0,0c0-0.6-0.4-1.1-0.9-1.1h-1v-6.3
							c0-0.6-0.4-1.1-0.9-1.1l0,0c-0.5,0-0.9,0.5-0.9,1.1v6.3h-1c-0.5,0-0.9,0.5-0.9,1.1l0,0c0,0.6,0.4,1.1,0.9,1.1h0.3v1.5h-0.8
							c-0.6,0-1,0.5-1,1.2v18.7c2.4-1.6,4.7-3.3,6.9-5.2v-13.5C465.3,167.4,464.9,166.9,464.3,166.9z"/>
						<path class="st18" d="M468.7,178.3h-0.3c-0.4,0-0.6,0.3-0.6,0.6v0.3C468.1,179,468.4,178.6,468.7,178.3z"/>
						<path class="st13" d="M462.8,174.7h-8.2c-0.4,0-0.7,0.3-0.7,0.7v13.1c0,0.3,0.2,0.6,0.5,0.7c3.3-1.7,6.3-3.7,9.1-6v-7.8
							C463.5,175,463.2,174.7,462.8,174.7z"/>
						<path class="st13" d="M445.3,153.8h-27.9c-1.3,0-2.4,1.1-2.4,2.4v30.7c0,1.3,1.1,2.4,2.4,2.4h27.9c1.3,0,2.4-1.1,2.4-2.4
							v-30.7C447.7,154.8,446.6,153.8,445.3,153.8z"/>
						<path class="st21" d="M450.7,174.7h-8.2c-0.4,0-0.7,0.3-0.7,0.7v13.1c0,0.4,0.3,0.7,0.7,0.7h8.2c0.4,0,0.7-0.3,0.7-0.7v-13.1
							C451.4,175,451,174.7,450.7,174.7z"/>
					</g>
					<g>
						<path class="st13" d="M307.2,180.7h8.5c0.6,0,1.1,0.5,1.1,1.1v6.4c0,0.6-0.5,1.1-1.1,1.1h-8.5c-0.6,0-1.1-0.5-1.1-1.1v-6.4
							C306.1,181.2,306.6,180.7,307.2,180.7z"/>
						<path class="st13" d="M320.8,166.9h23.4c0.9,0,1.6,0.7,1.6,1.6v19.1c0,0.9-0.7,1.6-1.6,1.6h-23.4c-0.9,0-1.6-0.7-1.6-1.6
							v-19.1C319.2,167.6,319.9,166.9,320.8,166.9z"/>
						<path class="st22" d="M332,174h15.9c0.6,0,1.1,0.5,1.1,1.1v13c0,0.6-0.5,1.1-1.1,1.1H332c-0.6,0-1.1-0.5-1.1-1.1v-13
							C330.9,174.5,331.4,174,332,174z"/>
						<path class="st19" d="M327.7,178.5h5.3c0.2,0,0.5,0.2,0.5,0.5v9.8c0,0.2-0.2,0.5-0.5,0.5h-5.3c-0.2,0-0.5-0.2-0.5-0.5V179
							C327.2,178.7,327.4,178.5,327.7,178.5z"/>
					</g>
				</g>
				<g>
					<path class="st23" d="M529.1,106.4h-78.6c-2.6,0-4.8,2.2-4.8,4.8V127c0,2.6,2.2,4.8,4.8,4.8h78.6V106.4z"/>
					<path class="st24" d="M433.2,106.4h29.6c2.6,0,4.8,2.2,4.8,4.8V127c0,2.6-2.2,4.8-4.8,4.8h-29.6c-2.6,0-4.8-2.2-4.8-4.8v-15.7
						C428.4,108.6,430.6,106.4,433.2,106.4z"/>
					<path class="st23" d="M434.8,105.3h5c0.6,0,1.2,0.5,1.2,1.2v3.1c0,0.7-0.5,1.2-1.2,1.2h-5c-0.6,0-1.2-0.5-1.2-1.2v-3.1
						C433.6,105.8,434.2,105.3,434.8,105.3z"/>
					<path class="st24" d="M434.8,105.3h4c0.6,0,1.2,0.5,1.2,1.2v3.1c0,0.7-0.5,1.2-1.2,1.2h-4c-0.6,0-1.2-0.5-1.2-1.2v-3.1
						C433.6,105.8,434.2,105.3,434.8,105.3z"/>
					<path class="st25" d="M435.5,107.6L435.5,107.6c0.2,0,0.4,0.2,0.4,0.4v2h1.6v-2c0-0.2,0.2-0.4,0.4-0.4l0,0
						c0.2,0,0.4,0.2,0.4,0.4v2.7v0.5v2.1c0,0.4-0.3,0.7-0.7,0.7h-1.9c-0.4,0-0.7-0.3-0.7-0.7v-2.1v-0.5V108
						C435,107.8,435.2,107.6,435.5,107.6z"/>
					<path class="st23" d="M455.8,105.3h5c0.6,0,1.2,0.5,1.2,1.2v3.1c0,0.7-0.5,1.2-1.2,1.2h-5c-0.6,0-1.2-0.5-1.2-1.2v-3.1
						C454.6,105.8,455.2,105.3,455.8,105.3z"/>
					<path class="st24" d="M455.8,105.3h4c0.6,0,1.2,0.5,1.2,1.2v3.1c0,0.7-0.5,1.2-1.2,1.2h-4c-0.6,0-1.2-0.5-1.2-1.2v-3.1
						C454.6,105.8,455.2,105.3,455.8,105.3z"/>
					<path class="st26" d="M456.5,107.6L456.5,107.6c0.2,0,0.4,0.2,0.4,0.4v2h1.6v-2c0-0.2,0.2-0.4,0.4-0.4l0,0
						c0.2,0,0.4,0.2,0.4,0.4v2.7v0.5v2.1c0,0.4-0.3,0.7-0.7,0.7h-1.9c-0.4,0-0.7-0.3-0.7-0.7v-2.1v-0.5V108
						C456,107.8,456.2,107.6,456.5,107.6z"/>
					<path class="st23" d="M432.2,116h31.7c0.5,0,0.9,0.4,0.9,0.9l0,0c0,0.5-0.4,0.9-0.9,0.9h-31.7c-0.5,0-0.9-0.4-0.9-0.9l0,0
						C431.3,116.4,431.7,116,432.2,116z"/>
					<path class="st23" d="M432.2,119.6h31.7c0.5,0,0.9,0.4,0.9,0.9l0,0c0,0.5-0.4,0.9-0.9,0.9h-31.7c-0.5,0-0.9-0.4-0.9-0.9l0,0
						C431.3,120,431.7,119.6,432.2,119.6z"/>
					<path class="st23" d="M432.2,123.3h31.7c0.5,0,0.9,0.4,0.9,0.9v0c0,0.5-0.4,0.9-0.9,0.9h-31.7c-0.5,0-0.9-0.4-0.9-0.9v0
						C431.3,123.7,431.7,123.3,432.2,123.3z"/>
					<path class="st23" d="M432.2,126.9h31.7c0.5,0,0.9,0.4,0.9,0.9v0c0,0.5-0.4,0.9-0.9,0.9h-31.7c-0.5,0-0.9-0.4-0.9-0.9v0
						C431.3,127.3,431.7,126.9,432.2,126.9z"/>
				</g>
				<g>
					<path class="st23" d="M464.2,131.5h-38.4c-3.4,0-6.2,2.8-6.2,6.2v20.4c0,3.4,2.8,6.2,6.2,6.2h38.4c3.4,0,6.2-2.8,6.2-6.2v-20.4
						C470.4,134.3,467.6,131.5,464.2,131.5z"/>
					<path class="st24" d="M529.1,131.5h-80.9c-3.4,0-6.2,2.8-6.2,6.2v20.4c0,3.4,2.8,6.2,6.2,6.2h80.9V131.5z"/>
					<path class="st23" d="M457.3,129.9h-6.5c-0.8,0-1.5,0.7-1.5,1.5v4c0,0.8,0.7,1.5,1.5,1.5h6.5c0.8,0,1.5-0.7,1.5-1.5v-4
						C458.8,130.6,458.2,129.9,457.3,129.9z"/>
					<path class="st24" d="M457.3,129.9h-5.2c-0.8,0-1.5,0.7-1.5,1.5v4c0,0.8,0.7,1.5,1.5,1.5h5.2c0.8,0,1.5-0.7,1.5-1.5v-4
						C458.8,130.6,458.2,129.9,457.3,129.9z"/>
					<path class="st25" d="M456.4,132.9L456.4,132.9c-0.3,0-0.6,0.3-0.6,0.6v2.6h-2v-2.6c0-0.3-0.3-0.6-0.6-0.6l0,0
						c-0.3,0-0.6,0.3-0.6,0.6v3.5v0.6v2.8c0,0.5,0.4,0.9,0.9,0.9h2.4c0.5,0,0.9-0.4,0.9-0.9v-2.8V137v-3.5
						C457,133.2,456.8,132.9,456.4,132.9z"/>
					<path class="st23" d="M529.1,143.8h-82.3c-0.6,0-1.1,0.5-1.1,1.1c0,0.6,0.5,1.1,1.1,1.1h82.3V143.8z"/>
					<path class="st23" d="M529.1,148.5h-82.3c-0.6,0-1.1,0.5-1.1,1.1c0,0.6,0.5,1.1,1.1,1.1h82.3V148.5z"/>
					<path class="st23" d="M529.1,153.3h-82.3c-0.6,0-1.1,0.5-1.1,1.1c0,0.6,0.5,1.1,1.1,1.1h82.3V153.3z"/>
					<path class="st23" d="M529.1,158h-82.3c-0.6,0-1.1,0.5-1.1,1.1c0,0.6,0.5,1.1,1.1,1.1h82.3V158z"/>
				</g>
				<path class="st27" d="M388.7,149.5c0,0-2.4,8.1-3.6,17.8H438c0.2-6.8-0.4-12.3-2.2-14.7C428,142.5,394.2,143.2,388.7,149.5z"/>
				<path class="st28" d="M394.2,126c0.1,4.3,0,8.2-0.3,10c3.5-1.6,7.5,1.1,7.3,4.1c-0.2,3.8,0.3,6.4-4.6,13.8
					c-2.3,3.5-4.3,4.5-5.8,4.6c2.3,1.8,5,3.3,7,3.7c0,0,0.4,0.2,1-0.6c0.6-0.8,2.8-9.7,4.3-11.8c0.5-0.7,0.1-6.7-0.7-14.7
					c7.9,2.6,21,2.1,26.9,0c0.5-0.9,0.8-1.5,0.8-1.6c-0.2-0.4-4.4-6.7-9.4-13.8c-4.4,6.9-8.2,12.7-8.2,12.7L394.2,126z"/>
				<path class="st8" d="M430.2,130.3c-0.2-0.7-0.3-1.3-0.4-1.8c-0.1-0.7-0.1-1.4-0.1-2.3c-0.6-6.8,0.3-13.1,3.1-20.3
					c4.8-12,11.8-31.9,11.8-31.9c-0.3-0.3-0.6-0.6-0.9-0.9c-0.7-0.8-1.7-1.5-2.8-2.1c-2.1-1.2-4.4-2-7-2.4l0,0c0,0,0,0-0.1,0
					c-5.3-0.9-11.8-0.7-20.4-1.9c-0.5,0-0.9,0.1-1.3,0.1c-6.1,0.1-22.9,21-20.2,31.8c0,0,1.3,5.7,1.9,13.8
					c0.5,8.1,0.9,22.3-0.1,24.3c-0.9,2-11.3,21.8-11.9,23.2c-2.4,5.9,40,8.2,53.9-3.9c-0.7-5.4-1.7-10.8-3-15
					C431.6,137.2,430.8,133.7,430.2,130.3z"/>
				<path class="st8" d="M430.2,130.3c-0.2-0.7-0.3-1.3-0.4-1.8c-0.1-0.7-0.1-1.4-0.1-2.3c-0.6-6.8,0.3-13.1,3.1-20.3
					c4.8-12,11.8-31.9,11.8-31.9c-0.3-0.3-0.6-0.6-0.9-0.9c-0.7-0.8-1.7-1.5-2.8-2.1c-2.1-1.2-4.4-2-7-2.4l0,0c0,0,0,0-0.1,0
					c-1.3-0.2-3-1.2-4.4-1.3c-2.1-0.2-4.1,0.5-6.6,0.3c0,0,14.2,10.8-0.3,38.1c-7,13.2-0.6,21.6,8.1,26.3
					C430.4,131.5,430.3,130.9,430.2,130.3z"/>
				<path class="st29" d="M428.9,49.7l-0.3,4.6c0,0-0.3,9.5-0.3,10.9c0,0.6,0.5,1.3,1.3,1.9c0.9,0.7-3.3,2.7-1.6,3c0,0-7,0-11.6-0.1
					c-2.9,0-4.4,2.8-3.9-3.4c0,0,0.1,0,0.1,0c1-0.4,0.6,0,1.5-0.8c0.1-0.1,0.3-0.2,0.4-0.4c1.6-1.7,1.8-9.4,0.3-11.4
					C413.2,52,428.9,49.7,428.9,49.7z"/>
				<path class="st30" d="M374.6,84.6l-4-0.7c0,0-3,5,2,14.3c0,0,2.1-3,2.3-4.6C375.2,91.9,374.6,84.6,374.6,84.6z"/>
				<path class="st29" d="M406.2,68.6c-11.3,4.4-26.3,12-37.7,17.2c-3.2,1.5-6,2.7-6.7,0.1c-1.4-5.9-2.4-18.4-2.8-26.2
					c-0.1-2,2.1-4,2.6-5.2c0.3-0.6-3.7-2.1-4.3-2c-2.1,0.5-4.8-1.4-5.8,0.1c0.2,0.9,0.8,3.3,0.7,6.3c-0.2,6.6-1.3,17.9,2,35.1
					c0,0.1-0.6-2.3,0.1,0.4c0.6,2.1,3.2,4.1,5.6,4.5c4.3,0.6,30.5-8.1,35.1-10.4c2.7-1.3,5-2.8,7.2-4.2
					C400.4,80,407.6,72.6,406.2,68.6z"/>
				<path class="st8" d="M407.9,68.9l-1.3-0.6c0,0-14.8,5.1-36,15.6c1.2,1.4,4.4,9.7,2,14.3l15-1.7L407.9,68.9z"/>
				<path class="st31" d="M407.9,68.9l-1.3-0.6l0,0l0,0h0l0,0l0,0l0,0l0,0l0,0l0,0l0,0l0,0l0,0l-0.1,0l0,0l0,0l-0.1,0l0,0l-0.1,0
					l-0.1,0l0,0l-0.1,0l-0.1,0l0,0l-0.1,0l-0.1,0l0,0l-0.1,0l0,0l-0.1,0l-0.1,0l0,0l-0.1,0l-0.1,0l0,0l-0.1,0l-0.1,0l0,0l-0.1,0.1
					l-0.1,0l0,0l-0.2,0.1l-0.1,0l-0.1,0l-0.2,0.1l-0.1,0l-0.1,0l-0.2,0.1l-0.1,0l-0.1,0l-0.2,0.1l0,0l-0.2,0.1l-0.2,0.1l0,0
					l-0.2,0.1l-0.2,0.1l0,0l-0.2,0.1l-0.1,0.1l-0.1,0l-0.2,0.1l-0.1,0l-0.1,0l0,0l-0.5,0.2l-0.2,0.1l0,0l-0.2,0.1l-0.3,0.1l0,0
					l-0.3,0.1l-0.2,0.1l0,0l-0.3,0.1l-0.2,0.1l-0.1,0l-0.3,0.1l-0.2,0.1l-0.1,0.1l-0.3,0.1l-0.1,0l-0.2,0.1l-0.3,0.1l-0.2,0.1
					l-0.1,0l-0.3,0.1l0,0l-0.3,0.1l-0.3,0.1l0,0l-0.3,0.1l-0.3,0.1l-0.1,0l-0.3,0.1l-0.2,0.1l-0.1,0.1l-0.3,0.1
					c-1.2,3.6-3.2,7.7-6.3,11.5c-5.6,6.6-12.3,5.6-15.9,4.4c0.9,3.1,1.3,6.9,0,9.5l25.3-3L407.9,68.9z"/>
				<path class="st30" d="M457.2,109.3l1.3,0.7c0,0-0.1,1.6-4.4,4.4c-4.2,2.9-7.5,4.1-7.5,4.1l-0.1-3.4L457.2,109.3z"/>
				<path class="st32" d="M411.1,67.1c-14.7,14.8,5.3,22.6,14.8,10.8c5.9-7.4,8.6-9.1,8.6-9.1s0.2-0.2,0.6-0.1
					c0.4,0.1,3.7,1.2,4.1,1.4c0.4,0.1,0.4,0.3,0.4,0.3s-18.4,14.3-4.4,31.7c0,0-1.9,10.2,2.2,36.4c2.7,17.3,0.9,21.3-3.7,25.7
					c-4.6,4.4-50.5,1.4-50.5,1.4s0.9-7,1.4-11.5c0.9-8.9,2.1-16.9,4-29.1c1.6-10.5,4.5-24.3,4.5-31.1c0.2-14.8,12.2-23.9,12.9-25
					C406.6,67.8,410.4,66.8,411.1,67.1z"/>
				<path class="st29" d="M445.3,74.9c1.7,3,17.5,46.6,15.9,55.3c-1.6,8.7-13.9,24.6-20.2,28.9c0,0-0.7,0.4-1.1-0.6
					c-0.4-1-1.8-0.8-3.3-1.7c6.6-11.5,10.1-15.5,14.2-28.2c2.3-7-12.5-25.6-15.1-30C429.4,88.1,441.4,68.3,445.3,74.9z"/>
				<path class="st29" d="M428.2,160.3c-0.1-2.6,2-4.9,4.7-4.9l4.6-0.1c2.6-0.1,4.9,2,4.9,4.7v0c0,0.1,0,0.2,0,0.4H428.2z"/>
				<g>
					<rect x="373.9" y="118.7" class="st23" width="2.7" height="10.8"/>
					<path class="st23" d="M366.8,112.5h16.9c0.9,0,1.6,0.7,1.6,1.6v5.2c0,0.9-0.7,1.6-1.6,1.6h-16.9c-0.9,0-1.6-0.7-1.6-1.6v-5.2
						C365.1,113.3,365.9,112.5,366.8,112.5z"/>
					<path class="st8" d="M366.8,113.8c-0.2,0-0.4,0.2-0.4,0.4v5.2c0,0.2,0.2,0.4,0.4,0.4h16.9c0.2,0,0.4-0.2,0.4-0.4v-5.2
						c0-0.2-0.2-0.4-0.4-0.4H366.8z"/>
					<path class="st24" d="M373.4,127.8h20.7c2,0,3.6,1.6,3.6,3.6v28.4c0,2-1.6,3.6-3.6,3.6h-20.7c-2,0-3.6-1.6-3.6-3.6v-28.4
						C369.9,129.4,371.5,127.8,373.4,127.8z"/>
					<path class="st25" d="M407,145.7v18.2c0,2.5-2.1,4.6-4.6,4.6h-37.4c-2.5,0-4.6-2.1-4.6-4.6v-18.2c0-1.1,0.9-2,2-2H405
						C406.1,143.7,407,144.6,407,145.7z"/>
					<path class="st25" d="M402,140.6v18.2c0,2.5-2.1,4.6-4.6,4.6h-27.3c-2.5,0-4.6-2.1-4.6-4.6v-18.2c0-1.1,0.9-2,2-2H400
						C401.1,138.5,402,139.5,402,140.6z"/>
					<path class="st24" d="M365.5,156.4v-15.8c0-1.1,0.9-2,2-2h30.1v13.3c0,2.5-2.1,4.6-4.6,4.6h-27.3
						C365.7,156.4,365.6,156.4,365.5,156.4z"/>
					<path class="st25" d="M393.1,127.8v1.8v2.1c0,2-1.6,3.6-3.6,3.6h-19.7v3.2h27.9v-7.2c0-2-1.6-3.6-3.6-3.6H393.1L393.1,127.8z"
						/>
					<path class="st23" d="M364,143.7v12.8c0,1.1-0.9,2-2,2h-1.4v1.7h5.3c-0.2-0.5-0.2-1-0.2-1.5v-2.4v-12.7H364z"/>
					<path class="st23" d="M403.6,143.7v12.8c0,1.1,0.9,2,2,2h1.4v1.7h-5.3c0.2-0.5,0.2-1,0.2-1.5v-2.4v-12.7H403.6z"/>
					<path class="st25" d="M368.1,140.5h15.4c0.5,0,0.9,0.4,0.9,0.9l0,0c0,0.5-0.4,0.9-0.9,0.9h-15.4c-0.5,0-0.9-0.4-0.9-0.9l0,0
						C367.2,141,367.6,140.5,368.1,140.5z"/>
					<path class="st8" d="M387.6,140.5h-0.8c-0.5,0-0.9,0.4-0.9,0.9l0,0c0,0.5,0.4,0.9,0.9,0.9h0.8c0.5,0,0.9-0.4,0.9-0.9l0,0
						C388.5,141,388.1,140.5,387.6,140.5z"/>
					<path class="st8" d="M368.5,145.1h6.3c0.6,0,1.1,0.5,1.1,1.1v6.8c0,0.6-0.5,1.1-1.1,1.1h-6.3c-0.6,0-1.1-0.5-1.1-1.1v-6.8
						C367.4,145.6,367.9,145.1,368.5,145.1z"/>
					<path class="st25" d="M378,145.1h16.4c0.3,0,0.5,0.2,0.5,0.5l0,0c0,0.3-0.2,0.5-0.5,0.5H378c-0.3,0-0.5-0.2-0.5-0.5l0,0
						C377.5,145.3,377.7,145.1,378,145.1z"/>
					<path class="st25" d="M378,147.8h16.4c0.3,0,0.5,0.2,0.5,0.5l0,0c0,0.3-0.2,0.5-0.5,0.5H378c-0.3,0-0.5-0.2-0.5-0.5l0,0
						C377.5,148,377.7,147.8,378,147.8z"/>
					<path class="st25" d="M378,150.5h16.4c0.3,0,0.5,0.2,0.5,0.5l0,0c0,0.3-0.2,0.5-0.5,0.5H378c-0.3,0-0.5-0.2-0.5-0.5l0,0
						C377.5,150.7,377.7,150.5,378,150.5z"/>
					<path class="st25" d="M378,153.2h16.4c0.3,0,0.5,0.2,0.5,0.5v0c0,0.3-0.2,0.5-0.5,0.5H378c-0.3,0-0.5-0.2-0.5-0.5v0
						C377.5,153.4,377.7,153.2,378,153.2z"/>
				</g>
				<g>
					<path class="st33" d="M529.1,173H273.4c-1.8,0-3.2,1.4-3.2,3.2v44.1h258.9V173z"/>
					<rect x="428.8" y="178.7" class="st34" width="8.8" height="41.6"/>
					<rect x="374.2" y="178.7" class="st34" width="50.2" height="41.6"/>
					<rect x="317.8" y="178.7" class="st34" width="6.9" height="41.6"/>
					<rect x="337" y="178.7" class="st34" width="5.2" height="41.6"/>
					<rect x="351.4" y="178.7" class="st34" width="8.8" height="41.6"/>
					<path class="st23" d="M529.1,173H273.4c-1.8,0-3.2,1.4-3.2,3.2v6.8h258.9V173z"/>
					<path class="st35" d="M529.1,160.3H240.2c-1.5,0-2.8,1.3-2.8,2.8v13.3c0,1.5,1.3,2.8,2.8,2.8h288.9V160.3z"/>
					<path class="st36" d="M406.6,160.3v18.9h7.3v-18.9H406.6L406.6,160.3z M256,160.3v18.9h12.4v-18.9H256L256,160.3z M274.6,160.3
						v18.9h98.5v-18.9H274.6L274.6,160.3z M381.3,179.2h12.4v-18.9h-12.4V179.2z"/>
					<path class="st8" d="M529.1,164.4H425.4c-0.1,0-0.2,0-0.3,0.1l-5.9,3.4H237.4v1h181.9v0c0.1,0,0.2,0,0.2-0.1l5.9-3.4h103.5
						V164.4z"/>
				</g>
				<path class="st8" d="M441.3,72.8l1.8-0.1c0,0,2.2,1.5,2.8,3c0.6,1.6,8.5,21,12.5,34.3c0,0-9.7,1.2-11.9,8.5
					c0,0-12.6-17-13.3-19.8C432.6,95.9,430.5,83.1,441.3,72.8z"/>
				<path class="st31" d="M441.3,72.8l1.8-0.1c0,0,0.9,0.6,1.8,1.5c-12.7,4.5-5.1,26.6-0.5,33.5c2.1,3.1,4.6,4.6,6.7,5.2
					c-1.9,1.3-3.7,3.1-4.5,5.8c0,0-12.6-17-13.3-19.8C432.6,95.9,430.5,83.1,441.3,72.8z"/>
				<path class="st25" d="M374.1,82.2l-0.9,0.4c1.8,2.4,5.4,8.5,2.8,15.2l1.1-0.1C379.5,90.9,375.9,84.8,374.1,82.2L374.1,82.2z
					 M375.1,97.9l-1,0.1c2.4-6.2-0.7-12-2.6-14.6l0.9-0.4C374.2,85.8,377.3,91.6,375.1,97.9z"/>
				<path class="st25" d="M457.3,106.1c0.1,0.3,0.2,0.6,0.3,0.9c-2.7,0.3-10.1,1.7-13.2,8.5l-0.6-0.9
					C447.1,107.9,454.3,106.4,457.3,106.1L457.3,106.1z M444.9,116.2l0.6,0.9c3-6.2,9.6-7.8,12.6-8.2c-0.1-0.3-0.2-0.6-0.3-0.9
					C454.7,108.4,448.1,110,444.9,116.2z"/>
				<path class="st8" d="M416.4,70.1c0.2,15.6,21.8-3.6,12.3-3.8C428.7,66.3,426,69.6,416.4,70.1z"/>
				<path class="st8" d="M414.1,65.9c0,0-1.5,3.2,2.3,4.2c0,0-1.4,4.3-4.2,3.6C409.4,73,410.3,65,414.1,65.9z"/>
				<path class="st8" d="M423.8,90.4l-6.3-0.6c-0.4,0-0.8,0.3-0.8,0.7v2c0,0.4,0.3,0.8,0.8,0.8l6.3,0.6c0.4,0,0.8-0.3,0.8-0.7v-2
					C424.5,90.8,424.2,90.4,423.8,90.4z"/>
				<path class="st8" d="M402.7-27c0-0.3,0.2-0.5,0.5-0.5c0.3,0,0.5,0.2,0.5,0.5v1.3h1.3c0.3,0,0.5,0.2,0.5,0.5
					c0,0.3-0.2,0.5-0.5,0.5h-1.3v1.3c0,0.3-0.2,0.5-0.5,0.5c-0.3,0-0.5-0.2-0.5-0.5v-1.3h-1.3c-0.3,0-0.5-0.2-0.5-0.5
					c0-0.3,0.2-0.5,0.5-0.5h1.3V-27z"/>
				<path class="st8" d="M380.2,70.5c0-0.3,0.2-0.5,0.5-0.5c0.3,0,0.5,0.2,0.5,0.5v1.3h1.3c0.3,0,0.5,0.2,0.5,0.5
					c0,0.3-0.2,0.5-0.5,0.5h-1.3v1.3c0,0.3-0.2,0.5-0.5,0.5c-0.3,0-0.5-0.2-0.5-0.5v-1.3h-1.3c-0.3,0-0.5-0.2-0.5-0.5
					c0-0.3,0.2-0.5,0.5-0.5h1.3V70.5z"/>
				<path class="st9" d="M381,34.5c0-0.3,0.2-0.5,0.5-0.5c0.3,0,0.5,0.2,0.5,0.5v1.3h1.3c0.3,0,0.5,0.2,0.5,0.5
					c0,0.3-0.2,0.5-0.5,0.5h-1.3v1.3c0,0.3-0.2,0.5-0.5,0.5c-0.3,0-0.5-0.2-0.5-0.5v-1.3h-1.3c-0.3,0-0.5-0.2-0.5-0.5
					c0-0.3,0.2-0.5,0.5-0.5h1.3V34.5z"/>
				<path class="st9" d="M359.5,107.4c0-0.3,0.2-0.5,0.5-0.5c0.3,0,0.5,0.2,0.5,0.5v1.3h1.3c0.3,0,0.5,0.2,0.5,0.5
					c0,0.3-0.2,0.5-0.5,0.5h-1.3v1.3c0,0.3-0.2,0.5-0.5,0.5c-0.3,0-0.5-0.2-0.5-0.5v-1.3h-1.3c-0.3,0-0.5-0.2-0.5-0.5
					c0-0.3,0.2-0.5,0.5-0.5h1.3V107.4z"/>
				<path class="st29" d="M354.3,62c0-3.9-1.7-5.5-2.5-7.1c-0.6-1.2-1-5.7-1-6.8c0-1,0.9-9,2.6-4.4c0,0,0-2.2,0.7-3.5
					c0.7-1.3,1.7,1.5,1.7,1.5s0.1-2.9,1.5-2.8c1.3,0,0.9,4.6,1.2,3.3c0.2-1.3,0.6-3.3,2-3.1c0.1,0,0.2,0.1,0.2,0.1
					c0.3,0.2,0.5,9.5,0.5,10.8c1.5-2.1,2.7-2.4,3.5-2.7c0.6-0.2,1.3,0,1.4,0.4c0.1,0.3-1.4,2.1-1.5,2.7c-0.9,4.4-3.9,5.1-5.5,8.2
					c0.1,0.6-0.4,2.2-0.2,2.9C356.2,61.9,356.2,61.6,354.3,62z"/>
				<g>
					<path class="st16" d="M448.6,35.6h16.1c0.6,0,1.1,0.5,1.1,1.1v13.1c0,0.6-0.5,1.1-1.1,1.1h-16.1c-0.6,0-1.1-0.5-1.1-1.1V36.8
						C447.5,36.1,448,35.6,448.6,35.6z"/>
					<path class="st15" d="M456.3,40.5h11c0.4,0,0.8,0.3,0.8,0.8v9c0,0.4-0.3,0.8-0.8,0.8h-11c-0.4,0-0.8-0.3-0.8-0.8v-9
						C455.6,40.9,455.9,40.5,456.3,40.5z"/>
				</g>
				<path class="st37" d="M464.7,45.2h5.9c0.4,0,0.8,0.3,0.8,0.8v4.4c0,0.4-0.3,0.7-0.8,0.7h-5.9c-0.4,0-0.8-0.3-0.8-0.7V46
					C463.9,45.6,464.3,45.2,464.7,45.2z"/>
				<g>
					<g>
						<path class="st38" d="M452.9,22.5c1.5,5.3,1.8,11.6-0.2,18.4c-0.4,1.2-6.2,18.6-21.6,16.7c1.9-10,3.6-17.2,3.6-17.2l-16-9.3
							l0.6-13.5c11.4,15,10-3.1,15.8-6C440.1,9,452.9,22.5,452.9,22.5z"/>
						<path class="st38" d="M408.1,43c4.2-7.3,27.4-0.8,27.4-0.8l4.8-3.4c0,0,8.6,2.1,5.5,13.5c-3.4,3.4-8.2,6.1-14.8,5.3
							C417.3,55.9,409.9,45.8,408.1,43z"/>
						<path class="st29" d="M443,40c2.7,0.4,4.5,2.9,4.2,5.5c-0.4,2.7-2.9,4.5-5.5,4.2c-2.7-0.4-4.5-2.9-4.2-5.5
							C437.9,41.5,440.4,39.6,443,40z"/>
						<path class="st29" d="M428.8,13L428.8,13c9.1,1.3,15.6,9.8,14.3,18.9L440.9,47c-1.3,9.1-9.8,15.6-18.9,14.3h0
							c-9.1-1.3-15.5-9.8-14.3-18.9l2.1-15.1C411.1,18.1,419.6,11.7,428.8,13z"/>
						<path class="st8" d="M424.7,50c-0.3,2.4-2.6,4.1-5,3.7c-2.4-0.3-4.1-2.6-3.7-5l0,0c0.1-0.4,0.4-0.7,0.9-0.6l7.2,1
							C424.5,49.2,424.8,49.6,424.7,50L424.7,50z"/>
						<path class="st38" d="M444,40.2l-3.4-2c0,0-2.5,4.1,0.6,6l0.3-2.1C441.7,41.2,442.4,40,444,40.2z"/>
						<path class="st39" d="M419.3,17.6c0,0,0,12.7,23.7,22.4l9.9-17.5c0,0-8.3-11.4-16.1-13.4c-6.1-1.6-12-0.8-15.3,0.2
							c-2.9,0.9-7,3.6-9.3,8.2c-2.9,5.7-2.7,12.2-2.7,12.2S415.1,28.1,419.3,17.6z"/>
						<path class="st38" d="M419.3,17.6c0,0,0,12.7,23.7,22.4l5.3-8.6C442.6,33.7,430.1,31.7,419.3,17.6z"/>
						<g>
							<path class="st23" d="M426.9,41c0,0.3-0.4,0.6-0.7,0.5c-0.3,0-0.6-0.4-0.5-0.7c0.1-0.8,0.5-1.5,1.2-2
								c0.6-0.5,1.4-0.7,2.2-0.6c0.8,0.1,1.5,0.5,2,1.2c0.5,0.6,0.7,1.4,0.6,2.2c0,0.3-0.4,0.6-0.7,0.5c-0.3,0-0.6-0.4-0.5-0.7
								c0.1-0.5-0.1-0.9-0.3-1.3c-0.3-0.4-0.7-0.6-1.2-0.7c-0.5-0.1-0.9,0.1-1.3,0.3C427.2,40.1,426.9,40.5,426.9,41z"/>
							<path class="st23" d="M414.1,38.8c0,0.3-0.4,0.6-0.7,0.5c-0.3,0-0.6-0.4-0.5-0.7c0.1-0.8,0.5-1.5,1.2-2
								c0.6-0.5,1.4-0.7,2.2-0.6c0.8,0.1,1.5,0.5,2,1.2c0.5,0.6,0.7,1.4,0.6,2.2c0,0.3-0.4,0.6-0.7,0.5c-0.3,0-0.6-0.4-0.5-0.7
								c0.1-0.5-0.1-0.9-0.3-1.3c-0.3-0.4-0.7-0.6-1.2-0.7c-0.5-0.1-0.9,0.1-1.3,0.3C414.4,37.9,414.1,38.3,414.1,38.8z"/>
						</g>
					</g>
					<g>
						<path class="st40" d="M419,44.2c-2.7-0.1-5.6,0.2-7.6,2.1c-0.6,0.6-0.6,1.7,0,2.3c0.7,0.6,1.6,0.6,2.3,0
							c0.1-0.1,0.2-0.2,0.3-0.3c0.2-0.2-0.3,0.2,0,0c0.2-0.1,0.4-0.3,0.7-0.4c0,0,0.1,0,0.1-0.1c0.1-0.1,0.1,0-0.1,0.1
							c0,0,0.3-0.1,0.4-0.1c0.2-0.1,0.5-0.1,0.7-0.2c0.1,0,0.3-0.1,0.4-0.1c0.1,0,0.5-0.2,0.1,0c0.3-0.1,0.6-0.1,0.9-0.1
							c0.6,0,1.2,0,1.8,0c0.9,0,1.7-0.8,1.6-1.6C420.6,44.9,419.9,44.2,419,44.2L419,44.2z"/>
					</g>
					<g>
						<path class="st40" d="M423.5,48.1c0.1,0,0.3,0,0.4,0C423.7,48.1,423.6,48.1,423.5,48.1c0.5,0,1,0.2,1.4,0.4
							c-0.1-0.1-0.3-0.1-0.4-0.2c0.4,0.2,0.8,0.4,1.1,0.7c-0.1-0.1-0.2-0.2-0.3-0.3c0.4,0.3,0.7,0.6,1,1c-0.1-0.1-0.2-0.2-0.3-0.3
							c0.3,0.4,0.6,0.9,0.8,1.4c-0.1-0.1-0.1-0.3-0.2-0.4c0.1,0.2,0.2,0.5,0.3,0.7c0.3,0.8,1.1,1.4,2,1.1c0.8-0.3,1.4-1.1,1.1-2
							c-0.5-1.4-1.2-2.8-2.4-3.8c-0.3-0.2-0.6-0.5-1-0.7c-0.3-0.2-0.7-0.4-1.1-0.5c-0.7-0.3-1.5-0.5-2.3-0.5c-0.9,0-1.7,0.8-1.6,1.6
							C421.9,47.4,422.6,48.1,423.5,48.1L423.5,48.1z"/>
					</g>
					<g>
						<path class="st39" d="M420.1,55.5c0.6,0.8,0.7,1.8,0.7,2.8c0,1.3,0.1,2.5,0.1,3.8c0,0.2,0,0.4-0.2,0.4c-0.1,0-0.1,0-0.2,0
							c-2.1-0.2-4.1-1-5.7-2.3c-0.1-0.1-0.2-0.2-0.3-0.3c0-0.1,0-0.2,0.1-0.3c0.7-1.7,1.5-4,3.3-4.7C418.6,54.7,419.8,55,420.1,55.5
							z"/>
					</g>
				</g>
			</g>
		</g>
	</g>
</g>
</svg>
