<?xml version="1.0" encoding="utf-8"?>
<!-- Generator: Adobe Illustrator 24.1.0, SVG Export Plug-In . SVG Version: 6.00 Build 0)  -->
<svg version="1.1" xmlns="http://www.w3.org/2000/svg" xmlns:xlink="http://www.w3.org/1999/xlink" x="0px" y="0px"
	 viewBox="0 0 400 550" style="enable-background:new 0 0 400 550;" xml:space="preserve">
<style type="text/css">
	.st0{display:none;}
	.st1{display:inline;}
	.st2{fill:#EEF2F2;}
	.st3{fill:#FED459;}
	.st4{fill:#00C4A0;}
	.st5{fill:#E5322A;}
	.st6{fill:#5A7A8B;}
	.st7{fill:#00A2DD;}
	.st8{fill:#FDD459;}
	.st9{fill:#ED3A2E;}
	.st10{fill:#FFFFFF;}
	.st11{font-family:'Montserrat-Bold';}
	.st12{font-size:67.3364px;}
	.st13{display:inline;fill:#EEF2F2;}
	.st14{fill:#FEBB00;}
	.st15{fill:#EF8045;}
	.st16{fill:#FEDB48;}
	.st17{fill:#01A6EB;}
	.st18{fill:#02A6EB;}
	.st19{fill:#FEBE8A;}
	.st20{fill:#FED0AE;}
	.st21{fill:#EC2A42;}
	.st22{fill:#395A61;stroke:#395A61;stroke-miterlimit:10;}
	.st23{fill:#FFC107;}
	.st24{fill:#FFA000;}
	.st25{fill:#455A64;}
	.st26{fill:#F44336;}
	.st27{fill:#FAFAFA;}
	.st28{fill:#666666;}
	.st29{fill:#F2F2F2;}
	.st30{fill:#62C9CC;}
	.st31{fill:#EF9D3C;}
	.st32{fill:#F7D04A;}
	.st33{opacity:0.2;}
	.st34{fill:#EB6836;}
	.st35{fill:#F3B41B;}
	.st36{fill:#FFD15C;}
	.st37{fill:#415A6B;}
	.st38{fill:#8AD7F8;}
	.st39{fill:#F05540;}
	.st40{fill:#E8EAE9;}
	.st41{fill:#F3705A;}
	.st42{fill:#F3F3F3;}
	.st43{fill:#CED6E0;}
	.st44{fill:#55C0EB;}
	.st45{fill:#8CC63F;}
	.st46{fill:#69952F;}
	.st47{fill:#AE583E;}
	.st48{fill:#7C3F2C;}
	.st49{fill:#1ED688;}
	.st50{fill:#1AB975;}
	.st51{fill:#C0694E;}
	.st52{fill:#C42D2D;}
	.st53{fill:#F44545;}
	.st54{fill:#FFA90B;}
	.st55{fill:#FFB52D;}
	.st56{fill:#F29500;}
	.st57{fill:#D4D4D4;}
	.st58{fill:#5C799F;}
	.st59{fill:#F7F7F7;}
	.st60{fill:#F4AF9D;}
	.st61{fill:#AC2620;}
	.st62{fill:#F9C2AF;}
	.st63{fill:#EA9E8F;}
	.st64{fill:#293544;}
	.st65{fill:#9E4900;}
	.st66{fill:#6D3406;}
	.st67{fill:#E06E86;}
	.st68{fill:#29ABE2;}
	.st69{fill:#35B5FF;}
	.st70{fill:#F9CCAB;}
	.st71{fill:#FF63BE;}
	.st72{fill:#FFCC38;}
	.st73{fill:#E34073;}
	.st74{clip-path:url(#SVGID_2_);}
	.st75{fill:#EDE6DC;}
	.st76{clip-path:url(#SVGID_4_);}
	.st77{fill:#404040;}
	.st78{fill:#D6362C;}
</style>
<g id="Capa_1" class="st0">
	<g class="st1">
		<circle class="st2" cx="200.2" cy="199.3" r="192.8"/>
		<g>
			<path class="st3" d="M316.8,280.1c-2.7,1.2-4.8,3.3-8.3,3.2c-43.7-0.3-87.4-0.3-131.1-0.4c-2.9-1.9-3.7-4.8-3.7-8.1
				c-0.2-10.9-0.4-21.7,0.1-32.6c0.3-7.5,3-10.4,10.5-10.5c37-0.4,74-0.3,110.9-0.1c3,0,5.6,0.9,7.7,3c5.6,12.7,7.8,26.6,13.9,39.1
				C316.8,276,316.8,278,316.8,280.1z"/>
			<path class="st3" d="M167.9,283c-25.3,0.1-50.6,0.1-75.9,0.4c-3.5,0-5.6-1.9-8.3-3.2c0-2.1,0-4.1,0-6.2
				c3.4-4.7,3.2-10.8,6.2-15.6c2.6-3.1,6.2-3.3,9.9-3.3c19.6-0.1,39.1-0.2,58.7,0.1c9.8,0.2,12.3,2.7,12.4,12.5
				C170.9,272.8,172.4,278.6,167.9,283z"/>
			<path class="st4" d="M287.1,184.6c-1.6-5.1-4.4-7.7-10.1-7.4c-4.5,0.3-9.1,0.2-13.6,0.1c-1.5,1.8-3,3.5-4.8,5.3l-21.3,20.5
				l-25-26c-11.8,0.1-23.7,0.3-35.5,0.4c-2.9,2.4-3.2,5.7-3.3,9.1c-0.1,10.1-0.3,20.2,0,30.2c0.3,9.3,2.8,11.9,12.2,12
				c35.1,0.3,70.3,0.2,105.4,0c3.3,0,6.8,0.1,9-3.3C295.9,212.1,291.4,198.4,287.1,184.6z"/>
			<g>
				<path class="st5" d="M203.6,121.1c19.1-18.4,43.5-19.2,60.5-1.5c6.1,6.4,9.8,13.6,11.2,21.1c3.4-8.2,5.6-16,5.6-22.5
					c0-25.2-20.5-45.8-45.8-45.8c-25.2,0-45.8,20.5-45.8,45.8c0,4.4,0.9,9.3,2.4,14.4L203.6,121.1z"/>
				<path class="st5" d="M250.9,171.2c13.1-12.6,13.9-28.8,2.2-41c-11.8-12.2-28-12-41.1,0.6l-14.3,13.8l38.9,40.4L250.9,171.2z"/>
			</g>
			<path class="st6" d="M176.9,177.6c0.1,13.4,0.4,26.9,0.1,40.3c-0.2,6.1,1.8,7.9,7.9,7.9c38.5-0.2,77-0.1,115.5,0
				c1.3,2.9,2.8,5.7,2.6,9c-38.8,0.1-77.5,0.4-116.3,0.1c-7.4-0.1-9.9,1.7-9.5,9.3c0.7,12.9,0.2,25.8,0.2,38.8c-3.2,0-6.3,0-9.5,0
				c0-5.4-0.4-10.9,0.2-16.2c0.8-7.2-2.3-8.5-8.8-8.4c-23.1,0.3-46.3,0-69.4-0.1c-0.1-3.4,1-6.4,2.9-9.2c2.9-3.3,6.7-3.4,10.7-3.4
				c16.8-0.1,33.6,0.1,50.5-0.1c9.1-0.1,10.3-1.2,10.3-10.4c0.1-21.8,1.6-20-19.3-20.1c-10.1,0-20.2,0.1-30.3-0.1
				c-3.5-0.1-7.5,0.4-9.2-4c-0.1-3.6,1.2-6.7,2.9-9.8c3.5-2,7.3-2.2,11.2-2.2c11.3,0,22.6,0.1,33.9,0c9.9-0.1,10.5-0.8,10.9-10.4
				c0.2-4.1-0.3-8.4,3.8-11.1C171,176.5,173.9,176.9,176.9,177.6z"/>
			<path class="st7" d="M105.4,211c18.1,0.2,36.1,0.6,54.2,0.4c6.2-0.1,8.9,1.6,8.5,8.2c-0.5,7.5-0.4,15,0,22.5
				c0.3,5.4-1.8,7.1-7.2,7.1c-22.7-0.2-45.4-0.1-68.2,0C96.4,236.2,100.5,223.5,105.4,211z"/>
			<path class="st8" d="M168,177.5c0,6.4-0.2,12.9-0.1,19.3c0.1,3.6-1.4,5.1-5,5.1c-18.2-0.4-36.5,0.8-54.7-0.7
				c6.5-23.9,6.5-23.9,31.1-23.9C148.9,177.3,158.5,177.4,168,177.5z"/>
		</g>
	</g>
	<g class="st1">
		<circle class="st9" cx="200.2" cy="490.3" r="50.1"/>
		<text transform="matrix(1 0 0 1 187.7975 516.1873)" class="st10 st11 st12">1</text>
	</g>
</g>
<g id="Capa_2" class="st0">
	<g class="st1">
		<circle class="st9" cx="200.2" cy="490.3" r="50.1"/>
		<text transform="matrix(1 0 0 1 180.1361 516.1873)" class="st10 st11 st12">2</text>
	</g>
	<circle class="st13" cx="200.2" cy="199.3" r="192.8"/>
	<g class="st1">
		<g>
			<path class="st9" d="M261.8,120.9c-2.5-15.9-10.8-28.4-24-37.6c-5.1-3.6-10.6-6.2-16.6-7.8l0,0c0,0,0,0,0,0
				c-1.6-0.6-3.3-0.9-5-1.2c-2.1-0.4-4.2-0.7-6.4-1c-2.6,0-5.2,0-7.8,0c-0.3,0.2-0.6,0.2-1,0.2c-6.2,0.4-12.2,1.9-17.9,4.3
				c-24.3,10.4-38.6,35.8-33.9,61.8c4.1,23.1,17.9,38.2,40.2,45.5c0.9,0.3,1.6,0.7,2.2,1.5c4.1,4.9,8.3,9.8,12.5,14.7
				c1.1,1.3,1.9,1.3,2.9,0.1c3.7-4.3,7.4-8.7,11.1-13.1c0.6-0.7,1.2-1.4,1.8-2.1c0.4-0.5,0.9-0.9,1.6-1.1
				c8.4-2.4,15.9-6.5,22.3-12.5C258.8,158.5,265,141.1,261.8,120.9z M245.2,135.1c-1.3,10.9-6.3,19.8-14.9,26.6
				c-5.5,4.5-11.9,7.1-18.9,8.3c-4.3,0.5-8.7,0.6-13-0.2c-4.9-0.9-9.5-2.7-13.8-5.2c-0.4-0.2-0.8-0.5-1.2-0.5c0,0-0.1-0.1-0.1-0.1
				c-0.5-0.6-1.1-0.9-1.6-1.4c-5.3-4-9.5-8.9-12.3-14.9c-3.4-7.1-4.6-14.6-3.5-22.4c1.5-11.4,6.9-20.4,16.1-27.3
				c2-1.5,4.2-2.5,6.2-3.9c0,0,0.1-0.1,0.1-0.1c0.5,0.2,0.9-0.2,1.4-0.4c7.2-3,14.7-4.1,22.4-2.8c9.9,1.6,18,6.3,24.4,13.9
				C243.6,113.5,246.6,123.7,245.2,135.1z"/>
			<path class="st4" d="M179.9,121.1c4-3.2,7.9-6.4,11.9-9.6c3.5-2.8,7-5.7,10.6-8.6c2.4-2,4-1.9,6.5,0.1c7.3,6,14.7,11.9,22,17.8
				c2.1,1.7,2.2,2.7,0.5,4.7c-0.3,0.4-0.6,0.8-0.9,1.2c-1.4,1.7-2.5,1.8-4.3,0.4c-0.3-0.2-0.6-0.4-0.9-0.6c-0.2,0-0.4-0.1-0.5-0.2
				c-6-4.9-12.1-9.7-18.1-14.6c-0.8-0.6-1.3-0.7-2.1-0.1c-6.2,5.1-12.5,10.2-18.7,15.2c-0.3,0.3-0.7,0.6-1.1,0.9
				c-1.5,1-2.6,0.9-3.8-0.3c-0.7-0.7-1.6-1.2-1.6-2.3C178.2,123.3,178.3,122.7,179.9,121.1z"/>
			<path class="st6" d="M225.2,145.7c1,0.1,1.9-0.1,2.9,0.2c1.2,0.3,1.6,1.1,1.4,2.3c-0.1,1-0.9,1.4-1.8,1.6c-0.3,0.1-0.7,0-1,0
				c-14.2,0-28.5,0-42.7,0c-2.2-0.2-2.8-1.4-1.8-3.5c0.4-0.8,1.1-0.8,1.8-0.8c0.7-0.1,1.4,0,2.1,0c2.7-0.1,5.4-0.1,8.2,0
				c1.5,0,3.1,0,4.6,0c4.5-0.1,9-0.1,13.6,0c3.8-0.1,7.6,0,11.4,0C224.2,145.3,224.8,145.3,225.2,145.7z"/>
			<path class="st3" d="M225.2,145.7c-4.3,0-8.6,0-12.9,0c-0.5-0.7-0.4-1.5-0.5-2.3c-0.5-3.2-3.1-5.6-6.1-5.6
				c-3.3,0-5.9,2.3-6.4,5.6c-0.1,0.8-0.1,1.6-0.5,2.3c-1.5,0-3,0-4.6,0c-0.4-0.4-0.3-0.9-0.3-1.4c0-5.2,0-10.5,0-15.7
				c0-1.5,0.5-2.6,1.6-3.5c2.8-2.4,5.7-4.7,8.6-7c1.1-0.9,2.1-0.7,3.4,0.3c4.9,3.9,9.8,7.9,14.7,11.9c0.7,0.6,1.4,1.3,2.4,1.8
				c0.1-1.4,0-2.7,0.1-4c0-0.6-0.1-1.2,0.3-1.7c0.1,0.1,0.2,0.1,0.3,0.2C225.2,132.9,225.2,139.3,225.2,145.7z"/>
			<path class="st14" d="M224.9,126.3c0,1.8,0,3.5,0,5.3c0,0.3,0.2,0.6-0.1,0.8c-0.3,0.2-0.5-0.1-0.8-0.3c-2.1-1.6-4.1-3.3-6.2-4.9
				c-3.7-3-7.3-6-11-8.9c-0.9-0.7-1.9-0.7-2.8,0c-2.7,2.2-5.4,4.4-8.1,6.5c-1.3,1-1.9,2.3-1.9,4c0.1,5.6,0,11.2,0,16.9
				c-2.8,0-5.5,0-8.3,0c0-5.9,0-11.8,0-17.7c0-0.5,0.2-1-0.2-1.4c6.4-5.2,12.9-10.4,19.3-15.7c0.4-0.4,0.7-0.4,1.2,0
				c6.2,5,12.3,10,18.5,15C224.7,126,224.8,126.2,224.9,126.3z"/>
			<path class="st15" d="M198.8,145.7c-0.1-2.9,0.6-5.6,3.3-7.2c4.3-2.6,9.6,0.3,10,4.9c0.1,0.8,0.3,1.6,0.2,2.4
				C207.8,145.7,203.3,145.7,198.8,145.7z"/>
			<path class="st14" d="M205.5,124.1c2.1,0,4.2,0,6.3,0c1.4,0,2.2,0.7,2.3,1.8c0.1,1.4-0.7,2.2-2.1,2.2c-4.3,0-8.6,0-12.8,0
				c-1.5,0-2.2-0.8-2.1-2.2c0-1.1,0.9-1.8,2.3-1.8C201.3,124.1,203.4,124.1,205.5,124.1z"/>
		</g>
		<g>
			<path class="st2" d="M297,217.8c0-19.5-15.8-36.4-35.4-36.4s-35.4,16.9-35.4,36.4s36.3,48.4,36.3,48.4S297,237.3,297,217.8z"/>
			<g>
				<path class="st3" d="M243.1,218.1c11.3-10.9,25.7-11.3,35.8-0.9c3.6,3.8,5.8,8,6.6,12.5c2-4.8,3.3-9.4,3.3-13.3
					c0-14.9-12.1-27.1-27.1-27.1c-14.9,0-27.1,12.1-27.1,27.1c0,2.6,0.5,5.5,1.4,8.5L243.1,218.1z"/>
				<path class="st3" d="M271.1,247.8c7.8-7.5,8.2-17.1,1.3-24.3c-7-7.2-16.5-7.1-24.3,0.4l-8.5,8.2l23,23.9L271.1,247.8z"/>
			</g>
		</g>
		<g>
			<path class="st2" d="M224.3,257c0-27.6-22.4-51.6-50-51.6s-50,23.9-50,51.6c0,27.6,51.3,68.5,51.3,68.5S224.3,284.6,224.3,257z"
				/>
			<g>
				<path class="st7" d="M147.9,257.5c16-15.4,36.4-16.1,50.7-1.3c5.1,5.3,8.2,11.4,9.3,17.7c2.8-6.8,4.7-13.4,4.7-18.9
					c0-21.1-17.2-38.3-38.3-38.3c-21.1,0-38.3,17.2-38.3,38.3c0,3.7,0.7,7.8,2,12L147.9,257.5z"/>
				<path class="st7" d="M187.5,299.5c11-10.6,11.7-24.1,1.8-34.3c-9.8-10.2-23.4-10.1-34.4,0.5l-12,11.5l32.6,33.8L187.5,299.5z"/>
			</g>
		</g>
		<g>
			<path class="st2" d="M150.9,179.1c0-24.7-20-46.2-44.8-46.2s-44.8,21.4-44.8,46.2s45.9,61.3,45.9,61.3S150.9,203.8,150.9,179.1z"
				/>
			<g>
				<path class="st5" d="M82.5,179.5c14.3-13.8,32.6-14.4,45.3-1.1c4.6,4.8,7.4,10.2,8.4,15.8c2.5-6.1,4.2-11.9,4.2-16.9
					c0-18.9-15.4-34.3-34.3-34.3c-18.9,0-34.3,15.4-34.3,34.3c0,3.3,0.7,6.9,1.8,10.7L82.5,179.5z"/>
				<path class="st5" d="M118,217.1c9.8-9.5,10.4-21.6,1.6-30.7c-8.8-9.1-20.9-9-30.8,0.5l-10.7,10.3l29.1,30.3L118,217.1z"/>
			</g>
		</g>
		<g>
			<path class="st2" d="M339.1,175.7c0-18.9-15.3-35.3-34.3-35.3s-34.3,16.4-34.3,35.3s35.2,46.9,35.2,46.9S339.1,194.6,339.1,175.7
				z"/>
			<g>
				<path class="st4" d="M286.8,176.1c11-10.6,24.9-11,34.7-0.9c3.5,3.6,5.6,7.8,6.4,12.1c1.9-4.7,3.2-9.1,3.2-12.9
					c0-14.5-11.8-26.2-26.2-26.2c-14.5,0-26.2,11.8-26.2,26.2c0,2.5,0.5,5.3,1.4,8.2L286.8,176.1z"/>
				<path class="st4" d="M313.9,204.8c7.5-7.3,8-16.5,1.2-23.5c-6.7-7-16-6.9-23.6,0.4l-8.2,7.9l22.3,23.2L313.9,204.8z"/>
			</g>
		</g>
	</g>
</g>
<g id="Capa_3" class="st0">
	<g class="st1">
		<circle class="st9" cx="200.2" cy="490.3" r="50.1"/>
		<text transform="matrix(1 0 0 1 180.1022 516.1873)" class="st10 st11 st12">3</text>
	</g>
	<circle class="st13" cx="200.2" cy="199.3" r="192.8"/>
	<g class="st1">
		<g>
			<g>
				<path class="st2" d="M150.1,187.5c0-27.6-22.4-51.6-50-51.6s-50,23.9-50,51.6s51.3,68.5,51.3,68.5S150.1,215.2,150.1,187.5z"/>
				<g>
					<path class="st7" d="M73.7,188c16-15.4,36.4-16.1,50.7-1.3c5.1,5.3,8.2,11.4,9.3,17.7c2.8-6.8,4.7-13.4,4.7-18.9
						c0-21.1-17.2-38.3-38.3-38.3c-21.1,0-38.3,17.2-38.3,38.3c0,3.7,0.7,7.8,2,12L73.7,188z"/>
					<path class="st7" d="M113.3,230c11-10.6,11.7-24.1,1.8-34.3c-9.8-10.2-23.4-10.1-34.4,0.5l-12,11.5l32.6,33.8L113.3,230z"/>
				</g>
			</g>
			<g>
				<path class="st2" d="M349.9,187.5c0-27.6-22.4-51.6-50-51.6c-27.6,0-50,23.9-50,51.6s51.3,68.5,51.3,68.5
					S349.9,215.2,349.9,187.5z"/>
				<g>
					<path class="st7" d="M273.5,188c16-15.4,36.4-16.1,50.7-1.3c5.1,5.3,8.2,11.4,9.3,17.7c2.8-6.8,4.7-13.4,4.7-18.9
						c0-21.1-17.2-38.3-38.3-38.3c-21.1,0-38.3,17.2-38.3,38.3c0,3.7,0.7,7.8,2,12L273.5,188z"/>
					<path class="st7" d="M313.2,230c11-10.6,11.7-24.1,1.8-34.3c-9.8-10.2-23.4-10.1-34.4,0.5l-12,11.5l32.6,33.8L313.2,230z"/>
				</g>
			</g>
		</g>
		<path class="st2" d="M200,85.3c-51.3,0-93,41.7-93,93c0,8.6,1.6,18.3,4.8,28.8c0,0,6.4,16,9.6,20.7c14.3,21.2,70,74.5,70,74.5
			l10.8,11.2l11.2-10.8l24.2-23.3c10.1-9.8,0,0,0,0s35.6-41.3,44.8-56.9c9.4-16,10.6-31.6,10.6-44.1C293,127,251.3,85.3,200,85.3z"
			/>
		<g>
			<path class="st5" d="M146.7,183.2c32.3-31.1,73.6-32.5,102.4-2.6c10.4,10.8,16.6,23,18.9,35.7c5.7-13.8,9.4-27,9.4-38.1
				c0-42.7-34.7-77.4-77.4-77.4c-42.7,0-77.4,34.7-77.4,77.4c0,7.5,1.5,15.7,4.1,24.3L146.7,183.2z"/>
			<path class="st5" d="M226.8,268.1c22.2-21.4,23.6-48.8,3.7-69.4c-19.9-20.6-47.3-20.3-69.5,1.1L136.7,223l65.8,68.3L226.8,268.1z
				"/>
		</g>
		<g>
			<path class="st9" d="M315,290.2c-0.2,2.3-1.3,4.2-3.4,5.3c-2.2,1.1-4.3,0.8-6.3-0.5c-0.6-0.4-1.1-1-1.6-1.5
				c-10.5-10.5-21-21.1-31.6-31.6c-1.4-1.4-1.3-2,0.2-3.1c2.2-1.7,4.2-3.8,5.9-6c0.8-1,1.2-0.9,2,0c10.9,11,21.9,21.9,32.8,32.9
				C314.3,286.9,314.9,288.4,315,290.2z"/>
			<path class="st9" d="M289.7,224.3c-0.1,26.9-22.1,48.9-49,48.8c-27,0-49.1-22.3-48.9-49.1c0.2-27,22.3-48.9,49.1-48.7
				C267.9,175.4,289.8,197.4,289.7,224.3z M279.9,224.2c0.1-21.5-17.5-39.2-39-39.2c-21.5-0.1-39.2,17.5-39.2,39.1
				c-0.1,21.5,17.5,39.2,39.1,39.2C262.2,263.4,279.9,245.8,279.9,224.2z"/>
			<path class="st3" d="M240.6,264c-22-0.1-40-18.1-40-40.1c0.1-22,18.2-40,40.1-40c22,0.1,40,18.1,39.9,40.1
				C280.7,246.1,262.6,264.1,240.6,264z M267.2,223.4c-0.5-13-10.1-24.4-24.3-25.7c-4.3-0.4-7.4,1.4-7.9,5c-0.5,3.5,2.1,6.2,6.6,6.6
				c7.2,0.8,12.4,5.3,13.7,12.1c0.2,1.1,0.2,2.2,0.4,3.2c0.6,3.3,3.4,5.6,6.4,5.2C265.1,229.4,267.2,226.8,267.2,223.4z"/>
			<path class="st14" d="M267.2,223.4c0,3.4-2.1,6-5.2,6.4c-3,0.4-5.8-1.8-6.4-5.2c-0.2-1.1-0.2-2.2-0.4-3.2
				c-1.3-6.8-6.5-11.3-13.7-12.1c-4.4-0.5-7.1-3.1-6.6-6.6c0.5-3.6,3.6-5.5,7.9-5C257.1,199.1,266.6,210.4,267.2,223.4z"/>
		</g>
	</g>
</g>
<g id="Capa_4" class="st0">
	<g class="st1">
		<circle class="st9" cx="200.2" cy="490.3" r="50.1"/>
		<text transform="matrix(1 0 0 1 176.8026 516.1873)" class="st10 st11 st12">4</text>
	</g>
	<circle class="st13" cx="200" cy="199.3" r="192.8"/>
	<g class="st1">
		<g>
			<path class="st16" d="M133.2,281c1.1,1.4,2.7,2.4,4.1,3.5c1.7,1.3,3.3,0.9,4.9-0.4c6.1-4.8,11.5-10.2,17-15.7
				c0.5-0.5,1.1-1,1.6-1.5c4.6,1.4,9.1,2.9,13,5.9c2.1,1.6,3.9,3.5,4.9,6c-1.1,2.7-3.1,4.6-5.5,6.1c-5.7,3.7-12.1,5.7-18.7,6.8
				c-14.8,2.4-29.3,1.9-43.4-3.8c-3.7-1.5-7.3-3.5-9.8-6.9c-0.5-0.7-1-1.3-1-2.2c1.9-4.5,5.8-6.9,9.9-8.9c2.5-1.2,5.3-2.1,7.9-3.1
				C123.1,271.6,127.9,276.6,133.2,281z"/>
			<path class="st14" d="M100.3,278.7c5.7,8,14.4,10.2,23.2,12.2c6.8,1.5,13.8,1.7,20.8,1.3c10.1-0.6,19.9-2.3,28.7-7.8
				c2.3-1.5,3.8-3.8,5.7-5.6c1.8,5.2,0.1,9.9-5,13.6c-5.6,4.1-12.1,5.9-18.7,7.1c-14.4,2.6-28.6,1.9-42.5-3.2
				c-4.1-1.5-7.9-3.6-10.6-7.2C99.5,285.9,98.6,282.5,100.3,278.7z"/>
			<path class="st16" d="M287.1,168.4c2.8,1.2,5.7,2.1,8.2,4c1.7,1.3,3.3,2.6,4.2,4.6c-1.3,3.7-4.6,5.2-7.7,6.7
				c-4.2,2-8.7,3-13.4,3.6c-9.7,1.3-19.3,0.7-28.6-2.3c-2.9-0.9-5.6-2.1-8-4c-1.4-1.1-2.7-2.2-3.1-4c2.2-4.1,6-5.9,10.1-7.6
				c0.8-0.3,1.7-0.6,2.5-0.9C255,172.3,283.2,172.3,287.1,168.4z"/>
			<path class="st14" d="M238.7,176.9c5.2,7.3,12.5,9.5,20.1,10.9c4.4,0.8,8.9,1.4,13.4,1c8.2-0.7,16.3-1.9,23.4-7.4
				c1.6-1.2,2.6-3,4-4.4c2.2,4.8,1,9.9-3.3,13.7c-4.7,4.1-10.3,5.8-16,6.9c-8.8,1.7-17.6,1.4-26.3-1c-4.4-1.2-8.6-2.9-12.2-6.2
				C237.7,186.6,236.6,181.6,238.7,176.9z"/>
			<path class="st17" d="M206,193.5c-2.2,0-3.9-2.6-2.9-4.7c0.9-2,2.4-3.6,4.2-4.8c2-1.4,4.8,0,5.1,2.4
				C212.7,188.6,208.2,193.5,206,193.5z"/>
			<path class="st17" d="M208.7,215.3c1.8,0,6.3,3.6,6.8,5.3c0.4,1.4-0.1,2.6-1.1,3.4c-1,0.8-2.3,1.1-3.6,0.4
				c-1.7-0.9-3.3-2.1-4.6-3.6c-0.9-1.1-1.1-2.3-0.5-3.6C206.4,216,207.4,215.4,208.7,215.3z"/>
			<path class="st18" d="M308.9,266.5c-1.9,0-3.7-1.8-3.3-3.7c0.3-1.8,0.8-3.7,1.5-5.4c0.6-1.6,2-2.2,3.7-1.8
				c1.6,0.4,2.7,1.6,2.6,3.3c-0.1,2.1-0.8,4.1-1.6,6C311.1,265.9,310,266.3,308.9,266.5z"/>
			<path class="st17" d="M283.7,278.7c0.4,0,0.9-0.1,1.3-0.1c2.2-0.1,3.8,1.1,4.1,3c0.2,1.9-1.1,3.4-3.4,3.7
				c-1.4,0.2-2.8,0.3-4.2,0.3c-2.1,0-3.5-1.5-3.5-3.3c0-1.8,1.4-3.2,3.5-3.4C282.2,278.7,282.9,278.8,283.7,278.7
				C283.7,278.7,283.7,278.7,283.7,278.7z"/>
			<path class="st18" d="M224.4,177.5c1.2,0,2.6,0.1,3.7,1.3c1.2,1.5,1.1,3.9-0.6,4.7c-2.5,1.2-5.4,1.5-8,0.5
				c-1.3-0.5-1.9-1.9-1.7-3.4c0.3-1.6,1.3-2.5,2.8-2.8C221.7,177.7,222.9,177.6,224.4,177.5z"/>
			<path class="st18" d="M227.5,221.4c0.5,0,1,0,1.6,0c2.3,0.1,3.8,1.4,3.8,3.3c0,1.8-1.3,3.3-3.5,3.4c-1.6,0.1-3.2,0.1-4.7-0.1
				c-1.9-0.3-3.3-1.9-3-3.6c0.3-1.8,1.4-3,3.3-3C225.8,221.4,226.6,221.4,227.5,221.4C227.5,221.4,227.5,221.4,227.5,221.4z"/>
			<path class="st18" d="M281,228.2c-1.1,0-2.2,0.1-3.3-0.3c-1.6-0.6-2.5-1.8-2.3-3.4c0.2-1.6,1.1-2.8,2.9-3
				c1.6-0.1,3.1-0.1,4.7-0.1c2.1,0.1,3.5,1.5,3.5,3.3c0,1.8-1.3,3.2-3.5,3.4C282.3,228.2,281.6,228.2,281,228.2z"/>
			<path class="st17" d="M229.4,285.8c-0.7-0.1-1.8-0.1-2.8-0.4c-1.5-0.4-2.3-1.7-2.3-3.2c0.1-1.5,0.9-2.8,2.5-3
				c1.9-0.3,3.9-0.4,5.8-0.1c1.8,0.3,2.8,1.5,2.8,3.2c0,1.9-1.1,3.1-3,3.3C231.5,285.7,230.7,285.8,229.4,285.8z"/>
			<path class="st17" d="M247.8,285.5c-0.9,0-1.8,0.1-2.7,0c-1.7-0.2-2.7-1.3-2.8-3c-0.1-1.7,0.7-3,2.3-3.4c2-0.5,4.2-0.5,6.2-0.1
				c1.8,0.4,2.7,1.7,2.5,3.5c-0.2,1.7-1.2,2.9-3.1,3C249.4,285.6,248.6,285.6,247.8,285.5C247.8,285.6,247.8,285.6,247.8,285.5z"/>
			<path class="st17" d="M302.9,230.7c-0.1,2.6-2.3,4.2-4.4,3.3c-1.9-0.8-3.7-2-5.1-3.5c-1-1.1-1-2.5-0.3-3.8
				c0.7-1.2,1.9-1.9,3.2-1.6c2.5,0.7,4.5,2.2,6.2,4.1C302.8,229.7,302.8,230.4,302.9,230.7z"/>
			<path class="st17" d="M265.5,285.5c-0.7,0-1.5,0-2.2,0c-1.8-0.1-2.9-1.1-3.1-2.9c-0.2-1.8,0.6-3.1,2.4-3.5c2-0.5,4.2-0.5,6.2,0
				c1.8,0.4,2.6,1.7,2.4,3.6c-0.2,1.7-1.3,2.7-2.9,2.9C267.3,285.6,266.4,285.5,265.5,285.5C265.5,285.5,265.5,285.5,265.5,285.5z"
				/>
			<path class="st17" d="M194.3,279.2c0.7,0,1.5,0,2.2,0c1.9,0.2,3.1,1.3,3.2,3.1c0.1,1.9-1,3.2-2.8,3.4c-1.7,0.2-3.4,0.2-5.1,0.1
				c-2-0.2-3.1-1.6-3.1-3.5c0.1-1.8,1.4-3,3.4-3.2C192.8,279.1,193.5,279.2,194.3,279.2C194.3,279.2,194.3,279.2,194.3,279.2z"/>
			<path class="st17" d="M198.7,204.4c-0.1-3.4,1.1-5,3.2-5.1c2.1-0.1,3.3,1.2,3.5,4c0.1,1.2,0.3,2.4,0.3,3.6c0,1.9-1,3.1-2.9,3.4
				c-1.8,0.3-3.4-0.8-3.8-2.7C198.8,206.3,198.7,205.1,198.7,204.4z"/>
			<path class="st17" d="M245.1,221.5c0.9,0,1.8-0.1,2.7,0c1.8,0.2,2.7,1.3,2.9,3c0.1,1.6-0.6,2.9-2.3,3.4c-2,0.6-4,0.5-6,0.1
				c-1.9-0.3-2.9-1.6-2.7-3.5c0.2-1.9,1.3-2.9,3.2-3C243.6,221.4,244.3,221.5,245.1,221.5C245.1,221.5,245.1,221.5,245.1,221.5z"/>
			<path class="st17" d="M263.1,221.5c0.8,0,1.7-0.1,2.5,0c1.7,0.2,2.7,1.2,2.9,2.9c0.2,1.8-0.6,3.1-2.4,3.5c-2.1,0.5-4.2,0.5-6.2,0
				c-1.8-0.4-2.5-1.8-2.3-3.6c0.2-1.7,1.2-2.7,2.9-2.8C261.3,221.4,262.2,221.5,263.1,221.5z"/>
			<path class="st17" d="M307.7,238c2.1,0,3,1.3,3.6,3.1c0.7,2.3,2.6,4.5,0.3,6.8c-1.5,1.6-4.1,1.1-5.1-0.9c-0.8-1.6-1.4-3.3-1.9-5
				C304,239.9,305.6,238.1,307.7,238z"/>
			<path class="st17" d="M304.9,274.3c0,1.1-0.5,1.9-1.2,2.5c-1.1,1-2.3,2-3.5,2.8c-1.6,1.1-3.5,0.9-4.6-0.5c-1.1-1.3-1-3.3,0.4-4.6
				c1.2-1.1,2.5-2.1,3.8-3.1c1.1-0.8,2.3-0.7,3.4-0.1C304.3,272,304.9,273,304.9,274.3z"/>
			<path class="st17" d="M212.1,279.1c0.7,0,1.5,0,2.2,0c1.8,0.1,3,1.1,3.2,2.9c0.2,1.9-0.6,3.2-2.6,3.6c-1.9,0.4-3.9,0.4-5.8,0
				c-1.8-0.3-2.8-1.6-2.7-3.3c0.1-1.9,1.2-3,3.1-3.2C210.5,279.1,211.3,279.2,212.1,279.1C212.1,279.1,212.1,279.1,212.1,279.1z"/>
			<g>
				<path class="st5" d="M102.6,204c21.3-20.5,48.4-21.4,67.4-1.7c6.8,7.1,11,15.1,12.4,23.5c3.8-9.1,6.2-17.8,6.2-25.1
					c0-28.1-22.9-51-51-51c-28.1,0-51,22.9-51,51c0,4.9,1,10.3,2.7,16L102.6,204z"/>
				<path class="st5" d="M155.3,259.9c14.6-14.1,15.5-32.1,2.4-45.7c-13.1-13.6-31.1-13.4-45.8,0.7L96,230.2l43.3,45L155.3,259.9z"
					/>
			</g>
			<ellipse class="st16" cx="269.1" cy="179" rx="30.4" ry="13.5"/>
		</g>
		<g>
			<circle class="st5" cx="269.1" cy="139.9" r="42.1"/>
			<g>
				<g>
					<g>
						<path class="st10" d="M293,136.7c-0.1-1.1-0.6-2.1-1.5-2.9l-4.1-3.5v-10.1c0-0.8-0.6-1.4-1.4-1.4h-5.6c-0.8,0-1.4,0.6-1.4,1.4
							v2.9l-7.1-6c-1.6-1.4-3.9-1.4-5.5,0l-19.8,16.8c-1.7,1.5-2,4.1-0.5,5.9c1.2,1.3,3,1.8,4.6,1.2v21.4c0,0.8,0.6,1.4,1.4,1.4H286
							c0.8,0,1.4-0.6,1.4-1.4V141c1.6,0.6,3.5,0.1,4.6-1.2C292.8,138.9,293.1,137.8,293,136.7z M281.8,121.6h2.8v6.3l-2.8-2.4V121.6
							z M274.9,161h-11.4v-11.2h11.4V161z M284.7,161h-7v-12.6c0-0.8-0.6-1.4-1.4-1.4h-14.2c-0.8,0-1.4,0.6-1.4,1.4V161h-7v-22
							l15.6-13.2l15.4,13.2L284.7,161L284.7,161z M289.9,137.9c-0.5,0.6-1.4,0.7-2,0.2l-17.8-15.2c-0.5-0.4-1.3-0.4-1.8,0
							c-0.4,0.3-17.9,15.2-18,15.2c-0.6,0.5-1.5,0.4-2-0.2c-0.5-0.6-0.4-1.5,0.1-2l19.8-16.8c0.5-0.5,1.3-0.5,1.8,0l19.6,16.8
							C290.3,136.4,290.4,137.3,289.9,137.9z"/>
					</g>
				</g>
				<g>
					<g>
						<path class="st10" d="M273.4,134.3h-8.6c-0.8,0-1.4,0.6-1.4,1.4v8.4c0,0.8,0.6,1.4,1.4,1.4h8.6c0.8,0,1.4-0.6,1.4-1.4v-8.4
							C274.8,134.9,274.2,134.3,273.4,134.3z M272,142.7h-5.8v-5.6h5.8V142.7z"/>
					</g>
				</g>
				<g>
					<g>
						<circle class="st10" cx="269.1" cy="139.9" r="1.4"/>
					</g>
				</g>
			</g>
		</g>
	</g>
</g>
<g id="Capa_5" class="st0">
	<g class="st1">
		<circle class="st9" cx="200.2" cy="490.3" r="50.1"/>
		<text transform="matrix(1 0 0 1 179.9676 516.1873)" class="st10 st11 st12">5</text>
	</g>
	<circle class="st13" cx="200" cy="199.3" r="192.8"/>
	<g class="st1">
		<path class="st17" d="M197.8,96.5c1.2,0,2.4,0,3.6,0c8.9,0.7,15.1,5.7,19.5,12.9c5.8,9.4,4.4,22.4-3,30.6
			c-0.5,0.5-0.9,1.1-1.4,1.7c-4.2,4-9.1,6.6-14.9,7.4c-1.4,0.2-3.1,0.8-4.2-0.8c-0.3-0.9-0.3-1.8-0.3-2.8c0-15.2,0-30.5,0-45.7
			C197.1,98.6,197,97.4,197.8,96.5z"/>
		<path class="st9" d="M133.5,96.5c1.2,0,2.4,0,3.6,0c8.8,0.7,15,5.6,19.4,12.8c6,9.6,4.6,22.5-3.1,30.9c-0.5,0.5-0.9,1-1.3,1.5
			c-4.3,4.1-9.3,6.5-15.1,7.4c-1.2,0.2-2.5,0.4-3.7-0.3c-0.2-0.2-0.3-0.4-0.3-0.7c-0.2-0.9-0.2-1.9-0.2-2.8c0-15.1,0-30.2,0-45.3
			C132.8,98.7,132.6,97.5,133.5,96.5z"/>
		<path class="st9" d="M265.7,96.5c3.4,0.9,6.8,1.8,9.8,3.7c14.2,8.5,17,28,5.7,40.1c-0.2,0.2-0.4,0.5-0.6,0.8
			c-1.5,2.8-4.2,4.1-6.7,5.4c-2.8,1.5-5.9,2.3-9,2.7c-1.1,0.1-2.5,0.4-3.2-0.9c-0.3-0.9-0.3-1.8-0.3-2.8c0-15.2,0-30.5,0-45.7
			c0-1.1-0.2-2.3,0.6-3.3C263.3,96.5,264.5,96.5,265.7,96.5z"/>
		<path class="st9" d="M262.1,96.5c0,17.4,0,34.8,0,52.2c-0.1,0.1-0.1,0.2-0.2,0.3c-1,0.5-2.1,0.4-3.1,0.2c-6-1-11.2-3.3-15.4-7.7
			c-9.4-9.7-10.7-23.3-2.8-34.2c4.3-6.1,10.1-10.2,18-10.5c0.1,0,0.2-0.1,0.3-0.2C259.9,96.5,261,96.5,262.1,96.5z"/>
		<path class="st17" d="M179.3,141.4c-0.2-1.3-1.3-1.8-2-2.6c-8.1-10-7.3-25,1.7-34.2c4.2-4.3,9.1-7,15.1-7.8c0.2,0,0.3-0.2,0.5-0.3
			c1.1,0,2.1,0,3.2,0c0,17.4,0,34.8,0,52.2c-0.1,0.1-0.1,0.2-0.2,0.2c-2.8,0.7-5.4-0.1-8-1C185.7,146.5,182,144.8,179.3,141.4z"/>
		<path class="st9" d="M133.5,96.5c0,17.4,0,34.8,0,52.2c-0.5,0.7-1.3,0.6-2,0.5c-5.5-0.6-10.5-2.4-14.8-5.9c-0.6-0.5-1.3-1-1.4-1.9
			c-5.5-5.5-8.3-12.2-8-20c0.5-12.3,10-22.6,21.8-24.5c0.4-0.1,0.8,0,1.1-0.4C131.3,96.5,132.4,96.5,133.5,96.5z"/>
		<path class="st19" d="M211.4,192.9c0,6.6,0,13.1,0,19.7c1.3-3.3,3.2-6.1,6.3-8c3-1.9,6.3-2.5,9.8-1.8c7,1.5,10.5,6.2,11,14.2
			c4.4-8.3,9.6-11.6,16-10.3c6.7,1.5,10.6,6.3,11.3,14.3c0.8-2.2,1.6-4.1,3-5.7c3.6-4,8-5.5,13.2-4.5c5.6,1.2,9,4.8,10.4,10.2
			c0.2,0.9,0.3,1.9,0.3,2.8c0,16.5,0,32.9,0,49.4c0,10.9-7.6,22.7-19.4,27c-3.5,1.3-7.2,2-11,2c-20.5,0-41.1,0-61.6,0
			c-1,0-2,0.3-2.9-0.4c-0.9-1.1-0.6-2.4-0.6-3.7c0-19.3,0-38.7,0-58c0-22.5,0-44.9,0-67.4c0-1.2-0.1-2.4,0.3-3.6
			c0.9-1.3,2.2-0.9,3.5-0.7c5.8,1.2,10.4,6.3,11,12.3c0.3,3.5,0.1,7.1,0.1,10.6C212,192,211.8,192.5,211.4,192.9z"/>
		<path class="st20" d="M197.8,168.8c0,44.3,0,88.7,0,133c-8.3-0.7-15.6-3.9-22-9.1c-7.7-6.2-12.6-14.2-14.7-23.9
			c-1.3-6.1-1.6-12.3-0.6-18.5c0.7-4.4,3.3-7.6,7.2-9.8c1.5-0.8,3-1.5,4.5-2.2c0.7,0.8,0.6,1.8,0.6,2.7c0,4.4,0,8.8,0,13.2
			c0,1,0,2,0.3,3c0.8,2.6,3.3,4.4,5.7,4.1c2.8-0.3,4.7-2.4,4.8-5.3c0.1-4,0-8,0-12c0-3,0-6,0-9c0-0.9,0-1.9,0.6-2.7
			c0-13.1,0-26.2,0-39.4c-0.3-0.3-0.5-0.7-0.5-1.1c0-4.3-0.6-8.7,0.5-12.9c1.5-5.7,5.4-9,11-10.4c0.8-0.2,1.6-0.3,2.3,0.1
			C197.6,168.7,197.7,168.7,197.8,168.8z"/>
		<path class="st19" d="M184.1,232.3c0,7.8,0,15.6,0,23.4c0,3.8-2.4,6.3-6,6.3c-3.2,0-6-2.8-6.1-6.2c-0.1-5.8,0-11.6,0-17.4
			C176.1,236.3,180.1,234.3,184.1,232.3z"/>
		<g>
			<path class="st2" d="M213.5,114.2c-0.1,0.6-0.5,1-0.9,1.4c-5.9,5.9-11.8,11.8-17.7,17.7c-0.6,0.6-1.3,0.7-2,0.4
				c-0.1-0.1-0.3-0.2-0.4-0.3c-2.9-2.9-5.8-5.8-8.7-8.7c-1-1-1-2.4,0-3.4c0.3-0.3,0.7-0.7,1-1c1-1,2.4-1,3.4,0
				c1.2,1.1,2.3,2.3,3.4,3.4c0.6,0.6,1.1,1.1,1.7,1.7c0.2,0.2,0.3,0.2,0.5,0c4.7-4.7,9.4-9.5,14.2-14.2c0.2-0.2,0.4-0.4,0.5-0.5
				c0.9-0.7,2.2-0.7,3,0.2c0.4,0.4,0.8,0.8,1.2,1.2c0.3,0.3,0.5,0.7,0.6,1.1C213.5,113.6,213.5,113.9,213.5,114.2z"/>
		</g>
	</g>
</g>
<g id="Capa_6" class="st0">
	<g class="st1">
		<circle class="st9" cx="200.2" cy="490.3" r="50.1"/>
		<text transform="matrix(1 0 0 1 178.5536 516.1873)" class="st10 st11 st12">6</text>
	</g>
	<circle class="st13" cx="200.2" cy="199.3" r="192.8"/>
	<g class="st1">
		<path class="st21" d="M263.6,121c0-0.9,0-1.8-0.1-2.7c-0.4-5-3.4-8-8.1-8.5h-11h-16.2h-18.2h-8.8H201h-8.4h-18H152h-3.1
			c-7,0.5-9.6,3.6-9.6,11.2c0,34.1,0,68.2,0,102.2c0,1.1,0,2.2,0.1,3.2c0.6,4.7,4,8,8.7,8c17.7,0,35.5,0,53.2-0.1
			c18,0,36,0.1,54.1,0.1c2.5,0,4.5-1.2,6.1-3c2.1-2.3,2.1-5.2,2.1-8C263.6,189.4,263.6,155.2,263.6,121z"/>
		<g>
			<g>
				<path class="st2" d="M230.3,185.8c-0.6,1.7-1.7,2.9-3.4,3.5c-0.6,0.2-1.1,0.3-1.7,0.3c-0.6,0-0.7,0.2-0.7,0.8
					c0,5.1,0,10.2,0,15.2c0,1.7-0.3,3.3-1.5,4.7c-1.2,1.3-2.6,2.1-4.4,2.1c-2.9,0-5.9,0-8.8,0c-1.4,0-2-0.6-2-2c0-4.2,0-8.5,0-12.7
					c0-1.2-0.5-2.1-1.7-2.7c-0.3-0.1-0.7-0.2-1-0.2c-1.8,0-3.5,0-5.3,0c-1.6,0-2.7,1.1-2.7,2.7c0,4.2,0,8.5,0,12.7
					c0,1.5-0.6,2.1-2,2.1c-2.9,0-5.8,0-8.6,0c-3.2,0-5.8-2.5-6-5.7c0-0.6-0.1-1.3-0.1-1.9c0-4.8,0-9.7,0-14.5c0-0.5-0.1-0.7-0.7-0.7
					c-1.5,0-2.9-0.5-3.9-1.7c-1.9-2.1-1.9-5.1,0.1-7.3c0.1-0.1,0.3-0.3,0.4-0.4c7.3-7.3,14.5-14.5,21.8-21.8
					c0.8-0.8,1.7-1.6,2.9-1.9c0.9,0,1.9,0,2.8,0c1.1,0.4,2,1.1,2.8,1.9c7.2,7.2,14.4,14.4,21.6,21.6c0.9,0.9,1.7,1.8,2,3
					C230.3,183.9,230.3,184.8,230.3,185.8z M183.8,197.1c0,3,0,6,0,9c0,1.8,1.1,2.9,2.9,3c2.1,0,4.2,0,6.3,0c0.5,0,0.6-0.2,0.6-0.7
					c0-3.1,0-6.2,0-9.3c0-0.7,0-1.4,0.1-2.1c0.3-3,2.8-5.4,5.8-5.5c1.9,0,3.8,0,5.7,0c1.7,0,3.2,0.8,4.3,2c1.1,1.3,1.6,2.8,1.6,4.5
					c0,3.5,0,7,0,10.4c0,0.5,0.1,0.6,0.6,0.6c2,0,4.1,0,6.1,0c2.1,0,3.2-1.1,3.2-3.2c0-5.9,0-11.9,0-17.8c0-1.2,0.7-1.9,1.9-1.9
					c0.7,0,1.4,0,2.1,0c0.8,0,1.5-0.3,1.8-1.1c0.3-0.8,0.1-1.5-0.5-2.1c-0.8-0.8-1.6-1.6-2.4-2.4c-6.7-6.7-13.4-13.4-20.2-20.2
					c-0.9-0.9-1.9-1-2.8-0.1c-7.6,7.6-15.1,15.1-22.7,22.7c-0.6,0.6-0.8,1.3-0.5,2c0.3,0.8,1,1.1,1.8,1.1c0.7,0,1.4,0,2.1,0
					c1.4,0,2,0.6,2,2C183.8,191.1,183.8,194.1,183.8,197.1z"/>
			</g>
		</g>
		<g>
			<path class="st20" d="M201.3,273.1c-6,0-11.9,0-17.9,0.1c-4.1,0-7.1,2.7-7.1,6.3c0,3.6,3,6.2,7.1,6.3c6,0,11.9,0,17.9,0.1
				c0.8,0.8,0.6,1.8,0.7,2.8c0,6.5,0,12.9,0,19.4c0,1,0.1,2-0.7,2.8c-8.9,0-17.8,0.1-26.7,0c-1.4,0-2.3,0.4-3.3,1.4
				c-7.1,7.2-14.2,14.3-21.4,21.4c-3.7,3.7-7.2,3.7-10.8,0c-9.8-9.8-19.7-19.6-29.5-29.5c-3.5-3.5-3.6-7-0.1-10.5
				c11.8-11.8,23.6-23.6,35.4-35.4c6.9-6.9,15.1-10.2,24.9-10c10.5,0.2,21,0.1,31.5,0.1c0.8,0.8,0.6,1.8,0.7,2.8
				c0,6.5,0,12.9,0,19.4C202,271.3,202.1,272.3,201.3,273.1z"/>
			<path class="st19" d="M201.3,310.6c0-8.3,0-16.6,0-24.9c7.2,0,14.5-0.2,21.7,0c9,0.1,15.5-3.6,19.6-11.8
				c5.7-11.2,11.7-22.2,17.5-33.4c4.9-9.6,12.5-15.5,23.2-17.3c1.6-0.3,3.3-0.3,5-0.1c4,0.5,6.4,5.1,4.6,8.9
				c-1.8,3.8-3.8,7.4-5.7,11.1c-7.4,14.1-14.8,28.1-22.1,42.2c-5.9,11.4-14.7,19.5-27.1,23.4c-3.6,1.1-7.4,1.9-11.2,1.9
				C218.3,310.7,209.8,310.7,201.3,310.6z"/>
			<path class="st19" d="M201.3,273.1c0-8.3,0-16.6,0-24.9c10.7,0,21.4-0.1,32.1,0c3.8,0,6.2,4,4.6,7.7c-1.7,3.8-3.8,7.4-5.7,11.1
				c-0.6,1.1-1.1,2.2-1.8,3.3c-1.1,1.7-2.7,2.9-4.8,2.9C217.6,273.2,209.5,273.1,201.3,273.1z"/>
		</g>
		<path class="st22" d="M230.3,93.9v-2.5c0-16-12.9-28.9-28.9-28.9c-16,0-28.9,12.9-28.9,28.9v6.8v5.5v27.6c0,2.9,0.6,5,2,6.4
			c1.3,1.4,3,2.1,5.1,2.1c2.1,0,3.8-0.7,5-2.1c1.3-1.4,1.9-3.5,1.9-6.4V96c0-5.9,1.1-10.3,3.4-13.2s6.1-4.4,11.6-4.4
			c4,0,7,0.7,9.2,2.1c2.2,1.4,3.7,3.4,4.6,6c0.9,2.6,1.3,5.8,1.3,9.7v35.1c0,2.8,0.6,4.9,1.9,6.4c1.3,1.4,3,2.1,5.2,2.1
			c2.1,0,3.7-0.7,5-2.1c1.3-1.4,1.9-3.5,1.9-6.4V98.2C230.4,96.7,230.4,95.3,230.3,93.9z"/>
	</g>
</g>
<g id="Capa_7" class="st0">
	<g class="st1">
		<circle class="st9" cx="200.2" cy="490.3" r="50.1"/>
		<text transform="matrix(1 0 0 1 186.8021 516.1873)" class="st10 st11 st12">1</text>
	</g>
	<circle class="st13" cx="200.2" cy="199.3" r="192.8"/>
	<g class="st1">
		<g>
			<rect x="153.2" y="201.6" class="st23" width="94.3" height="23.6"/>
			<polygon class="st24" points="255.4,225.2 145.4,225.2 161.1,213.4 153.2,201.6 247.6,201.6 239.7,213.4 			"/>
			<path class="st23" d="M145.4,225.2v86.5c0,8.7,7.1,15.7,15.7,15.7h78.6c8.7,0,15.7-7.1,15.7-15.7v-86.5H145.4z"/>
			<path class="st25" d="M200.4,296c-17.3,0-31.4-14.1-31.4-31.4v-11.8c0-2.2,1.8-3.9,3.9-3.9c2.2,0,3.9,1.8,3.9,3.9v11.8
				c0,13,10.6,23.6,23.6,23.6s23.6-10.6,23.6-23.6v-11.8c0-2.2,1.8-3.9,3.9-3.9c2.2,0,3.9,1.8,3.9,3.9v11.8
				C231.9,281.9,217.7,296,200.4,296z"/>
		</g>
		<g>
			<path class="st26" d="M264.6,142.2l6.2-16.2c0.7-1.8,0.2-3.8-1.3-5L256,110l-2.7-17.2c-0.3-1.9-1.8-3.4-3.7-3.7l-17.2-2.7
				l-10.9-13.5c-1.2-1.5-3.3-2-5-1.3l-16.2,6.2L184,71.6c-1.8-0.7-3.8-0.1-5,1.3l-10.9,13.5l-17.2,2.7c-1.9,0.3-3.4,1.8-3.7,3.7
				l-2.7,17.2L131,120.9c-1.5,1.2-2,3.2-1.3,5l6.2,16.2l-6.2,16.2c-0.7,1.8-0.1,3.8,1.3,5l13.5,10.9l2.7,17.2
				c0.3,1.9,1.8,3.4,3.7,3.7l17.2,2.7l10.9,13.5c1.2,1.5,3.2,2,5,1.3l16.2-6.2l16.2,6.2c0.5,0.2,1,0.3,1.6,0.3
				c1.3,0,2.6-0.6,3.4-1.6l10.9-13.5l17.2-2.7c1.9-0.3,3.4-1.8,3.7-3.7l2.7-17.2l13.5-10.9c1.5-1.2,2-3.2,1.3-5L264.6,142.2z"/>
			<g>
				<path class="st27" d="M187,133.3c-7.3,0-13.3-6-13.3-13.3s6-13.3,13.3-13.3c7.3,0,13.3,6,13.3,13.3S194.3,133.3,187,133.3z
					 M187,115.6c-2.4,0-4.4,2-4.4,4.4s2,4.4,4.4,4.4c2.4,0,4.4-2,4.4-4.4S189.4,115.6,187,115.6z"/>
				<path class="st27" d="M213.5,177.6c-7.3,0-13.3-6-13.3-13.3s6-13.3,13.3-13.3c7.3,0,13.3,6,13.3,13.3S220.9,177.6,213.5,177.6z
					 M213.5,159.9c-2.4,0-4.4,2-4.4,4.4c0,2.4,2,4.4,4.4,4.4c2.4,0,4.4-2,4.4-4.4C218,161.9,216,159.9,213.5,159.9z"/>
				<path class="st27" d="M178.1,177.6c-0.9,0-1.8-0.3-2.6-0.8c-2-1.4-2.5-4.2-1-6.2l44.3-62c1.4-2,4.2-2.5,6.2-1
					c2,1.4,2.4,4.2,1,6.2l-44.3,62C180.8,177,179.5,177.6,178.1,177.6z"/>
			</g>
		</g>
	</g>
</g>
<g id="Capa_8" class="st0">
	<g class="st1">
		<circle class="st9" cx="200.2" cy="490.3" r="50.1"/>
		<text transform="matrix(1 0 0 1 180.1361 516.1873)" class="st10 st11 st12">2</text>
	</g>
	<circle class="st13" cx="200.2" cy="199.3" r="192.8"/>
	<g class="st1">
		<g>
			<path class="st28" d="M206.4,110.8H96.6c-7.7,0-13.9,6.2-13.9,13.9V274c0,7.7,6.2,13.9,13.9,13.9h109.8c7.7,0,13.9-6.2,13.9-13.9
				V124.7C220.3,117.1,214,110.8,206.4,110.8z"/>
			<path class="st29" d="M200.8,125.6h-98.7c-2.6,0-4.6,2.1-4.6,4.6v24.7c0,2.6,2.1,4.6,4.6,4.6h98.7c2.6,0,4.6-2.1,4.6-4.6v-24.7
				C205.5,127.7,203.4,125.6,200.8,125.6z"/>
			<g>
				<path class="st30" d="M102.1,125.6c-2.6,0-4.6,2.1-4.6,4.6v24.7c0,2.6,2.1,4.6,4.6,4.6h20l33.9-33.9L102.1,125.6L102.1,125.6z"
					/>
				<path class="st30" d="M200.8,125.6h-17.3l-33.9,33.9h51.2c2.6,0,4.6-2.1,4.6-4.6v-24.7C205.5,127.7,203.4,125.6,200.8,125.6z"/>
			</g>
			<g>
				<path class="st31" d="M121.9,165.1h-19.7c-2.6,0-4.6,2.1-4.6,4.6v19.7c0,2.6,2.1,4.6,4.6,4.6h19.7c2.6,0,4.6-2.1,4.6-4.6v-19.7
					C126.5,167.2,124.4,165.1,121.9,165.1z"/>
				<path class="st31" d="M161,165.1h-19.7c-2.6,0-4.6,2.1-4.6,4.6v19.7c0,2.6,2.1,4.6,4.6,4.6H161c2.6,0,4.6-2.1,4.6-4.6v-19.7
					C165.7,167.2,163.6,165.1,161,165.1z"/>
				<path class="st31" d="M121.9,204.6h-19.7c-2.6,0-4.6,2.1-4.6,4.6V229c0,2.6,2.1,4.6,4.6,4.6h19.7c2.6,0,4.6-2.1,4.6-4.6v-19.7
					C126.5,206.7,124.4,204.6,121.9,204.6z"/>
				<path class="st31" d="M161,204.6h-19.7c-2.6,0-4.6,2.1-4.6,4.6V229c0,2.6,2.1,4.6,4.6,4.6H161c2.6,0,4.6-2.1,4.6-4.6v-19.7
					C165.7,206.7,163.6,204.6,161,204.6z"/>
				<path class="st31" d="M121.9,244.1h-19.7c-2.6,0-4.6,2.1-4.6,4.6v19.7c0,2.6,2.1,4.6,4.6,4.6h19.7c2.6,0,4.6-2.1,4.6-4.6v-19.7
					C126.5,246.1,124.4,244.1,121.9,244.1z"/>
				<path class="st31" d="M161,244.1h-19.7c-2.6,0-4.6,2.1-4.6,4.6v19.7c0,2.6,2.1,4.6,4.6,4.6H161c2.6,0,4.6-2.1,4.6-4.6v-19.7
					C165.7,246.1,163.6,244.1,161,244.1z"/>
				<path class="st31" d="M200.5,165.1h-19.7c-2.6,0-4.6,2.1-4.6,4.6v19.7c0,2.6,2.1,4.6,4.6,4.6h19.7c2.6,0,4.6-2.1,4.6-4.6v-19.7
					C205.1,167.2,203.1,165.1,200.5,165.1z"/>
			</g>
			<path class="st32" d="M200.8,204.6h-19.7c-2.6,0-4.6,2.1-4.6,4.6v59.2c0,2.6,2.1,4.6,4.6,4.6h19.7c2.6,0,4.6-2.1,4.6-4.6v-59.2
				C205.5,206.7,203.4,204.6,200.8,204.6z"/>
		</g>
		<path class="st33" d="M220.3,143.3c-23.3,12.9-39.1,37.8-39.1,66.3s15.8,53.4,39.1,66.3V143.3z"/>
		<g>
			<g>
				<path class="st34" d="M257.7,159c-33.1,0-60.1,27-60.1,60.1s27,60.1,60.1,60.1s60.1-27,60.1-60.1S290.8,159,257.7,159z"/>
				<path class="st34" d="M269.6,267.3c-33.1,0-60.1-27-60.1-60.1c0-13.5,4.5-26.1,12.1-36.1c-14.5,11-24,28.4-24,48
					c0,33.1,27,60.1,60.1,60.1c19.6,0,37-9.4,48-24C295.6,262.8,283.1,267.3,269.6,267.3z"/>
				<path class="st34" d="M266.9,215.6l-6.3-0.2v-22.4h14.3c2.2,0,4-1.8,4-4c0-2.2-1.8-4-4-4h-14.3v-4.6c0-2.2-1.8-4-4-4
					c-2.2,0-4,1.8-4,4v4.6h-4c-6.7,0-12.1,5.4-12.1,12.1v14c0,6.7,5.4,12.1,12.1,12.1l4.1,0.1v22h-12.1c-2.2,0-4,1.8-4,4s1.8,4,4,4
					h12.1v4.6c0,2.2,1.8,4,4,4c2.2,0,4-1.8,4-4v-4.6h6.2c6.7,0,12.1-5.4,12.1-12.1v-13.5C279,221,273.6,215.6,266.9,215.6z
					 M248.7,215c0,0-0.1,0-0.1,0c-2.2,0-4-1.8-4-4v-14c0-2.2,1.8-4,4-4h4v22.2L248.7,215z M270.9,241.2c0,2.2-1.8,4-4,4h-6.2v-21.7
					l6.1,0.2c0,0,0.1,0,0.1,0c2.2,0,4,1.8,4,4V241.2z"/>
			</g>
			<g>
				<path class="st32" d="M254.7,145.7c-34.7,0-63,28.2-63,63s28.2,63,63,63s63-28.2,63-63S289.5,145.7,254.7,145.7z"/>
				<path class="st35" d="M267.2,259.2c-34.7,0-63-28.2-63-63c0-14.2,4.7-27.3,12.7-37.9c-15.2,11.5-25.1,29.8-25.1,50.3
					c0,34.7,28.2,63,63,63c20.5,0,38.8-9.9,50.3-25.1C294.5,254.4,281.4,259.2,267.2,259.2z"/>
				<path class="st34" d="M264.4,205l-6.6-0.2v-23.5h15c2.3,0,4.2-1.9,4.2-4.2c0-2.3-1.9-4.2-4.2-4.2h-15V168c0-2.3-1.9-4.2-4.2-4.2
					c-2.3,0-4.2,1.9-4.2,4.2v4.8h-4.2c-7,0-12.7,5.7-12.7,12.7v14.7c0,7,5.7,12.7,12.6,12.7l4.3,0.1v23h-12.7
					c-2.3,0-4.2,1.9-4.2,4.2s1.9,4.2,4.2,4.2h12.7v4.8c0,2.3,1.9,4.2,4.2,4.2c2.3,0,4.2-1.9,4.2-4.2v-4.8h6.5
					c7,0,12.7-5.7,12.7-12.7v-14.1C277,210.7,271.4,205,264.4,205z M245.3,204.4c0,0-0.1,0-0.1,0c-2.3,0-4.2-1.9-4.2-4.2v-14.7
					c0-2.3,1.9-4.2,4.2-4.2h4.2v23.3L245.3,204.4z M268.6,231.8c0,2.3-1.9,4.2-4.2,4.2h-6.5v-22.8l6.4,0.2c0,0,0.1,0,0.1,0
					c2.3,0,4.2,1.9,4.2,4.2V231.8z"/>
			</g>
		</g>
	</g>
</g>
<g id="Capa_9" class="st0">
	<g class="st1">
		<circle class="st9" cx="200.2" cy="490.3" r="50.1"/>
		<text transform="matrix(1 0 0 1 180.1022 516.1873)" class="st10 st11 st12">3</text>
	</g>
	<circle class="st13" cx="200.2" cy="199.3" r="192.8"/>
	<g class="st1">
		<g>
			<rect x="140.3" y="144.9" class="st36" width="162.3" height="120.6"/>
			<rect x="231.8" y="178.4" class="st37" width="59.2" height="87.2"/>
			<rect x="237.6" y="184.2" class="st38" width="47.5" height="75.5"/>
			<path class="st39" d="M128.3,132.5V150c0,10.5,8.2,18.7,18.7,18.7c10.5,0,18.7-8.2,18.7-18.7v-17.5H128.3z"/>
			<path class="st40" d="M165.6,132.5V150c0,10.5,8.2,18.7,18.7,18.7c10.5,0,18.7-8.2,18.7-18.7v-17.5H165.6z"/>
			<path class="st39" d="M203,132.5V150c0,10.5,8.2,18.7,18.7,18.7c10.5,0,18.7-8.2,18.7-18.7v-17.5H203z"/>
			<path class="st40" d="M240.3,132.5V150c0,10.5,8.2,18.7,18.7,18.7c10.5,0,18.7-8.2,18.7-18.7v-17.5H240.3z"/>
			<path class="st39" d="M277.7,132.5V150c0,10.5,8.2,18.7,18.7,18.7c10.5,0,18.7-8.2,18.7-18.7v-17.5H277.7z"/>
			<polygon class="st41" points="173.8,95.1 141.9,95.1 128.3,132.5 165.6,132.5 			"/>
			<polygon class="st42" points="205.7,95.1 173.8,95.1 165.6,132.5 203,132.5 			"/>
			<polygon class="st41" points="237.6,95.1 205.7,95.1 203,132.5 240.3,132.5 			"/>
			<polygon class="st42" points="269.5,95.1 237.6,95.1 240.3,132.5 277.7,132.5 			"/>
			<polygon class="st41" points="301.4,95.1 269.5,95.1 277.7,132.5 315.1,132.5 			"/>
			<rect x="128.3" y="265.6" class="st43" width="186.8" height="16.3"/>
			<g>
				<circle class="st37" cx="245" cy="222" r="5.1"/>
				<rect x="152" y="178.4" class="st37" width="65.8" height="59.2"/>
			</g>
			<rect x="157.8" y="184.2" class="st38" width="54.1" height="47.5"/>
			<g>
				<path class="st44" d="M186.2,191.6c-0.8-0.8-2.7-0.8-3.5,0l-19.1,19.1c-0.8,0.8-0.8,2.7,0,3.5c0.8,0.8,2.7,0.8,3.5,0l19.1-19.1
					C187.4,194,187.4,192.4,186.2,191.6z"/>
				<path class="st44" d="M190.5,202.9c-0.8-0.8-2.7-0.8-3.5,0L175,215c-0.8,0.8-0.8,2.7,0,3.5c0.8,0.8,2.7,0.8,3.5,0l12.1-12.1
					C191.7,205.3,191.7,203.7,190.5,202.9z"/>
			</g>
		</g>
		<g>
			<path class="st45" d="M234.4,267.5c0,18.5-13.1,33.6-29.1,33.6h-17.1c-4.4,0-8.6-1.2-12.4-3.2c-10.9-6-16.7-18.4-16.7-30.4
				c0-8.8,3.6-16.6,9.1-21.7c3.2-2.9,5.7-6.6,7.4-10.8c1.2-3,2-6.2,2.4-9.5c0.1-1.3,0.2-2.6,0.2-3.9c0-11.7,8.3-21.3,18.4-21.3
				c5.1,0,9.7,2.4,13,6.3c3.3,3.9,5.4,9.2,5.4,15.1c0,9.4,3.6,18.4,10,24.3c2.8,2.5,5,5.8,6.6,9.5
				C233.5,258.9,234.4,263.1,234.4,267.5z"/>
			<path class="st46" d="M195.2,256.8c-0.2,6.4-2.2,12.6-5.7,18.3l-13.7,22.8c-10.9-6-16.7-18.4-16.7-30.4c0-8.8,3.6-16.6,9.1-21.7
				c3.2-2.9,5.7-6.6,7.4-10.8c1.2-3,2-6.2,2.4-9.5c5.4,2.7,11.2,7.6,14.7,16.8C194.6,247,195.4,251.9,195.2,256.8z"/>
			<path class="st47" d="M219.3,268.6c0,11-9.8,20-21.9,20s-21.9-9-21.9-20c0-11,9.8-20,21.9-20S219.3,257.6,219.3,268.6z"/>
			<path class="st48" d="M194.7,248.8c-19.3,2.2-26,24.8-10.7,35.7l5.6-9.4c3.4-5.7,5.4-11.9,5.7-18.3
				C195.3,254.1,195.1,251.5,194.7,248.8z"/>
			<path class="st49" d="M132.7,214.8c-1.1-4.8-7-22-32-18.1c-0.7,0.1-1.1,0.8-0.8,1.4c2.6,5,13.5,23.3,31.8,18.2
				C132.4,216.2,132.8,215.5,132.7,214.8z"/>
			<path class="st50" d="M131.7,216.4c-18.2,5.1-29.2-13.3-31.8-18.2c-0.3-0.6,0.1-1.3,0.8-1.4c2.1-0.3,4.1-0.5,6-0.6
				c3.8,6.2,12.4,16.9,25.2,16.1c0.4,1,0.6,1.9,0.8,2.5C132.9,215.5,132.4,216.2,131.7,216.4z"/>
			<path class="st51" d="M133.9,230c-1.2,0-2.3-0.9-2.3-2.1v-29.5c0-1.1,1-2.1,2.3-2.1s2.3,0.9,2.3,2.1v29.5
				C136.2,229.1,135.2,230,133.9,230z"/>
			<path class="st52" d="M176.7,275.1l-15.9,26.4c-4.1,6.2-13.5,8.4-20.9,4.9c-3.8-1.8-8.3-1.8-12,0c-7.2,3.4-16.6,1.4-20.9-4.9
				l-15.9-26.4c-6.5-10.8-7.2-22.4-3.3-32.9c4.9-13,14.4-17.5,21-19.1c3-0.7,5.4-0.8,6.5-0.8c0.4,0,0.6,0,0.6,0c3,0,5.8,0.5,8.5,1.3
				c2.6,0.8,5,2,7.1,3.6c0.7,0.5,1.5,0.8,2.4,0.8c0.8,0,1.7-0.3,2.4-0.8c2.1-1.5,4.5-2.7,7.1-3.6c2.6-0.8,5.5-1.3,8.5-1.3
				c0,0,20.1-1.2,28.1,19.9C183.9,252.7,183.2,264.3,176.7,275.1z"/>
			<path class="st53" d="M176.7,275.1l-15.9,26.4c-4.1,6.2-13.5,8.4-20.9,4.9c-3.8-1.8-8.3-1.8-12,0c-2,1-4.2,1.5-6.3,1.6
				c-0.1-0.2-12.8-25.6-16-32.1c-9.6-19.4-5.9-40.9,3.3-52.8c3-0.7,5.4-0.8,6.5-0.8c0.4,0,0.6,0,0.6,0c3,0,5.8,0.5,8.5,1.3
				c2.6,0.8,5,2,7.1,3.6c0.7,0.5,1.5,0.8,2.4,0.8c0.8,0,1.7-0.3,2.4-0.8c2.1-1.5,4.5-2.7,7.1-3.6c2.6-0.8,5.5-1.3,8.5-1.3
				c0,0,20.1-1.2,28.1,19.9C183.9,252.7,183.2,264.3,176.7,275.1z"/>
			<path class="st50" d="M105.2,281.7c-2.5,1.2-3.5,4.1-2.2,6.4c1.6,2.7,3.6,5.1,5.8,7.1l-17.3-1.8c-2.9-0.3-5.4,1.6-5.7,4.2
				c-0.3,2.6,1.7,5,4.6,5.2l17.3,1.8c-2.6,1.6-5.1,3.5-7.3,5.8c-1.9,2-1.6,5,0.6,6.7c2.2,1.7,5.5,1.5,7.3-0.5
				c5.9-6.3,16.7-9.1,25.8-9.3c3.6-0.1,6-3.5,4.6-6.5c-0.6-1.4-2-2.5-3.7-2.8c-0.2,0-16.6-3.7-22.8-14.3
				C110.9,281.3,107.7,280.4,105.2,281.7z"/>
			<path class="st54" d="M233.8,312.7c-0.7,6.1-6.4,10.7-13.1,10.7c-38.4,0.1-11.6,0-73.4,0.1c-12.8,0-22.8-10.2-21.4-21.8
				c0.3-2.6,1.1-4.9,2.4-7.1c3.7-6.3,11-10.4,19-10.4c1.6,0,3.2,0.2,4.8,0.5c54.5,11.4,58.7,12.3,62.2,13l4.4,0.9l4.9,1
				c5.3,1.1,9.2,5,10.1,9.7C233.9,310.5,234,311.6,233.8,312.7z"/>
			<path class="st55" d="M233.7,309.4c-2.4,2.9-6.2,4.7-10.4,4.7c-38.4,0.1-11.6,0-73.4,0.1c-12,0-21.5-8.9-21.6-19.6
				c3.7-6.3,11-10.4,19-10.4c0.9,0,1.7,0,2.6,0.1c0.7,0.1,1.5,0.2,2.2,0.4l2.2,0.5c57.5,12,6.2,1.3,60,12.5l4.4,0.9l4.9,1
				C229,300.8,232.9,304.7,233.7,309.4z"/>
			<g>
				<path class="st56" d="M218.8,298.7l-1.7,16c-0.1,1.1-1.1,1.8-2.2,1.8c-0.1,0-0.2,0-0.3,0c-1.2-0.1-2.1-1.1-2-2.3l1.8-16.4
					L218.8,298.7z"/>
				<path class="st56" d="M157.1,310.5l-1.5,13.1l-4.5,0l1.6-13.6c0.1-1.1,1.3-2,2.5-1.8S157.2,309.3,157.1,310.5z"/>
				<path class="st56" d="M198.4,314.7l-1,8.8l-4.5,0l1.1-9.3c0.1-1.1,1.3-1.9,2.5-1.8C197.7,312.5,198.6,313.5,198.4,314.7z"/>
				<path class="st56" d="M180.5,290.7l-0.7,6.9c-0.1,1.1-1.1,1.8-2.2,1.8c-0.1,0-0.2,0-0.3,0c-1.2-0.1-2.1-1.1-2-2.3l0.7-7.4
					L180.5,290.7z"/>
				<path class="st56" d="M171.7,315.1l-1,8.4l-4.5,0l1-8.9c0.1-1.1,1.3-2,2.5-1.8C170.9,313,171.8,314,171.7,315.1z"/>
				<path class="st56" d="M154.3,285.2l-1.6,12.8c-0.1,1.1-1.1,1.8-2.2,1.8c-0.1,0-0.2,0-0.3,0c-1.2-0.1-2.1-1.1-2-2.3l1.6-13.1
					c0,0,0-0.1,0-0.1c0.7,0.1,1.5,0.2,2.2,0.4L154.3,285.2z"/>
			</g>
		</g>
	</g>
</g>
<g id="Capa_10" class="st0">
	<g class="st1">
		<circle class="st9" cx="200.2" cy="490.3" r="50.1"/>
		<text transform="matrix(1 0 0 1 176.8026 516.1873)" class="st10 st11 st12">4</text>
	</g>
	<circle class="st13" cx="200.2" cy="199.3" r="192.8"/>
	<g class="st1">
		<circle class="st57" cx="200.2" cy="199.3" r="144.9"/>
		<g>
			<g>
				<g>
					<path class="st58" d="M142.6,253.2l-10.6,9.4c3.4,3.8,7,7.3,11,10.5l9-10.9C148.6,259.4,145.5,256.4,142.6,253.2z"/>
					<path class="st58" d="M128.7,231.4l-13,5.6c2,4.7,4.4,9.2,7.1,13.5l11.9-7.6C132.5,239.2,130.4,235.3,128.7,231.4z"/>
					<path class="st58" d="M251.2,116.9c-14.5-8.4-31-12.9-47.8-12.9c-47.7,0.1-88.1,35.4-94.4,82.8l-24.2-24.2l-10,10l40.3,40.3
						l40.3-40.3l-10-10l-21.8,21.8c8.3-44,50.7-73,94.8-64.7s73,50.7,64.7,94.8s-50.7,73-94.8,64.7c-9-1.7-17.7-4.9-25.6-9.5
						l-7.1,12.2c45.6,26.4,103.9,10.9,130.3-34.7C312.2,201.6,296.7,143.3,251.2,116.9z"/>
					<polygon class="st58" points="192.8,135.8 192.8,213.5 223.9,236.8 232.3,225.5 206.9,206.4 206.9,135.8 					"/>
				</g>
			</g>
		</g>
	</g>
</g>
<g id="Capa_11" class="st0">
	<g class="st1">
		<circle class="st59" cx="200" cy="275" r="175.3"/>
		<g>
			<g>
				<path class="st60" d="M255.4,314.4c-2.5,0-4.6-2.1-4.6-4.6V278c0-2.5,2.1-4.6,4.6-4.6c2.5,0,4.6,2.1,4.6,4.6v31.8
					C260,312.4,257.9,314.4,255.4,314.4z"/>
				<path class="st61" d="M153.5,383.1h98.4l-7.2-28.6c0-12.3-10-22.3-22.3-22.3h-69V383.1z"/>
				<path class="st5" d="M141.5,332.2h73.3c12.3,0,22.3,10,22.3,22.3v28.6H127.3c-4.5,0-8.1-3.6-8.1-8.1v-20.5
					C119.2,342.2,129.2,332.2,141.5,332.2z"/>
				<path class="st29" d="M204.4,332.2L182.3,352l-22.8-19.8"/>
				<path class="st62" d="M187,303.6l11.4,0v28.6l-11.4,6.4l-5.1,2.9l-16.5-9.3v-28.6L187,303.6z"/>
				<path class="st63" d="M165.4,303.6V323c5.2,1.7,10.7,2.7,16.5,2.7c1.7,0,3.4-0.1,5.1-0.3v13.2l11.4-6.4v-28.6l-11.4,0
					L165.4,303.6z"/>
				<path class="st63" d="M130.1,273.5c-8.6,0-15.6-6.2-15.6-13.9c0-7.7,7-13.9,15.6-13.9h103.6c8.6,0,15.6,6.2,15.6,13.9
					c0,7.7-7,13.9-15.6,13.9"/>
				<path class="st62" d="M233.7,215.2V267c0,14.3-5.8,27.2-15.2,36.6c-9.4,9.4-22.3,15.2-36.6,15.2c-28.6,0-51.8-23.2-51.8-51.8
					v-51.8H233.7z"/>
				<path class="st63" d="M202.1,303.6c5.2-9.4,8.3-22.3,8.3-36.6v-51.8h23.3V267c0,14.3-5.8,27.2-15.2,36.6
					c-9.3,9.3-22.1,15.1-36.3,15.2C190,318.6,197,312.8,202.1,303.6z"/>
				<path class="st64" d="M160.1,263v-7.2c0-1.9,1.5-3.4,3.4-3.4c1.9,0,3.4,1.5,3.4,3.4v7.2c0,1.9-1.5,3.4-3.4,3.4
					C161.6,266.4,160.1,264.9,160.1,263z"/>
				<path class="st64" d="M196.9,263v-7.2c0-1.9,1.5-3.4,3.4-3.4c1.9,0,3.4,1.5,3.4,3.4v7.2c0,1.9-1.5,3.4-3.4,3.4
					C198.4,266.4,196.9,264.9,196.9,263z"/>
				<path class="st63" d="M233.7,215.2v36c-17.9,0-22.6-22.7-22.6-22.7s-7.2,4.1-18.3,7.2c0,0,0,0,0,0c-12.8,3.6-31,5.9-49.8-0.9
					c-5-1.8-9.3-4-12.8-6.6v-13H233.7z"/>
				<path class="st65" d="M166.9,167.6c0,0,13.8,0,13.9,0c0.4,0,0.9-0.1,1.3-0.1c2.3-0.2,4.6-0.4,6.8-0.5c14.5-0.9,27.9,7.7,33,21.3
					c1.8-0.6,3.6-0.8,5.4-0.8c9.5,0,17.8,7.6,18,17.7c0.4,19.5-11.5,40.5-11.5,40.5c-17.9,0-22.6-22.7-22.6-22.7s-7.2,4.1-18.3,7.2
					c0,0,0,0,0,0c-12.8,3.6-31,5.9-49.8-0.9C95.6,212.2,143.3,169.8,166.9,167.6z"/>
				<path class="st66" d="M221.9,188.3c1.8-0.6,3.6-0.8,5.4-0.8c9.5,0,17.8,7.6,18,17.7c0.4,19.5-11.5,40.5-11.5,40.5
					c-17.9,0-22.6-22.7-22.6-22.7s-7.2,4.1-18.3,7.2c26.8-17.6,10.2-63.6-10.7-62.7c2.3-0.2,4.6-0.4,6.8-0.5
					C203.4,166.1,216.8,174.7,221.9,188.3z"/>
				<path class="st60" d="M180.6,167.6c0,0,0.1,0,0.1,0C180.7,167.6,180.7,167.6,180.6,167.6L180.6,167.6z"/>
				<path class="st67" d="M166.8,287.7c-1.3-1.3-1.3-3.5,0-4.9c1.3-1.3,3.5-1.3,4.9,0c5.7,5.7,14.9,5.7,20.6,0
					c1.3-1.3,3.5-1.3,4.9,0c1.3,1.3,1.3,3.5,0,4.9c-4.2,4.2-9.7,6.3-15.1,6.3C176.4,293.9,171,291.8,166.8,287.7z"/>
				<path class="st60" d="M279.7,324.5h-28.8v-28.1c0-3.6,2.9-6.5,6.5-6.5h22.3c3.2,0,5.8,2.6,5.8,5.8v23.1
					C285.4,322,282.8,324.5,279.7,324.5z"/>
				<path class="st62" d="M279.7,324.5h-28.8v-20.7h28.8c3.2,0,5.8,2.6,5.8,5.8v9.1C285.4,322,282.8,324.5,279.7,324.5z"/>
				<path class="st5" d="M273.9,383h-29.2v-58.4h29.2V383z"/>
				<path class="st61" d="M273.9,383h-11.7v-58.4h11.7V383z"/>
			</g>
		</g>
	</g>
</g>
<g id="Capa_12">
	<g>
		<circle class="st59" cx="200" cy="275" r="175.3"/>
		<g>
			<rect x="116.2" y="230.1" class="st68" width="167.3" height="124.3"/>
			<rect x="210.4" y="264.6" class="st37" width="61" height="89.8"/>
			<rect x="216.4" y="270.6" class="st38" width="48.9" height="77.8"/>
			<path class="st5" d="M103.7,217.2v18c0,10.8,8.4,19.3,19.3,19.3s19.3-8.4,19.3-19.3v-18H103.7z"/>
			<path class="st40" d="M142.2,217.2v18c0,10.8,8.4,19.3,19.3,19.3c10.8,0,19.3-8.4,19.3-19.3v-18H142.2z"/>
			<path class="st5" d="M180.7,217.2v18c0,10.8,8.4,19.3,19.3,19.3s19.3-8.4,19.3-19.3v-18H180.7z"/>
			<path class="st40" d="M219.3,217.2v18c0,10.8,8.4,19.3,19.3,19.3c10.8,0,19.3-8.4,19.3-19.3v-18H219.3z"/>
			<path class="st5" d="M257.8,217.2v18c0,10.8,8.4,19.3,19.3,19.3c10.8,0,19.3-8.4,19.3-19.3v-18H257.8z"/>
			<polygon class="st61" points="150.7,178.7 117.8,178.7 103.7,217.2 142.2,217.2 			"/>
			<polygon class="st42" points="183.6,178.7 150.7,178.7 142.2,217.2 180.7,217.2 			"/>
			<polygon class="st61" points="216.4,178.7 183.6,178.7 180.7,217.2 219.3,217.2 			"/>
			<polygon class="st42" points="249.3,178.7 216.4,178.7 219.3,217.2 257.8,217.2 			"/>
			<polygon class="st61" points="282.2,178.7 249.3,178.7 257.8,217.2 296.3,217.2 			"/>
			<rect x="103.7" y="354.4" class="st43" width="192.5" height="16.8"/>
			<g>
				<circle class="st37" cx="224.1" cy="309.5" r="5.2"/>
				<rect x="128.2" y="264.6" class="st37" width="67.8" height="61"/>
			</g>
			<rect x="134.2" y="270.6" class="st38" width="55.8" height="48.9"/>
			<g>
				<path class="st44" d="M163.5,278.2c-0.8-0.8-2.8-0.8-3.6,0l-19.7,19.7c-0.8,0.8-0.8,2.8,0,3.6c0.8,0.8,2.8,0.8,3.6,0l19.7-19.7
					C164.7,280.6,164.7,279,163.5,278.2z"/>
				<path class="st44" d="M167.9,289.8c-0.8-0.8-2.8-0.8-3.6,0l-12.4,12.4c-0.8,0.8-0.8,2.8,0,3.6s2.8,0.8,3.6,0l12.4-12.4
					C169.1,292.2,169.1,290.6,167.9,289.8z"/>
			</g>
		</g>
	</g>
</g>
<g id="Capa_13" class="st0">
	<g class="st1">
		<circle class="st59" cx="200" cy="275" r="175.3"/>
		<g>
			<g>
				<path class="st69" d="M203.2,369.3c-0.3,0-0.6-0.1-0.9-0.2c-1-0.5-1.3-1.7-0.8-2.7l6.1-11.4c0.5-1,1.7-1.3,2.7-0.8
					c1,0.5,1.3,1.7,0.8,2.7l-6.1,11.4C204.6,368.9,203.9,369.3,203.2,369.3z"/>
			</g>
			<g>
				<path class="st70" d="M231.8,255.1c-0.5,0-8.5-1.2-8.5-1.2l-1.2,6.1c0,0,6.2,2.1,6,1.8C228,261.6,231.8,255.1,231.8,255.1z"/>
			</g>
			<g>
				<g>
					<path class="st71" d="M225.1,335.5l-3.5,7.7h22.6l-0.5-0.6c-0.7-2.7-3.3-4.4-6-4l-2.7,0.4c-1.8,0-3.1-1.9-2.4-3.6l0,0H225.1z"
						/>
				</g>
				<g>
					<path class="st72" d="M243.1,346.9h-20.8c-1,0-1.9-0.8-1.9-1.9v-0.2c0-1,0.8-1.9,1.9-1.9h20.8c1,0,1.9,0.8,1.9,1.9v0.2
						C245,346,244.1,346.9,243.1,346.9z"/>
				</g>
			</g>
			<g>
				<g>
					<path class="st71" d="M191.7,360.1l-3,7.5h21.7v-0.3c-0.7-2.7-3.3-4.4-6-4l-2.7,0.4c-1.8,0-3.1-1.9-2.4-3.6l0,0H191.7z"/>
				</g>
				<g>
					<path class="st72" d="M209.7,371.5h-20.8c-1,0-1.9-0.8-1.9-1.9v-0.2c0-1,0.8-1.9,1.9-1.9h20.8c1,0,1.9,0.8,1.9,1.9v0.2
						C211.5,370.7,210.7,371.5,209.7,371.5z"/>
				</g>
			</g>
			<g>
				<path class="st72" d="M241.2,347.8h-20.8c-1,0-1.9-0.8-1.9-1.9v-0.2c0-1,0.8-1.9,1.9-1.9h20.8c1,0,1.9,0.8,1.9,1.9v0.2
					C243.1,346.9,242.3,347.8,241.2,347.8z"/>
			</g>
			<g>
				<g>
					<path class="st73" d="M214.1,343.2l-3.5,7.2h22.1l0,0c-0.7-2.7-3.3-4.4-6-4l-2.7,0.4c-1.8,0-3.1-1.9-2.4-3.6l0,0H214.1z"/>
				</g>
				<g>
					<path d="M220.7,335.5l2.1-42.8l-19.6-1.8l-35.3-15.2l29.5-2.5c0,0,31.3,4.6,35.1,5.4c3.9,0.8,7,4.1,5.8,9.1
						c-1.2,5-3.8,47.8-3.8,47.8L220.7,335.5z"/>
				</g>
			</g>
			<g>
				<g>
					<g>
						<path d="M283.6,303.3c-24.7,0-44.8,19.7-44.8,43.9c0,24.3,20,43.9,44.8,43.9s44.8-19.7,44.8-43.9
							C328.4,323,308.3,303.3,283.6,303.3z"/>
					</g>
					<g>
						<defs>
							
								<ellipse id="SVGID_1_" transform="matrix(0.3229 -0.9464 0.9464 0.3229 -136.5627 503.5569)" cx="283.6" cy="347.2" rx="39.6" ry="39.6"/>
						</defs>
						<use xlink:href="#SVGID_1_"  style="overflow:visible;fill:#FFFFFF;"/>
						<clipPath id="SVGID_2_">
							<use xlink:href="#SVGID_1_"  style="overflow:visible;"/>
						</clipPath>
						<g class="st74">
							<path class="st28" d="M246.8,345.9c0.2-28.8,28.5-38.2,36.8-38.2c7.7,0-5-5.4-5-5.4h-40.8v87h44.4c0,0,0,0,1.4-2.4
								C271,386.8,246.7,375.6,246.8,345.9z"/>
						</g>
					</g>
				</g>
				<g>
					<circle class="st75" cx="283.6" cy="345.8" r="10.2"/>
				</g>
			</g>
			<g>
				<g>
					<g>
						<path d="M139.5,303.3c-24.7,0-44.8,19.7-44.8,43.9c0,24.3,20,43.9,44.8,43.9c24.7,0,44.8-19.7,44.8-43.9
							C184.2,323,164.2,303.3,139.5,303.3z"/>
					</g>
					<g>
						<defs>
							
								<ellipse id="SVGID_3_" transform="matrix(0.314 -0.9494 0.9494 0.314 -233.9865 370.6092)" cx="139.5" cy="347.2" rx="39.6" ry="39.6"/>
						</defs>
						<use xlink:href="#SVGID_3_"  style="overflow:visible;fill:#FFFFFF;"/>
						<clipPath id="SVGID_4_">
							<use xlink:href="#SVGID_3_"  style="overflow:visible;"/>
						</clipPath>
						<g class="st76">
							<path class="st28" d="M102.7,345.9c0.2-28.8,28.5-38.2,36.8-38.2c7.7,0-5-5.4-5-5.4H93.6v87H138c0,0,0,0,1.4-2.4
								C126.8,386.8,102.5,375.6,102.7,345.9z"/>
						</g>
					</g>
				</g>
				<g>
					<circle class="st75" cx="139.5" cy="345.8" r="10.2"/>
				</g>
			</g>
			<g>
				<path class="st69" d="M139.5,349.3c-0.8,0-1.6-0.3-2.3-0.8c-1.5-1.3-1.6-3.5-0.4-4.9l34.2-40l0.8-12.9c0.1-1.9,1.8-3.4,3.7-3.3
					c1.9,0.1,3.4,1.8,3.3,3.7l-1,15.3l-35.8,41.8C141.4,348.9,140.4,349.3,139.5,349.3z"/>
			</g>
			<g>
				<path class="st69" d="M283.6,349.3c-1.3,0-2.5-0.7-3.1-2l-33.5-68.5c-0.8-1.7-0.1-3.8,1.6-4.7c1.7-0.9,3.8-0.1,4.7,1.6
					l33.5,68.5c0.8,1.7,0.1,3.8-1.6,4.7C284.7,349.2,284.2,349.3,283.6,349.3z"/>
			</g>
			<g>
				<path class="st69" d="M209.7,353.8l-38.1-46.9c-1.2-1.5-1-3.7,0.5-4.9c1.5-1.2,3.7-1,4.9,0.5l31.7,39l37.6-65.2v-13.1
					c0-1.9,1.6-3.5,3.5-3.5c1.9,0,3.5,1.6,3.5,3.5v15L209.7,353.8z"/>
			</g>
			<g>
				<path class="st69" d="M171.3,300.2h-58c-1.9,0-3.5-1.6-3.5-3.5c0-1.9,1.6-3.5,3.5-3.5h58c1.9,0,3.5,1.6,3.5,3.5
					C174.8,298.7,173.2,300.2,171.3,300.2z"/>
			</g>
			<g>
				<g>
					<g>
						<rect x="71.6" y="227.2" class="st68" width="85.9" height="66.9"/>
					</g>
				</g>
			</g>
			<g>
				<path class="st75" d="M177.3,356.3l43.4,2.7c6.8,0.4,12.5-5,12.5-11.7l0,0c0-6.8-5.7-12.2-12.5-11.7l-43.4,2.7
					c-4.8,0.3-8.5,4.3-8.5,9l0,0C168.8,352,172.5,356,177.3,356.3z"/>
			</g>
			<g>
				<path class="st69" d="M139.5,349.2c-1.9,0-3.5-1.5-3.5-3.4c0-1.9,1.5-3.4,3.5-3.4l39.2-0.1c0,0,0,0,0,0c1.9,0,3.5,1.5,3.5,3.4
					c0,1.9-1.5,3.4-3.5,3.4L139.5,349.2C139.5,349.2,139.5,349.2,139.5,349.2z"/>
			</g>
			<g>
				<path class="st77" d="M189.5,275l18.1,17.2c3.8,3.6,5.5,8.9,4.5,14l-10.6,54.4h-12.3l5.9-54.7l-20.6-9.3
					c-8.5,0-15.4-6.9-15.4-15.4c0,0,0-5.3,1.5-6.1C161.8,274.1,189.5,275,189.5,275z"/>
			</g>
			<g>
				<path class="st5" d="M205.6,218.1c-1-2.6-3.9-4.1-6.7-4l-21.5,0.6c-1.4,0-2.9,0.2-4.4,0.5c-5.6,1.3-9.6,6.4-9.4,12.1l-4.8,51.9
					c0,0,39.1,1.8,40.2-7.1C200,263.1,207.9,223.8,205.6,218.1z"/>
			</g>
			<g>
				<path d="M172.5,180.1h-40.8c-1.9,0-3.4,1.5-3.4,3.3c0,1.9,1.5,3.3,3.4,3.3h8.4c0.8,0,1.5,0.4,1.9,1.1c0.8,1.4-0.3,3.1-1.7,3.1
					h-2.8c-1.9,0-3.4,1.5-3.4,3.3c0,1.7,1.3,3.1,2.9,3.3h35.5V180.1z"/>
			</g>
			<g>
				<path class="st70" d="M208,184c0.1-5.9-5.1-12.7-12.6-14.7c-7.3-1.9-14.9,1.1-18.9,7.5l-0.7,1.1c-2.6,4.2-3.2,9.2-1.8,13.9
					l5,14.7l0,8.2l0.8,1c3.7,5,11.5,4.2,14.1-1.5l0,0l-0.5-8.4l6.6,0c4.6-0.1,8.3-3.8,8.3-8.5v-0.1l0-6.2L208,184z"/>
			</g>
			<g>
				<path d="M184.9,165L184.9,165c-2.4,0.6-4.3,1.6-6.2,2.9l-2.5,2.3c-3.3,3.5-5.3,8.2-5.3,13.1c0,11.4,6.9,19.8,6.9,19.8l3.1-10.4
					l0.6-5.2l25.7-8.7c-1.1-8-7.9-14.2-16.2-14.2c-0.5,0-0.9,0-1,0C188.5,164.5,186.8,164.6,184.9,165z"/>
			</g>
			<g>
				<path class="st70" d="M181.7,187.6c0,0-0.1,0-0.1,0c-1.9,0-3.4,1.5-3.4,3.4c0,1.9,1.5,3.4,3.4,3.4c0.9,0,1.8-0.4,2.4-1
					C183.3,191.4,182.5,189.5,181.7,187.6z"/>
			</g>
			<g>
				<path class="st10" d="M201.1,196.7c0,2.1-1.7,3.7-3.7,3.7c-2.1,0-3.7-1.7-3.7-3.7"/>
			</g>
			<g>
				<path class="st68" d="M166.7,179.5v17.6c0,4.1,3.3,7.4,7.4,7.4h0c4.1,0,7.4-3.3,7.4-7.4v-8.3c0-7.1,5.5-13,12.6-13.5l8.1-0.5
					c4.4-0.3,8.1,3.2,8.1,7.6v20.5l0,0c1.1,0,2-0.9,2-2v-22.4c0-10.8-8.7-19.5-19.5-19.5h-5.5C176,158.9,166.7,168.1,166.7,179.5z"
					/>
			</g>
			<g>
				<path class="st5" d="M226.6,253.4l-27.2-4.8l-9-13.5l-18.5,3.8c0,0,19.1,20.2,22.2,20.5c1.9,0.2,22,2.8,30.5,3.6
					C225.2,259.8,225.9,256.6,226.6,253.4z"/>
			</g>
			<g>
				<path class="st69" d="M260.1,266.3c-6.6,0-14.4-2.7-17.5-3.8l-9.5,1c-1.9,0.2-3.6-1.2-3.9-3.1c-0.2-1.9,1.2-3.6,3.1-3.9
					l11.2-1.2l0.8,0.3c5.8,2.3,15.8,4.9,18.9,3.2c0.1-0.1,0.2-0.1,0.3-0.2c-0.8-1.3-4-4.1-13.3-9.9l-5.7-0.6
					c-1.9-0.2-3.3-1.9-3.1-3.9c0.2-1.9,1.9-3.3,3.9-3.1l7.2,0.8l0.7,0.4c12,7.3,17.7,11.7,17.5,16.7c0,1.7-0.8,4.1-4.2,5.9
					C264.8,265.9,262.5,266.3,260.1,266.3z"/>
			</g>
			<g>
				<path class="st70" d="M230.8,258.1c3-1.5,5.9,2.1,3.8,5c-2.1,2.9,2.8,1.8,4.3,0.6c1.5-1.2,3.4-6,0-8.5c-3.4-2.5-7.5-1.8-9.8,0.3
					c-2.3,2.1-2,3.8-1.5,5.3c0.6,1.7,1.7,2.2,2.4,1.8C230,262.5,228,259.5,230.8,258.1z"/>
			</g>
			<g>
				<path class="st5" d="M239.2,238.8l-27.2-4.8l-5.9-15l-21.6,5.3c0,0,19.1,20.2,22.2,20.5c1.9,0.2,22,2.8,30.5,3.6
					C237.7,245.2,238.5,242,239.2,238.8z"/>
			</g>
			<g>
				<path class="st70" d="M237.3,247.2l4,0.7c0,0,2.3,1.9,4.9,2.2c2.5,0.3,3.7-0.5,2.7-1.4c-1-0.9-3.5,0-3.9-3.2
					c-0.4-3.3,4.7-3.5,5.5-3.9c0.8-0.4,0.7-1.9-2.5-2.9c-2.7-0.8-5.4-0.1-6.8,2l-2.5-0.1L237.3,247.2z"/>
			</g>
			<g>
				<path class="st78" d="M102.1,257.7c7.5-7.3,17.2-7.6,23.9-0.6c2.4,2.5,3.9,5.4,4.4,8.3c1.3-3.2,2.2-6.3,2.2-8.9
					c0-10-8.1-18-18-18c-10,0-18,8.1-18,18c0,1.7,0.4,3.7,1,5.7L102.1,257.7z"/>
				<path class="st78" d="M120.8,277.4c5.2-5,5.5-11.4,0.9-16.2c-4.6-4.8-11-4.7-16.2,0.3l-5.6,5.4l15.3,15.9L120.8,277.4z"/>
			</g>
		</g>
	</g>
</g>
<g id="Capa_14" class="st0">
	<g class="st1">
		<circle class="st59" cx="200" cy="275" r="175.3"/>
		<g>
			<path class="st3" d="M305.9,367.9c-2.5,1.1-4.3,3-7.5,2.9c-39.7-0.3-79.4-0.3-119.1-0.4c-2.7-1.7-3.3-4.4-3.4-7.3
				c-0.2-9.9-0.3-19.7,0.1-29.6c0.3-6.8,2.7-9.4,9.6-9.5c33.6-0.4,67.2-0.3,100.8-0.1c2.7,0,5.1,0.8,7,2.8
				c5,11.5,7.1,24.1,12.6,35.5C305.9,364.2,305.9,366,305.9,367.9z"/>
			<path class="st3" d="M170.6,370.5c-23,0.1-46,0-69,0.3c-3.2,0-5.1-1.7-7.5-2.9c0-1.9,0-3.8,0-5.6c3.1-4.2,2.9-9.8,5.6-14.2
				c2.4-2.8,5.7-3,9-3c17.8-0.1,35.6-0.2,53.4,0.1c8.9,0.1,11.2,2.5,11.3,11.4C173.3,361.3,174.7,366.5,170.6,370.5z"/>
			<path class="st4" d="M279,281.2c-1.4-4.6-4-7-9.1-6.7c-4.1,0.2-8.2,0.2-12.4,0.1c-1.3,1.6-2.8,3.2-4.4,4.8L233.7,298L211,274.4
				c-10.7,0.1-21.5,0.2-32.2,0.4c-2.7,2.2-2.9,5.2-3,8.3c-0.1,9.2-0.2,18.3,0,27.5c0.2,8.5,2.5,10.8,11.1,10.9
				c31.9,0.3,63.9,0.2,95.8,0c3,0,6.2,0.1,8.2-3C286.9,306.1,282.9,293.7,279,281.2z"/>
			<g>
				<path class="st5" d="M203,223.4c17.4-16.7,39.5-17.4,55-1.4c5.6,5.8,8.9,12.4,10.1,19.2c3.1-7.4,5.1-14.5,5.1-20.5
					c0-22.9-18.7-41.6-41.6-41.6c-22.9,0-41.6,18.7-41.6,41.6c0,4,0.8,8.4,2.2,13L203,223.4z"/>
				<path class="st5" d="M246,269c11.9-11.5,12.7-26.2,2-37.3c-10.7-11.1-25.4-10.9-37.3,0.6l-13,12.5l35.4,36.7L246,269z"/>
			</g>
			<path class="st6" d="M178.7,274.8c0.1,12.2,0.4,24.4,0.1,36.6c-0.1,5.6,1.6,7.2,7.2,7.2c35-0.2,70-0.1,104.9,0
				c1.2,2.6,2.5,5.2,2.4,8.2c-35.2,0.1-70.4,0.3-105.7,0.1c-6.7-0.1-9,1.5-8.6,8.5c0.6,11.7,0.2,23.5,0.2,35.2c-2.9,0-5.8,0-8.6,0
				c0-4.9-0.4-9.9,0.2-14.7c0.7-6.5-2.1-7.7-8-7.6c-21,0.3-42.1,0-63.1-0.1c-0.1-3.1,0.9-5.8,2.6-8.4c2.6-3,6.1-3.1,9.7-3.1
				c15.3-0.1,30.6,0.1,45.9-0.1c8.3-0.1,9.3-1.1,9.4-9.5c0.1-19.8,1.5-18.2-17.6-18.2c-9.2,0-18.3,0.1-27.5-0.1
				c-3.2-0.1-6.8,0.3-8.4-3.7c-0.1-3.3,1.1-6.1,2.6-8.9c3.2-1.8,6.6-2,10.2-2c10.3,0,20.6,0.1,30.8,0c9-0.1,9.6-0.7,9.9-9.5
				c0.1-3.7-0.3-7.6,3.4-10.1C173.4,273.8,176.1,274.2,178.7,274.8z"/>
			<path class="st7" d="M113.8,305.1c16.4,0.2,32.8,0.5,49.2,0.3c5.7-0.1,8.1,1.4,7.7,7.5c-0.4,6.8-0.3,13.6,0,20.4
				c0.2,4.9-1.6,6.5-6.5,6.4c-20.7-0.2-41.3,0-62,0C105.6,328,109.3,316.4,113.8,305.1z"/>
			<path class="st8" d="M170.7,274.7c0,5.8-0.2,11.7,0,17.5c0.1,3.3-1.2,4.7-4.5,4.6c-16.6-0.4-33.2,0.7-49.7-0.6
				c5.9-21.7,5.9-21.7,28.2-21.7C153.3,274.5,162,274.6,170.7,274.7z"/>
		</g>
	</g>
</g>
</svg>
