<?xml version="1.0" encoding="utf-8"?>
<!-- Generator: Adobe Illustrator 24.1.0, SVG Export Plug-In . SVG Version: 6.00 Build 0)  -->
<svg version="1.1" xmlns="http://www.w3.org/2000/svg" xmlns:xlink="http://www.w3.org/1999/xlink" x="0px" y="0px"
	 viewBox="0 0 400 550" style="enable-background:new 0 0 400 550;" xml:space="preserve">
<style type="text/css">
	.st0{fill:#EEF2F2;}
	.st1{fill:#FED459;}
	.st2{fill:#00C4A0;}
	.st3{fill:#E5322A;}
	.st4{fill:#5A7A8B;}
	.st5{fill:#00A2DD;}
	.st6{fill:#FDD459;}
	.st7{fill:#ED3A2E;}
	.st8{fill:#FFFFFF;}
	.st9{font-family:'Montserrat-Bold';}
	.st10{font-size:67.3364px;}
	.st11{display:none;}
	.st12{display:inline;}
	.st13{display:inline;fill:#EEF2F2;}
	.st14{fill:#FEBB00;}
	.st15{fill:#EF8045;}
	.st16{fill:#FEDB48;}
	.st17{fill:#01A6EB;}
	.st18{fill:#02A6EB;}
	.st19{fill:#FEBE8A;}
	.st20{fill:#FED0AE;}
	.st21{fill:#EC2A42;}
	.st22{fill:#395A61;stroke:#395A61;stroke-miterlimit:10;}
</style>
<g id="Capa_1">
	<g>
		<circle class="st0" cx="200.2" cy="199.3" r="192.8"/>
		<g>
			<path class="st1" d="M316.8,280.1c-2.7,1.2-4.8,3.3-8.3,3.2c-43.7-0.3-87.4-0.3-131.1-0.4c-2.9-1.9-3.7-4.8-3.7-8.1
				c-0.2-10.9-0.4-21.7,0.1-32.6c0.3-7.5,3-10.4,10.5-10.5c37-0.4,74-0.3,110.9-0.1c3,0,5.6,0.9,7.7,3c5.6,12.7,7.8,26.6,13.9,39.1
				C316.8,276,316.8,278,316.8,280.1z"/>
			<path class="st1" d="M167.9,283c-25.3,0.1-50.6,0.1-75.9,0.4c-3.5,0-5.6-1.9-8.3-3.2c0-2.1,0-4.1,0-6.2
				c3.4-4.7,3.2-10.8,6.2-15.6c2.6-3.1,6.2-3.3,9.9-3.3c19.6-0.1,39.1-0.2,58.7,0.1c9.8,0.2,12.3,2.7,12.4,12.5
				C170.9,272.8,172.4,278.6,167.9,283z"/>
			<path class="st2" d="M287.1,184.6c-1.6-5.1-4.4-7.7-10.1-7.4c-4.5,0.3-9.1,0.2-13.6,0.1c-1.5,1.8-3,3.5-4.8,5.3l-21.3,20.5
				l-25-26c-11.8,0.1-23.7,0.3-35.5,0.4c-2.9,2.4-3.2,5.7-3.3,9.1c-0.1,10.1-0.3,20.2,0,30.2c0.3,9.3,2.8,11.9,12.2,12
				c35.1,0.3,70.3,0.2,105.4,0c3.3,0,6.8,0.1,9-3.3C295.9,212.1,291.4,198.4,287.1,184.6z"/>
			<g>
				<path class="st3" d="M203.6,121.1c19.1-18.4,43.5-19.2,60.5-1.5c6.1,6.4,9.8,13.6,11.2,21.1c3.4-8.2,5.6-16,5.6-22.5
					c0-25.2-20.5-45.8-45.8-45.8c-25.2,0-45.8,20.5-45.8,45.8c0,4.4,0.9,9.3,2.4,14.4L203.6,121.1z"/>
				<path class="st3" d="M250.9,171.2c13.1-12.6,13.9-28.8,2.2-41c-11.8-12.2-28-12-41.1,0.6l-14.3,13.8l38.9,40.4L250.9,171.2z"/>
			</g>
			<path class="st4" d="M176.9,177.6c0.1,13.4,0.4,26.9,0.1,40.3c-0.2,6.1,1.8,7.9,7.9,7.9c38.5-0.2,77-0.1,115.5,0
				c1.3,2.9,2.8,5.7,2.6,9c-38.8,0.1-77.5,0.4-116.3,0.1c-7.4-0.1-9.9,1.7-9.5,9.3c0.7,12.9,0.2,25.8,0.2,38.8c-3.2,0-6.3,0-9.5,0
				c0-5.4-0.4-10.9,0.2-16.2c0.8-7.2-2.3-8.5-8.8-8.4c-23.1,0.3-46.3,0-69.4-0.1c-0.1-3.4,1-6.4,2.9-9.2c2.9-3.3,6.7-3.4,10.7-3.4
				c16.8-0.1,33.6,0.1,50.5-0.1c9.1-0.1,10.3-1.2,10.3-10.4c0.1-21.8,1.6-20-19.3-20.1c-10.1,0-20.2,0.1-30.3-0.1
				c-3.5-0.1-7.5,0.4-9.2-4c-0.1-3.6,1.2-6.7,2.9-9.8c3.5-2,7.3-2.2,11.2-2.2c11.3,0,22.6,0.1,33.9,0c9.9-0.1,10.5-0.8,10.9-10.4
				c0.2-4.1-0.3-8.4,3.8-11.1C171,176.5,173.9,176.9,176.9,177.6z"/>
			<path class="st5" d="M105.4,211c18.1,0.2,36.1,0.6,54.2,0.4c6.2-0.1,8.9,1.6,8.5,8.2c-0.5,7.5-0.4,15,0,22.5
				c0.3,5.4-1.8,7.1-7.2,7.1c-22.7-0.2-45.4-0.1-68.2,0C96.4,236.2,100.5,223.5,105.4,211z"/>
			<path class="st6" d="M168,177.5c0,6.4-0.2,12.9-0.1,19.3c0.1,3.6-1.4,5.1-5,5.1c-18.2-0.4-36.5,0.8-54.7-0.7
				c6.5-23.9,6.5-23.9,31.1-23.9C148.9,177.3,158.5,177.4,168,177.5z"/>
		</g>
	</g>
	<g>
		<circle class="st7" cx="200.2" cy="490.3" r="50.1"/>
		<text transform="matrix(1 0 0 1 187.7975 516.1873)" class="st8 st9 st10">1</text>
	</g>
</g>
<g id="Capa_2" class="st11">
	<g class="st12">
		<circle class="st7" cx="200.2" cy="490.3" r="50.1"/>
		<text transform="matrix(1 0 0 1 180.1361 516.1873)" class="st8 st9 st10">2</text>
	</g>
	<circle class="st13" cx="200.2" cy="199.3" r="192.8"/>
	<g class="st12">
		<g>
			<path class="st7" d="M261.8,120.9c-2.5-15.9-10.8-28.4-24-37.6c-5.1-3.6-10.6-6.2-16.6-7.8l0,0c0,0,0,0,0,0
				c-1.6-0.6-3.3-0.9-5-1.2c-2.1-0.4-4.2-0.7-6.4-1c-2.6,0-5.2,0-7.8,0c-0.3,0.2-0.6,0.2-1,0.2c-6.2,0.4-12.2,1.9-17.9,4.3
				c-24.3,10.4-38.6,35.8-33.9,61.8c4.1,23.1,17.9,38.2,40.2,45.5c0.9,0.3,1.6,0.7,2.2,1.5c4.1,4.9,8.3,9.8,12.5,14.7
				c1.1,1.3,1.9,1.3,2.9,0.1c3.7-4.3,7.4-8.7,11.1-13.1c0.6-0.7,1.2-1.4,1.8-2.1c0.4-0.5,0.9-0.9,1.6-1.1
				c8.4-2.4,15.9-6.5,22.3-12.5C258.8,158.5,265,141.1,261.8,120.9z M245.2,135.1c-1.3,10.9-6.3,19.8-14.9,26.6
				c-5.5,4.5-11.9,7.1-18.9,8.3c-4.3,0.5-8.7,0.6-13-0.2c-4.9-0.9-9.5-2.7-13.8-5.2c-0.4-0.2-0.8-0.5-1.2-0.5c0,0-0.1-0.1-0.1-0.1
				c-0.5-0.6-1.1-0.9-1.6-1.4c-5.3-4-9.5-8.9-12.3-14.9c-3.4-7.1-4.6-14.6-3.5-22.4c1.5-11.4,6.9-20.4,16.1-27.3
				c2-1.5,4.2-2.5,6.2-3.9c0,0,0.1-0.1,0.1-0.1c0.5,0.2,0.9-0.2,1.4-0.4c7.2-3,14.7-4.1,22.4-2.8c9.9,1.6,18,6.3,24.4,13.9
				C243.6,113.5,246.6,123.7,245.2,135.1z"/>
			<path class="st2" d="M179.9,121.1c4-3.2,7.9-6.4,11.9-9.6c3.5-2.8,7-5.7,10.6-8.6c2.4-2,4-1.9,6.5,0.1c7.3,6,14.7,11.9,22,17.8
				c2.1,1.7,2.2,2.7,0.5,4.7c-0.3,0.4-0.6,0.8-0.9,1.2c-1.4,1.7-2.5,1.8-4.3,0.4c-0.3-0.2-0.6-0.4-0.9-0.6c-0.2,0-0.4-0.1-0.5-0.2
				c-6-4.9-12.1-9.7-18.1-14.6c-0.8-0.6-1.3-0.7-2.1-0.1c-6.2,5.1-12.5,10.2-18.7,15.2c-0.3,0.3-0.7,0.6-1.1,0.9
				c-1.5,1-2.6,0.9-3.8-0.3c-0.7-0.7-1.6-1.2-1.6-2.3C178.2,123.3,178.3,122.7,179.9,121.1z"/>
			<path class="st4" d="M225.2,145.7c1,0.1,1.9-0.1,2.9,0.2c1.2,0.3,1.6,1.1,1.4,2.3c-0.1,1-0.9,1.4-1.8,1.6c-0.3,0.1-0.7,0-1,0
				c-14.2,0-28.5,0-42.7,0c-2.2-0.2-2.8-1.4-1.8-3.5c0.4-0.8,1.1-0.8,1.8-0.8c0.7-0.1,1.4,0,2.1,0c2.7-0.1,5.4-0.1,8.2,0
				c1.5,0,3.1,0,4.6,0c4.5-0.1,9-0.1,13.6,0c3.8-0.1,7.6,0,11.4,0C224.2,145.3,224.8,145.3,225.2,145.7z"/>
			<path class="st1" d="M225.2,145.7c-4.3,0-8.6,0-12.9,0c-0.5-0.7-0.4-1.5-0.5-2.3c-0.5-3.2-3.1-5.6-6.1-5.6
				c-3.3,0-5.9,2.3-6.4,5.6c-0.1,0.8-0.1,1.6-0.5,2.3c-1.5,0-3,0-4.6,0c-0.4-0.4-0.3-0.9-0.3-1.4c0-5.2,0-10.5,0-15.7
				c0-1.5,0.5-2.6,1.6-3.5c2.8-2.4,5.7-4.7,8.6-7c1.1-0.9,2.1-0.7,3.4,0.3c4.9,3.9,9.8,7.9,14.7,11.9c0.7,0.6,1.4,1.3,2.4,1.8
				c0.1-1.4,0-2.7,0.1-4c0-0.6-0.1-1.2,0.3-1.7c0.1,0.1,0.2,0.1,0.3,0.2C225.2,132.9,225.2,139.3,225.2,145.7z"/>
			<path class="st14" d="M224.9,126.3c0,1.8,0,3.5,0,5.3c0,0.3,0.2,0.6-0.1,0.8c-0.3,0.2-0.5-0.1-0.8-0.3c-2.1-1.6-4.1-3.3-6.2-4.9
				c-3.7-3-7.3-6-11-8.9c-0.9-0.7-1.9-0.7-2.8,0c-2.7,2.2-5.4,4.4-8.1,6.5c-1.3,1-1.9,2.3-1.9,4c0.1,5.6,0,11.2,0,16.9
				c-2.8,0-5.5,0-8.3,0c0-5.9,0-11.8,0-17.7c0-0.5,0.2-1-0.2-1.4c6.4-5.2,12.9-10.4,19.3-15.7c0.4-0.4,0.7-0.4,1.2,0
				c6.2,5,12.3,10,18.5,15C224.7,126,224.8,126.2,224.9,126.3z"/>
			<path class="st15" d="M198.8,145.7c-0.1-2.9,0.6-5.6,3.3-7.2c4.3-2.6,9.6,0.3,10,4.9c0.1,0.8,0.3,1.6,0.2,2.4
				C207.8,145.7,203.3,145.7,198.8,145.7z"/>
			<path class="st14" d="M205.5,124.1c2.1,0,4.2,0,6.3,0c1.4,0,2.2,0.7,2.3,1.8c0.1,1.4-0.7,2.2-2.1,2.2c-4.3,0-8.6,0-12.8,0
				c-1.5,0-2.2-0.8-2.1-2.2c0-1.1,0.9-1.8,2.3-1.8C201.3,124.1,203.4,124.1,205.5,124.1z"/>
		</g>
		<g>
			<path class="st0" d="M297,217.8c0-19.5-15.8-36.4-35.4-36.4s-35.4,16.9-35.4,36.4s36.3,48.4,36.3,48.4S297,237.3,297,217.8z"/>
			<g>
				<path class="st1" d="M243.1,218.1c11.3-10.9,25.7-11.3,35.8-0.9c3.6,3.8,5.8,8,6.6,12.5c2-4.8,3.3-9.4,3.3-13.3
					c0-14.9-12.1-27.1-27.1-27.1c-14.9,0-27.1,12.1-27.1,27.1c0,2.6,0.5,5.5,1.4,8.5L243.1,218.1z"/>
				<path class="st1" d="M271.1,247.8c7.8-7.5,8.2-17.1,1.3-24.3c-7-7.2-16.5-7.1-24.3,0.4l-8.5,8.2l23,23.9L271.1,247.8z"/>
			</g>
		</g>
		<g>
			<path class="st0" d="M224.3,257c0-27.6-22.4-51.6-50-51.6s-50,23.9-50,51.6c0,27.6,51.3,68.5,51.3,68.5S224.3,284.6,224.3,257z"
				/>
			<g>
				<path class="st5" d="M147.9,257.5c16-15.4,36.4-16.1,50.7-1.3c5.1,5.3,8.2,11.4,9.3,17.7c2.8-6.8,4.7-13.4,4.7-18.9
					c0-21.1-17.2-38.3-38.3-38.3c-21.1,0-38.3,17.2-38.3,38.3c0,3.7,0.7,7.8,2,12L147.9,257.5z"/>
				<path class="st5" d="M187.5,299.5c11-10.6,11.7-24.1,1.8-34.3c-9.8-10.2-23.4-10.1-34.4,0.5l-12,11.5l32.6,33.8L187.5,299.5z"/>
			</g>
		</g>
		<g>
			<path class="st0" d="M150.9,179.1c0-24.7-20-46.2-44.8-46.2s-44.8,21.4-44.8,46.2s45.9,61.3,45.9,61.3S150.9,203.8,150.9,179.1z"
				/>
			<g>
				<path class="st3" d="M82.5,179.5c14.3-13.8,32.6-14.4,45.3-1.1c4.6,4.8,7.4,10.2,8.4,15.8c2.5-6.1,4.2-11.9,4.2-16.9
					c0-18.9-15.4-34.3-34.3-34.3c-18.9,0-34.3,15.4-34.3,34.3c0,3.3,0.7,6.9,1.8,10.7L82.5,179.5z"/>
				<path class="st3" d="M118,217.1c9.8-9.5,10.4-21.6,1.6-30.7c-8.8-9.1-20.9-9-30.8,0.5l-10.7,10.3l29.1,30.3L118,217.1z"/>
			</g>
		</g>
		<g>
			<path class="st0" d="M339.1,175.7c0-18.9-15.3-35.3-34.3-35.3s-34.3,16.4-34.3,35.3s35.2,46.9,35.2,46.9S339.1,194.6,339.1,175.7
				z"/>
			<g>
				<path class="st2" d="M286.8,176.1c11-10.6,24.9-11,34.7-0.9c3.5,3.6,5.6,7.8,6.4,12.1c1.9-4.7,3.2-9.1,3.2-12.9
					c0-14.5-11.8-26.2-26.2-26.2c-14.5,0-26.2,11.8-26.2,26.2c0,2.5,0.5,5.3,1.4,8.2L286.8,176.1z"/>
				<path class="st2" d="M313.9,204.8c7.5-7.3,8-16.5,1.2-23.5c-6.7-7-16-6.9-23.6,0.4l-8.2,7.9l22.3,23.2L313.9,204.8z"/>
			</g>
		</g>
	</g>
</g>
<g id="Capa_3" class="st11">
	<g class="st12">
		<circle class="st7" cx="200.2" cy="490.3" r="50.1"/>
		<text transform="matrix(1 0 0 1 180.1022 516.1873)" class="st8 st9 st10">3</text>
	</g>
	<circle class="st13" cx="200.2" cy="199.3" r="192.8"/>
	<g class="st12">
		<g>
			<g>
				<path class="st0" d="M150.4,187.5c0-27.6-22.4-51.6-50-51.6s-50,23.9-50,51.6s51.3,68.5,51.3,68.5S150.4,215.2,150.4,187.5z"/>
				<g>
					<path class="st5" d="M74,188c16-15.4,36.4-16.1,50.7-1.3c5.1,5.3,8.2,11.4,9.3,17.7c2.8-6.8,4.7-13.4,4.7-18.9
						c0-21.1-17.2-38.3-38.3-38.3c-21.1,0-38.3,17.2-38.3,38.3c0,3.7,0.7,7.8,2,12L74,188z"/>
					<path class="st5" d="M113.6,230c11-10.6,11.7-24.1,1.8-34.3c-9.8-10.2-23.4-10.1-34.4,0.5l-12,11.5l32.6,33.8L113.6,230z"/>
				</g>
			</g>
			<g>
				<path class="st0" d="M350.2,187.5c0-27.6-22.4-51.6-50-51.6s-50,23.9-50,51.6s51.3,68.5,51.3,68.5S350.2,215.2,350.2,187.5z"/>
				<g>
					<path class="st5" d="M273.8,188c16-15.4,36.4-16.1,50.7-1.3c5.1,5.3,8.2,11.4,9.3,17.7c2.8-6.8,4.7-13.4,4.7-18.9
						c0-21.1-17.2-38.3-38.3-38.3c-21.1,0-38.3,17.2-38.3,38.3c0,3.7,0.7,7.8,2,12L273.8,188z"/>
					<path class="st5" d="M313.4,230c11-10.6,11.7-24.1,1.8-34.3c-9.8-10.2-23.4-10.1-34.4,0.5l-12,11.5l32.6,33.8L313.4,230z"/>
				</g>
			</g>
		</g>
		<path class="st0" d="M200.2,85.3c-51.3,0-93,41.7-93,93c0,8.6,1.6,18.3,4.8,28.8c0,0,6.4,16,9.6,20.7c14.3,21.2,70,74.5,70,74.5
			l10.8,11.2l11.2-10.8l24.2-23.3c10.1-9.8,0,0,0,0s35.6-41.3,44.8-56.9c9.4-16,10.6-31.6,10.6-44.1
			C293.3,127,251.5,85.3,200.2,85.3z"/>
		<g>
			<path class="st3" d="M147,183.2c32.3-31.1,73.6-32.5,102.4-2.6c10.4,10.8,16.6,23,18.9,35.7c5.7-13.8,9.4-27,9.4-38.1
				c0-42.7-34.7-77.4-77.4-77.4c-42.7,0-77.4,34.7-77.4,77.4c0,7.5,1.5,15.7,4.1,24.3L147,183.2z"/>
			<path class="st3" d="M227,268.1c22.2-21.4,23.6-48.8,3.7-69.4c-19.9-20.6-47.3-20.3-69.5,1.1L137,223l65.8,68.3L227,268.1z"/>
		</g>
		<g>
			<path class="st7" d="M315.2,290.2c-0.2,2.3-1.3,4.2-3.4,5.3c-2.2,1.1-4.3,0.8-6.3-0.5c-0.6-0.4-1.1-1-1.6-1.5
				c-10.5-10.5-21-21.1-31.6-31.6c-1.4-1.4-1.3-2,0.2-3.1c2.2-1.7,4.2-3.8,5.9-6c0.8-1,1.2-0.9,2,0c10.9,11,21.9,21.9,32.8,32.9
				C314.5,286.9,315.2,288.4,315.2,290.2z"/>
			<path class="st7" d="M290,224.3c-0.1,26.9-22.1,48.9-49,48.8c-27,0-49.1-22.3-48.9-49.1c0.2-27,22.3-48.9,49.1-48.7
				C268.1,175.4,290.1,197.4,290,224.3z M280.2,224.2c0.1-21.5-17.5-39.2-39-39.2c-21.5-0.1-39.2,17.5-39.2,39.1
				c-0.1,21.5,17.5,39.2,39.1,39.2C262.5,263.4,280.1,245.8,280.2,224.2z"/>
			<path class="st1" d="M240.8,264c-22-0.1-40-18.1-40-40.1c0.1-22,18.2-40,40.1-40c22,0.1,40,18.1,39.9,40.1
				C280.9,246.1,262.8,264.1,240.8,264z M267.4,223.4c-0.5-13-10.1-24.4-24.3-25.7c-4.3-0.4-7.4,1.4-7.9,5c-0.5,3.5,2.1,6.2,6.6,6.6
				c7.2,0.8,12.4,5.3,13.7,12.1c0.2,1.1,0.2,2.2,0.4,3.2c0.6,3.3,3.4,5.6,6.4,5.2C265.3,229.4,267.5,226.8,267.4,223.4z"/>
			<path class="st14" d="M267.4,223.4c0,3.4-2.1,6-5.2,6.4c-3,0.4-5.8-1.8-6.4-5.2c-0.2-1.1-0.2-2.2-0.4-3.2
				c-1.3-6.8-6.5-11.3-13.7-12.1c-4.4-0.5-7.1-3.1-6.6-6.6c0.5-3.6,3.6-5.5,7.9-5C257.4,199.1,266.9,210.4,267.4,223.4z"/>
		</g>
	</g>
</g>
<g id="Capa_4" class="st11">
	<g class="st12">
		<circle class="st7" cx="200.2" cy="490.3" r="50.1"/>
		<text transform="matrix(1 0 0 1 176.8026 516.1873)" class="st8 st9 st10">4</text>
	</g>
	<circle class="st13" cx="200" cy="199.3" r="192.8"/>
	<g class="st12">
		<g>
			<path class="st16" d="M139.8,273c1,1.3,2.4,2.2,3.7,3.2c1.5,1.2,3,0.8,4.4-0.4c5.5-4.3,10.4-9.2,15.3-14.1c0.5-0.5,1-0.9,1.5-1.4
				c4.1,1.3,8.2,2.6,11.7,5.3c1.9,1.5,3.5,3.1,4.4,5.4c-1,2.4-2.8,4.1-4.9,5.5c-5.1,3.4-10.9,5.1-16.9,6.1
				c-13.3,2.2-26.4,1.7-39.1-3.4c-3.4-1.4-6.6-3.1-8.9-6.2c-0.4-0.6-0.9-1.2-0.9-2c1.7-4.1,5.2-6.2,8.9-8c2.3-1.1,4.7-1.9,7.1-2.8
				C130.7,264.5,135,269,139.8,273z"/>
			<path class="st14" d="M110.2,270.9c5.1,7.2,12.9,9.2,20.9,11c6.2,1.3,12.5,1.6,18.7,1.2c9.1-0.5,17.9-2.1,25.8-7.1
				c2.1-1.3,3.4-3.4,5.2-5c1.6,4.7,0.1,8.9-4.5,12.2c-5.1,3.7-10.9,5.3-16.9,6.4c-13,2.3-25.8,1.7-38.3-2.9
				c-3.7-1.4-7.2-3.3-9.6-6.5C109.4,277.4,108.6,274.3,110.2,270.9z"/>
			<path class="st16" d="M278.5,171.4c2.5,1.1,5.2,1.9,7.4,3.6c1.5,1.1,3,2.3,3.8,4.1c-1.2,3.3-4.1,4.7-7,6
				c-3.8,1.8-7.9,2.7-12.1,3.3c-8.8,1.2-17.4,0.6-25.8-2.1c-2.6-0.8-5-1.9-7.2-3.6c-1.2-1-2.4-2-2.8-3.6c1.9-3.7,5.4-5.4,9.1-6.9
				c0.7-0.3,1.5-0.6,2.2-0.8C249.6,175,275,175,278.5,171.4z"/>
			<path class="st14" d="M234.9,179.1c4.7,6.6,11.2,8.5,18.1,9.8c4,0.7,8,1.2,12.1,0.9c7.4-0.7,14.7-1.7,21.1-6.7
				c1.4-1.1,2.3-2.7,3.6-4c2,4.3,0.9,9-3,12.4c-4.3,3.7-9.3,5.3-14.4,6.2c-7.9,1.5-15.9,1.3-23.7-0.9c-3.9-1.1-7.8-2.6-11-5.6
				C234,187.9,233,183.4,234.9,179.1z"/>
			<path class="st17" d="M205.4,194c-2,0-3.5-2.3-2.6-4.2c0.9-1.8,2.2-3.3,3.8-4.4c1.8-1.2,4.3,0,4.6,2.2
				C211.4,189.6,207.4,194,205.4,194z"/>
			<path class="st17" d="M207.8,213.7c1.6,0,5.7,3.3,6.1,4.7c0.3,1.2,0,2.3-1,3.1c-0.9,0.8-2.1,1-3.2,0.4c-1.6-0.8-3-1.9-4.1-3.2
				c-0.8-0.9-1-2-0.4-3.2C205.7,214.3,206.7,213.8,207.8,213.7z"/>
			<path class="st18" d="M298.1,259.8c-1.7,0-3.3-1.6-3-3.4c0.3-1.6,0.8-3.3,1.4-4.9c0.6-1.4,1.8-2,3.3-1.6c1.5,0.4,2.4,1.4,2.3,2.9
				c-0.1,1.9-0.7,3.7-1.5,5.4C300.2,259.3,299.2,259.7,298.1,259.8z"/>
			<path class="st17" d="M275.4,270.8c0.4,0,0.8-0.1,1.2-0.1c2-0.1,3.5,1,3.7,2.7c0.2,1.7-1,3.1-3,3.3c-1.3,0.2-2.6,0.3-3.8,0.3
				c-1.9,0-3.2-1.4-3.2-3c0-1.6,1.3-2.9,3.2-3.1C274.1,270.9,274.7,270.9,275.4,270.8C275.4,270.9,275.4,270.9,275.4,270.8z"/>
			<path class="st18" d="M221.9,179.7c1.1,0,2.4,0.1,3.3,1.2c1.1,1.3,1,3.6-0.5,4.2c-2.3,1-4.8,1.3-7.2,0.4c-1.2-0.5-1.7-1.7-1.5-3
				c0.3-1.4,1.1-2.3,2.6-2.5C219.6,179.8,220.7,179.8,221.9,179.7z"/>
			<path class="st18" d="M224.8,219.2c0.5,0,0.9,0,1.4,0c2,0.1,3.4,1.3,3.4,3c0,1.6-1.2,2.9-3.1,3.1c-1.4,0.1-2.8,0.1-4.2-0.1
				c-1.8-0.2-2.9-1.7-2.7-3.2c0.3-1.7,1.2-2.7,3-2.7C223.3,219.2,224,219.3,224.8,219.2C224.8,219.3,224.8,219.3,224.8,219.2z"/>
			<path class="st18" d="M273,225.3c-1,0-2,0.1-3-0.3c-1.5-0.5-2.2-1.6-2.1-3.1c0.1-1.5,1-2.5,2.6-2.7c1.4-0.1,2.8-0.1,4.2-0.1
				c1.9,0.1,3.2,1.3,3.2,3c0,1.7-1.2,2.9-3.1,3.1C274.2,225.4,273.6,225.3,273,225.3z"/>
			<path class="st17" d="M226.5,277.3c-0.6-0.1-1.6-0.1-2.5-0.3c-1.4-0.4-2.1-1.5-2.1-2.9c0.1-1.4,0.8-2.5,2.2-2.7
				c1.7-0.3,3.5-0.4,5.2-0.1c1.6,0.3,2.5,1.3,2.5,2.9c0,1.7-1,2.8-2.7,3C228.4,277.2,227.6,277.2,226.5,277.3z"/>
			<path class="st17" d="M243,277c-0.8,0-1.6,0.1-2.4,0c-1.5-0.2-2.4-1.1-2.5-2.7c-0.1-1.5,0.6-2.7,2.1-3c1.8-0.5,3.7-0.5,5.6-0.1
				c1.6,0.4,2.4,1.6,2.2,3.1c-0.1,1.6-1.1,2.6-2.8,2.7C244.5,277.1,243.8,277.1,243,277C243,277,243,277,243,277z"/>
			<path class="st17" d="M292.7,227.6c-0.1,2.3-2.1,3.8-4,3c-1.7-0.7-3.3-1.8-4.6-3.2c-0.9-1-0.9-2.2-0.3-3.4
				c0.6-1.1,1.7-1.7,2.9-1.4c2.3,0.6,4.1,2,5.6,3.7C292.6,226.7,292.6,227.3,292.7,227.6z"/>
			<path class="st17" d="M259.1,277c-0.7,0-1.4,0-2,0c-1.6-0.1-2.6-1-2.8-2.6c-0.2-1.6,0.6-2.8,2.2-3.2c1.8-0.5,3.8-0.4,5.6,0
				c1.6,0.4,2.3,1.6,2.1,3.2c-0.2,1.5-1.1,2.4-2.6,2.6C260.7,277.1,259.9,277,259.1,277C259.1,277,259.1,277,259.1,277z"/>
			<path class="st17" d="M194.8,271.3c0.7,0,1.4,0,2,0c1.7,0.1,2.8,1.2,2.9,2.8c0.1,1.7-0.9,2.9-2.6,3.1c-1.5,0.2-3.1,0.2-4.6,0.1
				c-1.8-0.2-2.8-1.5-2.8-3.1c0.1-1.6,1.2-2.7,3.1-2.9C193.5,271.3,194.2,271.3,194.8,271.3C194.8,271.3,194.8,271.3,194.8,271.3z"
				/>
			<path class="st17" d="M198.8,203.9c-0.1-3,1-4.5,2.9-4.6c1.9-0.1,2.9,1.1,3.2,3.6c0.1,1.1,0.3,2.1,0.3,3.2c0,1.7-0.9,2.8-2.6,3.1
				c-1.6,0.3-3-0.8-3.4-2.5C198.9,205.7,198.9,204.5,198.8,203.9z"/>
			<path class="st17" d="M240.6,219.3c0.8,0,1.6-0.1,2.4,0c1.6,0.2,2.4,1.2,2.6,2.7c0.1,1.5-0.6,2.6-2.1,3.1
				c-1.8,0.5-3.6,0.4-5.4,0.1c-1.7-0.3-2.6-1.4-2.5-3.2c0.1-1.7,1.2-2.6,2.9-2.7C239.3,219.2,240,219.3,240.6,219.3
				C240.6,219.3,240.6,219.3,240.6,219.3z"/>
			<path class="st17" d="M256.9,219.3c0.7,0,1.5-0.1,2.2,0c1.5,0.2,2.4,1.1,2.6,2.6c0.2,1.6-0.6,2.8-2.2,3.2c-1.8,0.4-3.7,0.4-5.6,0
				c-1.6-0.4-2.3-1.6-2.1-3.2c0.2-1.5,1.1-2.4,2.6-2.6C255.3,219.2,256.1,219.3,256.9,219.3z"/>
			<path class="st17" d="M297.1,234.2c1.9,0,2.7,1.2,3.2,2.8c0.6,2,2.3,4.1,0.2,6.2c-1.4,1.4-3.7,1-4.6-0.8c-0.7-1.4-1.3-3-1.7-4.5
				C293.8,235.9,295.2,234.3,297.1,234.2z"/>
			<path class="st17" d="M294.6,266.9c0,1-0.5,1.7-1.1,2.3c-1,0.9-2,1.8-3.1,2.5c-1.4,1-3.1,0.8-4.2-0.5c-1-1.2-0.9-3,0.4-4.2
				c1.1-1,2.3-1.9,3.5-2.8c1-0.7,2-0.7,3.1-0.1C294,264.8,294.6,265.7,294.6,266.9z"/>
			<path class="st17" d="M210.9,271.3c0.7,0,1.4,0,2,0c1.6,0.1,2.7,1,2.9,2.6c0.2,1.7-0.6,2.9-2.3,3.3c-1.7,0.4-3.5,0.4-5.2,0
				c-1.6-0.3-2.5-1.4-2.4-3c0.1-1.7,1.1-2.7,2.8-2.9C209.4,271.2,210.2,271.3,210.9,271.3C210.9,271.3,210.9,271.3,210.9,271.3z"/>
			<g>
				<path class="st3" d="M112.2,203.6c19.2-18.5,43.7-19.3,60.8-1.5c6.2,6.4,9.9,13.6,11.2,21.2c3.4-8.2,5.6-16,5.6-22.6
					c0-25.3-20.6-45.9-45.9-45.9c-25.3,0-45.9,20.6-45.9,45.9c0,4.4,0.9,9.3,2.4,14.4L112.2,203.6z"/>
				<path class="st3" d="M159.7,253.9c13.2-12.7,14-28.9,2.2-41.2c-11.8-12.3-28.1-12.1-41.2,0.6l-14.4,13.8l39.1,40.5L159.7,253.9z
					"/>
			</g>
			<ellipse class="st16" cx="262.3" cy="181" rx="27.4" ry="12.2"/>
		</g>
		<g>
			<circle class="st3" cx="262.3" cy="145.8" r="38"/>
			<g>
				<g>
					<g>
						<path class="st8" d="M283.8,142.9c-0.1-1-0.5-1.9-1.3-2.6l-3.7-3.2V128c0-0.7-0.6-1.3-1.3-1.3h-5c-0.7,0-1.2,0.6-1.2,1.3v2.6
							l-6.4-5.4c-1.4-1.2-3.5-1.2-4.9,0l-17.8,15.1c-1.6,1.4-1.8,3.7-0.4,5.3c1,1.2,2.7,1.6,4.1,1.1V166c0,0.7,0.5,1.3,1.2,1.3h30.4
							c0.7,0,1.3-0.6,1.3-1.3v-19.3c1.5,0.5,3.1,0.1,4.1-1.1C283.6,144.9,283.9,143.9,283.8,142.9z M273.8,129.3h2.5v5.6l-2.5-2.2
							V129.3z M267.5,164.8h-10.3v-10.1h10.3V164.8z M276.3,164.8H270v-11.4c0-0.7-0.6-1.3-1.3-1.3h-12.8c-0.7,0-1.2,0.6-1.2,1.3
							v11.4h-6.3v-19.9l14-11.9l13.9,11.9L276.3,164.8L276.3,164.8z M281,144c-0.4,0.5-1.2,0.6-1.8,0.1l-16-13.7
							c-0.5-0.4-1.2-0.4-1.6,0c-0.3,0.3-16.1,13.7-16.2,13.7c-0.5,0.5-1.3,0.4-1.8-0.1c-0.5-0.5-0.4-1.3,0.1-1.8l17.8-15.1
							c0.5-0.4,1.2-0.4,1.6,0l17.7,15.1C281.4,142.7,281.5,143.5,281,144z"/>
					</g>
				</g>
				<g>
					<g>
						<path class="st8" d="M266.2,140.7h-7.7c-0.7,0-1.2,0.6-1.2,1.3v7.6c0,0.7,0.5,1.3,1.2,1.3h7.7c0.7,0,1.3-0.6,1.3-1.3V142
							C267.4,141.3,266.9,140.7,266.2,140.7z M264.9,148.3h-5.2v-5h5.2V148.3z"/>
					</g>
				</g>
				<g>
					<g>
						<circle class="st8" cx="262.3" cy="145.8" r="1.3"/>
					</g>
				</g>
			</g>
		</g>
	</g>
</g>
<g id="Capa_5" class="st11">
	<g class="st12">
		<circle class="st7" cx="200.2" cy="490.3" r="50.1"/>
		<text transform="matrix(1 0 0 1 179.9676 516.1873)" class="st8 st9 st10">5</text>
	</g>
	<circle class="st13" cx="200" cy="199.3" r="192.8"/>
	<g class="st12">
		<path class="st17" d="M197.9,104.4c1.1,0,2.2,0,3.3,0c8.2,0.6,13.9,5.3,18,11.9c5.4,8.7,4.1,20.6-2.8,28.2c-0.5,0.5-0.9,1-1.3,1.6
			c-3.9,3.7-8.4,6.1-13.7,6.8c-1.3,0.2-2.8,0.7-3.9-0.8c-0.3-0.8-0.2-1.7-0.2-2.6c0-14.1,0-28.1,0-42.2
			C197.4,106.4,197.2,105.3,197.9,104.4z"/>
		<path class="st7" d="M138.6,104.4c1.1,0,2.2,0,3.3,0c8.1,0.6,13.8,5.2,17.9,11.8c5.5,8.8,4.2,20.8-2.8,28.5
			c-0.4,0.5-0.8,0.9-1.2,1.4c-3.9,3.8-8.6,6-13.9,6.8c-1.1,0.2-2.3,0.4-3.4-0.3c-0.1-0.2-0.2-0.4-0.3-0.6c-0.2-0.9-0.2-1.7-0.2-2.6
			c0-13.9,0-27.9,0-41.8C138,106.5,137.8,105.4,138.6,104.4z"/>
		<path class="st7" d="M260.6,104.4c3.1,0.9,6.2,1.7,9.1,3.4c13.1,7.8,15.7,25.8,5.3,37c-0.2,0.2-0.4,0.5-0.6,0.7
			c-1.4,2.6-3.8,3.8-6.2,5c-2.6,1.4-5.4,2.1-8.3,2.5c-1.1,0.1-2.3,0.4-3-0.9c-0.3-0.8-0.2-1.7-0.2-2.6c0-14.1,0-28.1,0-42.2
			c0-1-0.2-2.1,0.6-3C258.4,104.4,259.5,104.4,260.6,104.4z"/>
		<path class="st7" d="M257.3,104.4c0,16,0,32.1,0,48.1c-0.1,0.1-0.1,0.2-0.2,0.2c-0.9,0.5-1.9,0.3-2.9,0.2
			c-5.5-0.9-10.4-3.1-14.3-7.1c-8.7-9-9.8-21.5-2.6-31.6c4-5.6,9.4-9.4,16.6-9.7c0.1,0,0.2-0.1,0.3-0.2
			C255.3,104.4,256.3,104.4,257.3,104.4z"/>
		<path class="st17" d="M180.9,145.9c-0.2-1.2-1.2-1.6-1.9-2.4c-7.4-9.3-6.7-23.1,1.6-31.5c3.9-4,8.4-6.5,14-7.2
			c0.2,0,0.3-0.2,0.4-0.3c1,0,2,0,3,0c0,16.1,0,32.1,0,48.2c-0.1,0.1-0.1,0.1-0.2,0.2c-2.6,0.7-5-0.1-7.3-0.9
			C186.8,150.6,183.4,149,180.9,145.9z"/>
		<path class="st7" d="M138.6,104.4c0,16,0,32.1,0,48.1c-0.5,0.6-1.2,0.6-1.9,0.5c-5.1-0.5-9.7-2.2-13.6-5.5
			c-0.6-0.5-1.2-0.9-1.3-1.7c-5.1-5.1-7.7-11.3-7.3-18.5c0.5-11.4,9.2-20.9,20.1-22.6c0.4-0.1,0.7,0,1-0.4
			C136.7,104.4,137.6,104.4,138.6,104.4z"/>
		<path class="st19" d="M210.6,193.4c0,6,0,12.1,0,18.1c1.2-3.1,3-5.6,5.8-7.4c2.8-1.8,5.9-2.3,9-1.6c6.5,1.4,9.7,5.7,10.1,13.1
			c4-7.7,8.9-10.7,14.8-9.5c6.2,1.3,9.8,5.8,10.4,13.2c0.7-2.1,1.5-3.8,2.7-5.2c3.3-3.6,7.3-5.1,12.1-4.1c5.2,1.1,8.3,4.4,9.6,9.4
			c0.2,0.8,0.2,1.7,0.2,2.6c0,15.2,0,30.4,0,45.6c0,10.1-7,21-17.9,24.9c-3.3,1.2-6.6,1.8-10.1,1.8c-19,0-37.9,0-56.9,0
			c-0.9,0-1.9,0.3-2.7-0.3c-0.8-1-0.6-2.2-0.6-3.4c0-17.8,0-35.7,0-53.5c0-20.7,0-41.5,0-62.2c0-1.1-0.1-2.2,0.3-3.3
			c0.9-1.2,2.1-0.9,3.2-0.6c5.4,1.1,9.6,5.8,10.2,11.4c0.3,3.2,0.1,6.5,0.1,9.8C211,192.5,210.9,193,210.6,193.4z"/>
		<path class="st20" d="M197.9,171.2c0,40.9,0,81.8,0,122.7c-7.7-0.6-14.4-3.6-20.3-8.4c-7.1-5.7-11.6-13.1-13.5-22
			c-1.2-5.6-1.4-11.3-0.6-17c0.6-4.1,3-7.1,6.6-9c1.3-0.7,2.8-1.4,4.1-2c0.7,0.7,0.5,1.6,0.5,2.5c0,4.1,0,8.1,0,12.2
			c0,0.9,0,1.9,0.3,2.8c0.7,2.4,3,4,5.3,3.8c2.6-0.3,4.3-2.2,4.4-4.9c0.1-3.7,0-7.4,0-11.1c0-2.8,0-5.6,0-8.3c0-0.9,0-1.7,0.6-2.5
			c0-12.1,0-24.2,0-36.3c-0.2-0.3-0.4-0.6-0.4-1c0-4-0.6-8,0.5-11.9c1.4-5.2,4.9-8.3,10.2-9.6c0.7-0.2,1.5-0.3,2.2,0.1
			C197.8,171,197.9,171.1,197.9,171.2z"/>
		<path class="st19" d="M185.3,229.7c0,7.2,0,14.4,0,21.6c0,3.5-2.2,5.8-5.5,5.8c-2.9,0-5.6-2.6-5.6-5.7c0-5.4,0-10.7,0-16.1
			C177.9,233.5,181.6,231.6,185.3,229.7z"/>
		<g>
			<path class="st0" d="M212.4,120.8c-0.1,0.5-0.4,0.9-0.8,1.3c-5.5,5.4-10.9,10.9-16.4,16.3c-0.6,0.6-1.2,0.7-1.8,0.3
				c-0.1-0.1-0.3-0.2-0.4-0.3c-2.7-2.7-5.3-5.3-8-8c-0.9-0.9-0.9-2.2,0-3.2c0.3-0.3,0.6-0.6,0.9-0.9c0.9-0.9,2.2-0.9,3.2,0
				c1.1,1.1,2.1,2.1,3.2,3.2c0.5,0.5,1.1,1,1.6,1.6c0.2,0.2,0.3,0.2,0.5,0c4.4-4.4,8.7-8.7,13.1-13.1c0.2-0.2,0.3-0.3,0.5-0.5
				c0.9-0.7,2-0.6,2.8,0.1c0.4,0.4,0.7,0.7,1.1,1.1c0.3,0.3,0.4,0.7,0.6,1C212.4,120.2,212.4,120.5,212.4,120.8z"/>
		</g>
	</g>
</g>
<g id="Capa_6" class="st11">
	<g class="st12">
		<circle class="st7" cx="200.2" cy="490.3" r="50.1"/>
		<text transform="matrix(1 0 0 1 178.5536 516.1873)" class="st8 st9 st10">6</text>
	</g>
	<circle class="st13" cx="200.2" cy="199.3" r="192.8"/>
	<g class="st12">
		<path class="st21" d="M263.6,121c0-0.9,0-1.8-0.1-2.7c-0.4-5-3.4-8-8.1-8.5h-11h-16.2h-18.2h-8.8H201h-8.4h-18H152h-3.1
			c-7,0.5-9.6,3.6-9.6,11.2c0,34.1,0,68.2,0,102.2c0,1.1,0,2.2,0.1,3.2c0.6,4.7,4,8,8.7,8c17.7,0,35.5,0,53.2-0.1
			c18,0,36,0.1,54.1,0.1c2.5,0,4.5-1.2,6.1-3c2.1-2.3,2.1-5.2,2.1-8C263.6,189.4,263.6,155.2,263.6,121z"/>
		<g>
			<g>
				<path class="st0" d="M230.3,185.8c-0.6,1.7-1.7,2.9-3.4,3.5c-0.6,0.2-1.1,0.3-1.7,0.3c-0.6,0-0.7,0.2-0.7,0.8
					c0,5.1,0,10.2,0,15.2c0,1.7-0.3,3.3-1.5,4.7c-1.2,1.3-2.6,2.1-4.4,2.1c-2.9,0-5.9,0-8.8,0c-1.4,0-2-0.6-2-2c0-4.2,0-8.5,0-12.7
					c0-1.2-0.5-2.1-1.7-2.7c-0.3-0.1-0.7-0.2-1-0.2c-1.8,0-3.5,0-5.3,0c-1.6,0-2.7,1.1-2.7,2.7c0,4.2,0,8.5,0,12.7
					c0,1.5-0.6,2.1-2,2.1c-2.9,0-5.8,0-8.6,0c-3.2,0-5.8-2.5-6-5.7c0-0.6-0.1-1.3-0.1-1.9c0-4.8,0-9.7,0-14.5c0-0.5-0.1-0.7-0.7-0.7
					c-1.5,0-2.9-0.5-3.9-1.7c-1.9-2.1-1.9-5.1,0.1-7.3c0.1-0.1,0.3-0.3,0.4-0.4c7.3-7.3,14.5-14.5,21.8-21.8
					c0.8-0.8,1.7-1.6,2.9-1.9c0.9,0,1.9,0,2.8,0c1.1,0.4,2,1.1,2.8,1.9c7.2,7.2,14.4,14.4,21.6,21.6c0.9,0.9,1.7,1.8,2,3
					C230.3,183.9,230.3,184.8,230.3,185.8z M183.8,197.1c0,3,0,6,0,9c0,1.8,1.1,2.9,2.9,3c2.1,0,4.2,0,6.3,0c0.5,0,0.6-0.2,0.6-0.7
					c0-3.1,0-6.2,0-9.3c0-0.7,0-1.4,0.1-2.1c0.3-3,2.8-5.4,5.8-5.5c1.9,0,3.8,0,5.7,0c1.7,0,3.2,0.8,4.3,2c1.1,1.3,1.6,2.8,1.6,4.5
					c0,3.5,0,7,0,10.4c0,0.5,0.1,0.6,0.6,0.6c2,0,4.1,0,6.1,0c2.1,0,3.2-1.1,3.2-3.2c0-5.9,0-11.9,0-17.8c0-1.2,0.7-1.9,1.9-1.9
					c0.7,0,1.4,0,2.1,0c0.8,0,1.5-0.3,1.8-1.1c0.3-0.8,0.1-1.5-0.5-2.1c-0.8-0.8-1.6-1.6-2.4-2.4c-6.7-6.7-13.4-13.4-20.2-20.2
					c-0.9-0.9-1.9-1-2.8-0.1c-7.6,7.6-15.1,15.1-22.7,22.7c-0.6,0.6-0.8,1.3-0.5,2c0.3,0.8,1,1.1,1.8,1.1c0.7,0,1.4,0,2.1,0
					c1.4,0,2,0.6,2,2C183.8,191.1,183.8,194.1,183.8,197.1z"/>
			</g>
		</g>
		<g>
			<path class="st20" d="M201.3,273.1c-6,0-11.9,0-17.9,0.1c-4.1,0-7.1,2.7-7.1,6.3c0,3.6,3,6.2,7.1,6.3c6,0,11.9,0,17.9,0.1
				c0.8,0.8,0.6,1.8,0.7,2.8c0,6.5,0,12.9,0,19.4c0,1,0.1,2-0.7,2.8c-8.9,0-17.8,0.1-26.7,0c-1.4,0-2.3,0.4-3.3,1.4
				c-7.1,7.2-14.2,14.3-21.4,21.4c-3.7,3.7-7.2,3.7-10.8,0c-9.8-9.8-19.7-19.6-29.5-29.5c-3.5-3.5-3.6-7-0.1-10.5
				c11.8-11.8,23.6-23.6,35.4-35.4c6.9-6.9,15.1-10.2,24.9-10c10.5,0.2,21,0.1,31.5,0.1c0.8,0.8,0.6,1.8,0.7,2.8
				c0,6.5,0,12.9,0,19.4C202,271.3,202.1,272.3,201.3,273.1z"/>
			<path class="st19" d="M201.3,310.6c0-8.3,0-16.6,0-24.9c7.2,0,14.5-0.2,21.7,0c9,0.1,15.5-3.6,19.6-11.8
				c5.7-11.2,11.7-22.2,17.5-33.4c4.9-9.6,12.5-15.5,23.2-17.3c1.6-0.3,3.3-0.3,5-0.1c4,0.5,6.4,5.1,4.6,8.9
				c-1.8,3.8-3.8,7.4-5.7,11.1c-7.4,14.1-14.8,28.1-22.1,42.2c-5.9,11.4-14.7,19.5-27.1,23.4c-3.6,1.1-7.4,1.9-11.2,1.9
				C218.3,310.7,209.8,310.7,201.3,310.6z"/>
			<path class="st19" d="M201.3,273.1c0-8.3,0-16.6,0-24.9c10.7,0,21.4-0.1,32.1,0c3.8,0,6.2,4,4.6,7.7c-1.7,3.8-3.8,7.4-5.7,11.1
				c-0.6,1.1-1.1,2.2-1.8,3.3c-1.1,1.7-2.7,2.9-4.8,2.9C217.6,273.2,209.5,273.1,201.3,273.1z"/>
		</g>
		<path class="st22" d="M230.3,93.9v-2.5c0-16-12.9-28.9-28.9-28.9c-16,0-28.9,12.9-28.9,28.9v6.8v5.5v27.6c0,2.9,0.6,5,2,6.4
			c1.3,1.4,3,2.1,5.1,2.1c2.1,0,3.8-0.7,5-2.1c1.3-1.4,1.9-3.5,1.9-6.4V96c0-5.9,1.1-10.3,3.4-13.2s6.1-4.4,11.6-4.4
			c4,0,7,0.7,9.2,2.1c2.2,1.4,3.7,3.4,4.6,6c0.9,2.6,1.3,5.8,1.3,9.7v35.1c0,2.8,0.6,4.9,1.9,6.4c1.3,1.4,3,2.1,5.2,2.1
			c2.1,0,3.7-0.7,5-2.1c1.3-1.4,1.9-3.5,1.9-6.4V98.2C230.4,96.7,230.4,95.3,230.3,93.9z"/>
	</g>
</g>
<g id="Capa_7" class="st11">
	<g class="st12">
		<circle class="st7" cx="200.2" cy="490.3" r="50.1"/>
		<text transform="matrix(1 0 0 1 186.8021 516.1873)" class="st8 st9 st10">1</text>
	</g>
</g>
<g id="Capa_8" class="st11">
	<g class="st12">
		<circle class="st7" cx="200.2" cy="490.3" r="50.1"/>
		<text transform="matrix(1 0 0 1 180.1361 516.1873)" class="st8 st9 st10">2</text>
	</g>
</g>
<g id="Capa_9" class="st11">
	<g class="st12">
		<circle class="st7" cx="200.2" cy="490.3" r="50.1"/>
		<text transform="matrix(1 0 0 1 180.1022 516.1873)" class="st8 st9 st10">3</text>
	</g>
</g>
<g id="Capa_10" class="st11">
	<g class="st12">
		<circle class="st7" cx="200.2" cy="490.3" r="50.1"/>
		<text transform="matrix(1 0 0 1 176.8026 516.1873)" class="st8 st9 st10">4</text>
	</g>
</g>
</svg>
