<?xml version="1.0" encoding="utf-8"?>
<!-- Generator: Adobe Illustrator 24.1.0, SVG Export Plug-In . SVG Version: 6.00 Build 0)  -->
<svg version="1.1" id="Capa_1" xmlns="http://www.w3.org/2000/svg" xmlns:xlink="http://www.w3.org/1999/xlink" x="0px" y="0px"
	 viewBox="0 0 200 68.8" style="enable-background:new 0 0 200 68.8;" xml:space="preserve">
<style type="text/css">
	.st0{fill:#E5322A;}
	.st1{fill:#FFFFFF;}
</style>
<g>
	<g>
		<g>
			<path class="st0" d="M12.7,30.7c9.3-8.9,21.1-9.3,29.4-0.7c3,3.1,4.8,6.6,5.4,10.3c1.7-4,2.7-7.8,2.7-10.9C50.2,17,40.2,7,28,7
				C15.7,7,5.7,17,5.7,29.3c0,2.1,0.4,4.5,1.2,7L12.7,30.7z"/>
			<path class="st0" d="M35.7,55c6.4-6.1,6.8-14,1.1-19.9s-13.6-5.8-20,0.3l-7,6.7l18.9,19.6L35.7,55z"/>
		</g>
		<g>
			<path class="st1" d="M67.4,26.1h9c6.3,0,10.2,3.3,10.2,8.6c0,7.2-5.2,11.7-12.5,11.7H63.4L67.4,26.1z M74.4,41.1
				c3.6,0,5.5-2.6,5.5-6c0-2.4-1.5-3.7-4.2-3.7h-2.6l-1.9,9.7H74.4z"/>
			<path class="st1" d="M90,30.6h6.4l-3.1,15.9h-6.4L90,30.6z M90.3,26.2c0-2,1.6-3.6,4.1-3.6c2.3,0,3.7,1.3,3.7,3
				c0,2.2-1.6,3.7-4.1,3.7C91.7,29.3,90.3,27.9,90.3,26.2z"/>
			<path class="st1" d="M116.8,30.6l-2.5,12.7c-1.3,6.5-5.1,9.1-10.7,9.1c-3.2,0-5.8-0.7-7.8-2l2.7-4.5c1.3,1,3.2,1.6,5.1,1.6
				c2.5,0,3.5-1.1,3.9-3l0.1-0.4c-1.1,1-2.4,1.5-4,1.5c-3.5,0-6.8-2.6-6.8-6.9c0-4.7,3.7-8.5,8.4-8.5c2.2,0,4,0.7,4.8,2.7l0.5-2.4
				h6.3V30.6z M105.8,40.5c1.7,0,2.8-1.2,2.8-3c0-1.2-0.8-2-2.3-2c-1.7,0-2.8,1.2-2.8,3C103.5,39.6,104.4,40.5,105.8,40.5z"/>
			<path class="st1" d="M119.7,30.6h6.4L123,46.5h-6.4L119.7,30.6z M119.9,26.2c0-2,1.6-3.6,4.1-3.6c2.3,0,3.7,1.3,3.7,3
				c0,2.2-1.6,3.7-4.1,3.7C121.3,29.3,119.9,27.9,119.9,26.2z"/>
			<path class="st1" d="M134.3,40.2c0,0.2-0.1,0.3-0.1,0.5c0,0.8,0.5,1.1,1.2,1.1c0.5,0,0.9-0.1,1.4-0.4l0.7,4.4
				c-1.2,0.7-2.7,0.9-4.2,0.9c-3.5,0-5.7-1.8-5.7-4.9c0-0.5,0.1-1,0.2-1.6l0.8-4h-2.2l0.9-4.8h2.1l0.9-4.4h6.5l-0.9,4.4h3.2
				l-0.9,4.8H135L134.3,40.2z"/>
			<path class="st1" d="M156.6,40.1h-11c0.3,1.3,1.3,1.9,3,1.9c1.2,0,2.4-0.3,3.4-1.1l2.7,4c-2.1,1.5-4.5,2-6.8,2
				c-5.2,0-8.6-2.8-8.6-7.4c0-5.2,3.9-9.1,9.7-9.1c5,0,8,2.9,8,7C157,38.3,156.8,39.2,156.6,40.1z M145.9,36.9h5.1
				c0-1.3-0.9-2.1-2.3-2.1C147.2,34.8,146.3,35.7,145.9,36.9z"/>
			<path class="st1" d="M156.9,43.3c0-2.4,1.8-4,4.1-4c2.1,0,3.5,1.4,3.5,3.5c0,2.4-1.8,4-4,4C158.4,46.8,156.9,45.3,156.9,43.3z"/>
			<path class="st0" d="M166.5,39.4c0-5.2,4.1-9.1,9.9-9.1c3.7,0,6.6,1.8,7.8,4.7l-5.5,2.6c-0.5-1.5-1.5-2-2.6-2c-1.7,0-3,1.4-3,3.5
				c0,1.5,0.9,2.6,2.5,2.6c1.3,0,2.2-0.6,2.9-2l4.7,2.8c-1.5,2.8-4.4,4.4-8.1,4.4C169.9,46.8,166.5,43.9,166.5,39.4z"/>
			<path class="st0" d="M187.7,24.9h6.5L190,46.5h-6.5L187.7,24.9z"/>
		</g>
	</g>
	<g>
		<g>
			<g>
				<path class="st1" d="M64.7,57h-1.4v-0.4h3.3V57h-1.4v3.7h-0.4L64.7,57L64.7,57z"/>
				<path class="st1" d="M70.2,60.7l-0.9-1.3c-0.1,0-0.2,0-0.3,0h-1.1v1.3h-0.4v-4.1H69c1,0,1.7,0.5,1.7,1.4c0,0.6-0.3,1.1-0.9,1.3
					l1,1.4C70.8,60.7,70.2,60.7,70.2,60.7z M70.2,58c0-0.7-0.4-1-1.3-1h-1.1v2.1h1.1C69.7,59.1,70.2,58.7,70.2,58z"/>
				<path class="st1" d="M74.3,59.6H72l-0.5,1.1H71l1.9-4.1h0.4l1.9,4.1h-0.5L74.3,59.6z M74.2,59.3l-1-2.2l-1,2.2H74.2z"/>
				<path class="st1" d="M79.6,56.6v4.1h-0.4l-2.6-3.3v3.3h-0.4v-4.1h0.4l2.6,3.3v-3.3H79.6z"/>
				<path class="st1" d="M80.6,60.2l0.2-0.3c0.3,0.3,0.8,0.5,1.4,0.5c0.8,0,1.1-0.3,1.1-0.7c0-1.1-2.5-0.4-2.5-2
					c0-0.6,0.5-1.1,1.5-1.1c0.5,0,0.9,0.1,1.3,0.4l-0.1,0.3C83,57.1,82.6,57,82.3,57c-0.8,0-1.1,0.3-1.1,0.7c0,1.1,2.5,0.4,2.5,2
					c0,0.6-0.5,1.1-1.5,1.1C81.5,60.8,80.9,60.6,80.6,60.2z"/>
				<path class="st1" d="M85.2,57v1.6h2.1V59h-2.1v1.8h-0.4v-4.1h2.8V57H85.2z"/>
				<path class="st1" d="M88.2,58.7c0-1.2,0.9-2.1,2.2-2.1c1.2,0,2.2,0.9,2.2,2.1s-0.9,2.1-2.2,2.1S88.2,59.9,88.2,58.7z M92.1,58.7
					c0-1-0.7-1.7-1.7-1.7s-1.7,0.7-1.7,1.7s0.7,1.7,1.7,1.7S92.1,59.7,92.1,58.7z"/>
				<path class="st1" d="M96.5,60.7l-0.9-1.3c-0.1,0-0.2,0-0.3,0h-1.1v1.3h-0.4v-4.1h1.5c1,0,1.7,0.5,1.7,1.4c0,0.6-0.3,1.1-0.9,1.3
					l1,1.4C97.1,60.7,96.5,60.7,96.5,60.7z M96.4,58c0-0.7-0.4-1-1.3-1H94v2.1h1.1C96,59.1,96.4,58.7,96.4,58z"/>
				<path class="st1" d="M102.3,56.6v4.1h-0.4v-3.3l-1.6,2.8h-0.2l-1.6-2.8v3.3H98v-4.1h0.4l1.8,3.1l1.8-3.1H102.3z"/>
				<path class="st1" d="M106.4,59.6h-2.3l-0.5,1.1h-0.5l1.9-4.1h0.4l1.9,4.1h-0.5L106.4,59.6z M106.2,59.3l-1-2.2l-1,2.2H106.2z"/>
				<path class="st1" d="M107.7,58.7c0-1.2,0.9-2.1,2.2-2.1c0.6,0,1.1,0.2,1.5,0.6l-0.3,0.3c-0.3-0.3-0.7-0.5-1.2-0.5
					c-1,0-1.7,0.7-1.7,1.7s0.7,1.7,1.7,1.7c0.5,0,0.9-0.1,1.2-0.5l0.3,0.3c-0.4,0.4-0.9,0.6-1.5,0.6
					C108.6,60.8,107.7,59.9,107.7,58.7z"/>
				<path class="st1" d="M112.4,56.6h0.4v4.1h-0.4V56.6z"/>
				<path class="st1" d="M114,58.7c0-1.2,0.9-2.1,2.2-2.1c1.2,0,2.2,0.9,2.2,2.1s-0.9,2.1-2.2,2.1S114,59.9,114,58.7z M117.9,58.7
					c0-1-0.7-1.7-1.7-1.7s-1.7,0.7-1.7,1.7s0.7,1.7,1.7,1.7C117.1,60.4,117.9,59.7,117.9,58.7z"/>
				<path class="st1" d="M122.9,56.6v4.1h-0.4l-2.6-3.3v3.3h-0.4v-4.1h0.4l2.6,3.3v-3.3H122.9z"/>
				<path class="st1" d="M127.7,56.6h1.7c1.3,0,2.2,0.8,2.2,2.1c0,1.2-0.9,2.1-2.2,2.1h-1.7V56.6z M129.4,60.4
					c1.1,0,1.8-0.7,1.8-1.7s-0.7-1.7-1.8-1.7h-1.2v3.4H129.4z"/>
				<path class="st1" d="M132.7,56.6h0.4v4.1h-0.4V56.6z"/>
				<path class="st1" d="M137.5,58.7h0.4v1.6c-0.4,0.3-0.9,0.5-1.5,0.5c-1.2,0-2.2-0.9-2.2-2.1s0.9-2.1,2.2-2.1
					c0.6,0,1.2,0.2,1.5,0.6l-0.3,0.3c-0.3-0.3-0.8-0.5-1.2-0.5c-1,0-1.8,0.7-1.8,1.7s0.7,1.7,1.8,1.7c0.4,0,0.8-0.1,1.1-0.3V58.7z"
					/>
				<path class="st1" d="M139.3,56.6h0.4v4.1h-0.4V56.6z"/>
				<path class="st1" d="M142,57h-1.4v-0.4h3.3V57h-1.4v3.7H142V57z"/>
				<path class="st1" d="M147.1,59.6h-2.3l-0.5,1.1h-0.5l1.9-4.1h0.4l1.9,4.1h-0.5L147.1,59.6z M146.9,59.3l-1-2.2l-1,2.2H146.9z"/>
				<path class="st1" d="M148.9,56.6h0.4v3.7h2.3v0.4h-2.7V56.6z"/>
				<path class="st1" d="M157.4,58c0,0.9-0.6,1.4-1.7,1.4h-1.1v1.3h-0.4v-4.1h1.5C156.7,56.6,157.4,57.2,157.4,58z M156.9,58
					c0-0.7-0.4-1-1.3-1h-1.1v2.1h1.1C156.5,59.1,156.9,58.7,156.9,58z"/>
				<path class="st1" d="M160.8,59.6h-2.3l-0.5,1.1h-0.5l1.9-4.1h0.4l1.9,4.1h-0.5L160.8,59.6z M160.7,59.3l-1-2.2l-1,2.2H160.7z"/>
				<path class="st1" d="M165.4,60.7l-0.9-1.3c-0.1,0-0.2,0-0.3,0H163v1.3h-0.4v-4.1h1.5c1,0,1.7,0.5,1.7,1.4c0,0.6-0.3,1.1-0.9,1.3
					l1,1.4C165.9,60.7,165.4,60.7,165.4,60.7z M165.4,58c0-0.7-0.4-1-1.3-1H163v2.1h1.1C165,59.1,165.4,58.7,165.4,58z"/>
				<path class="st1" d="M169.6,59.6h-2.3l-0.5,1.1h-0.5l1.9-4.1h0.4l1.9,4.1H170L169.6,59.6z M169.4,59.3l-1-2.2l-1,2.2H169.4z"/>
				<path class="st1" d="M173.8,57h-1.4v-0.4h3.3V57h-1.4v3.7h-0.4V57H173.8z"/>
				<path class="st1" d="M176.1,58.7c0-1.2,0.9-2.1,2.2-2.1c1.2,0,2.2,0.9,2.2,2.1s-0.9,2.1-2.2,2.1S176.1,59.9,176.1,58.7z
					 M180,58.7c0-1-0.7-1.7-1.7-1.7s-1.7,0.7-1.7,1.7s0.7,1.7,1.7,1.7S180,59.7,180,58.7z"/>
				<path class="st1" d="M181.5,56.6h1.7c1.3,0,2.2,0.8,2.2,2.1c0,1.2-0.9,2.1-2.2,2.1h-1.7V56.6z M183.2,60.4
					c1.1,0,1.8-0.7,1.8-1.7s-0.7-1.7-1.8-1.7H182v3.4H183.2z"/>
				<path class="st1" d="M186.2,58.7c0-1.2,0.9-2.1,2.2-2.1c1.2,0,2.2,0.9,2.2,2.1s-0.9,2.1-2.2,2.1
					C187.1,60.8,186.2,59.9,186.2,58.7z M190.1,58.7c0-1-0.7-1.7-1.7-1.7s-1.7,0.7-1.7,1.7s0.7,1.7,1.7,1.7
					C189.3,60.4,190.1,59.7,190.1,58.7z"/>
				<path class="st1" d="M191.2,60.2l0.2-0.3c0.3,0.3,0.8,0.5,1.4,0.5c0.8,0,1.1-0.3,1.1-0.7c0-1.1-2.5-0.4-2.5-2
					c0-0.6,0.5-1.1,1.5-1.1c0.5,0,0.9,0.1,1.3,0.4l-0.1,0.3c-0.4-0.2-0.8-0.3-1.1-0.3c-0.8,0-1.1,0.3-1.1,0.7c0,1.1,2.5,0.4,2.5,2
					c0,0.6-0.5,1.1-1.5,1.1C192.1,60.8,191.5,60.6,191.2,60.2z"/>
			</g>
		</g>
		<path class="st1" d="M117.8,55.2h0.3L117,56h-0.2L117.8,55.2z"/>
	</g>
</g>
</svg>
